<svg xmlns="http://www.w3.org/2000/svg" id="Calque_1" data-name="Calque 1" width="500" height="500" viewBox="0 0 500 500"><metadata><rdf:RDF xmlns:rdf="http://www.w3.org/1999/02/22-rdf-syntax-ns#" xmlns:dc="http://purl.org/dc/elements/1.1/"><rdf:Description><dc:creator>RealFaviconGenerator</dc:creator><dc:source>https://realfavicongenerator.net</dc:source></rdf:Description></rdf:RDF></metadata><defs>
    <style>
      .cls-1 {
        fill: #366d98;
      }

      .cls-2 {
        fill: #1f6863;
      }

      .cls-3 {
        fill: #98322c;
      }

      .cls-4 {
        fill: #3483bc;
      }

      .cls-5 {
        fill: #fff;
      }

      .cls-6 {
        fill: #bcaa31;
      }

      .cls-7 {
        fill: #bc2f28;
      }

      .cls-8 {
        fill: #33bc43;
      }

      .cls-9 {
        fill: #fff8e7;
      }

      .cls-10 {
        fill: #369843;
      }

      .cls-11 {
        fill: #1e8c86;
      }

      .cls-12 {
        fill: #988b34;
      }
    </style>
  </defs><rect class="cls-9" x="0" y="0" width="500" height="500" rx="250" ry="250"></rect><g>
    <g>
      <g>
        <path class="cls-8" d="M344.75,196.05l-1.31,3.18c-.8.07-1.62.14-2.43.22-2.45.22-4.95.45-7.46.68-1.48.13-2.8.8-3.77,1.8l-.12.12s-.08.08-.12.12c-.04.04-.08.08-.12.13-.04.04-.08.08-.12.11-.04.04-.08.08-.12.12l-.12.12s-.08.08-.12.12c-.04.04-.08.08-.12.13-.04.04-.08.08-.12.11-.04.04-.08.08-.12.12l-.12.12s-.08.08-.12.12c-.04.04-.08.08-.12.13-.04.04-.08.08-.12.11-.04.04-.08.08-.12.12l-.12.12s-.08.08-.12.12c-.04.04-.08.08-.12.13-.04.04-.08.08-.12.11-.04.04-.08.08-.12.12l-.12.12s-.08.08-.12.12c-.04.04-.08.08-.12.13-.04.04-.08.08-.12.11-.04.04-.08.08-.12.12l-.12.12s-.08.08-.12.12c-.04.04-.08.08-.12.13-.04.04-.08.08-.12.11-.04.04-.08.08-.12.12l-.12.12s-.08.08-.12.12c-.04.04-.08.08-.12.13-.04.04-.08.08-.12.11-.04.04-.08.08-.12.12l-.12.12s-.08.08-.12.12c-.04.04-.08.08-.12.13-.04.04-.08.08-.12.11-.04.04-.08.08-.12.12l-.12.12s-.08.08-.12.12c-.04.04-.08.08-.12.13-.04.04-.08.08-.12.11-.04.04-.08.08-.12.12-.03.04-.07.07-.1.1l-.82-2.04c-.92-2.3-3.15-3.78-5.59-3.78-.2,0-.39.01-.59.03-4.69.45-9.54.93-14.85,1.47-1.47.14-2.77.81-3.73,1.8-.04.04-.08.08-.11.12-.04.04-.08.08-.13.12l-.11.11s-.08.08-.13.13l-.12.12s-.08.08-.11.12c-.04.04-.08.08-.13.12l-.11.11s-.08.08-.13.13l-.12.12s-.08.08-.11.12c-.04.04-.08.08-.13.12l-.11.11s-.08.08-.13.13l-.12.12s-.08.08-.11.12c-.04.04-.08.08-.13.12l-.11.11s-.08.08-.13.13l-.12.12s-.08.08-.11.12c-.04.04-.08.08-.13.12l-.11.11s-.08.08-.13.13l-.12.12s-.08.08-.11.12c-.04.04-.08.08-.13.12l-.11.11s-.08.08-.13.13l-.12.12s-.08.08-.11.12c-.04.04-.08.08-.13.12l-.11.11s-.08.08-.13.13l-.12.12s-.08.08-.11.12c-.04.04-.08.08-.13.12l-.11.11s-.08.08-.13.13l-.12.12s-.08.08-.11.12c-.04.04-.08.08-.13.12l-.11.11s-.08.08-.13.13l-.12.12s-.08.08-.11.12c-.04.04-.08.08-.13.12l-.11.11s-.08.08-.13.13l-.12.12s-.08.08-.11.12c-.04.04-.08.08-.13.12l-.11.11s-.08.08-.13.13l-.12.12s-.08.08-.11.12c-.04.04-.08.08-.13.12l-.11.11s0,0,0,0c-.63-.71-1.31-1.38-2.03-1.98-.63-.53-1.29-1.02-1.98-1.47-.65-.42-1.33-.81-2.04-1.16l5.95-42.96.31-2.21,2.07.86,2.07.85,42.61,17.55c5.74,2.36,8.47,8.93,6.1,14.66Z"></path>
        <path class="cls-10" d="M346.74,186.63c-1.38-3.31-3.96-5.87-7.26-7.24l-43.13-17.76-2.07-.86-2.07-.85-.31,2.22-.31,2.21,2.07.86,2.07.86,42.1,17.34c2.24.92,3.98,2.66,4.92,4.89.93,2.24.93,4.7.01,6.94l-1.74,4.22c.81-.07,1.63-.14,2.43-.22.82-.07,1.63-.14,2.44-.22l.88-2.14c1.36-3.31,1.36-6.95-.02-10.25Z"></path>
      </g>
      <g>
        <path class="cls-6" d="M167.73,221.06c.07,0,.14,0,.21,0h-.21c-.28,0-.57,0-.86,0,.25,0,.49-.02.74-.02.04,0,.08,0,.13,0Z"></path>
        <path class="cls-6" d="M168.66,215.04c-.34-.01-.7-.02-1.06-.02-.38,0-.77,0-1.16.02-.72.02-1.45.06-2.19.12-.04,0-.07,0-.1,0-8.06.62-14.56,3.23-19.28,7.76l-6.32,6.32.06-4.31c.02-1.68-.66-3.29-1.87-4.45-1.12-1.07-2.62-1.67-4.16-1.67-.12,0-.24,0-.36.01-4.99.3-9.95.58-14.78.81-.79.04-1.58.08-2.36.11l-2.64-5.31c-2.77-5.55-.51-12.29,5.04-15.06l39.19-19.52,2.01-1,2.01-1,.47,2.19,7.5,34.97Z"></path>
        <path class="cls-12" d="M160.69,177.88l-.47-2.19-2.01,1-2,1-39.7,19.76c-3.2,1.6-5.59,4.34-6.73,7.74-1.14,3.4-.89,7.03.71,10.23l2.29,4.61c.43-.12.87-.19,1.33-.22.32-.01.64-.03.96-.05.78-.04,1.57-.07,2.36-.11l-3.06-6.16c-1.08-2.17-1.25-4.63-.48-6.92.77-2.3,2.38-4.16,4.55-5.24l38.69-19.27,2.01-1,2.01-1-.47-2.19Z"></path>
      </g>
      <g>
        <path class="cls-7" d="M167.73,221.06c.07,0,.14,0,.21,0h-.21Z"></path>
        <path class="cls-7" d="M219.07,149.47l-8.73,63.04c-.68.07-1.36.13-2.03.19-1.46.14-2.77.8-3.75,1.8-.04.04-.08.08-.11.12-.09.08-.18.17-.27.27l-.07.07c-.09.08-.18.17-.27.26-.09.08-.18.17-.27.27l-.07.07c-.09.08-.18.17-.27.26-.09.08-.18.17-.27.27l-.07.07c-.09.08-.18.17-.27.26-.09.08-.18.17-.27.27l-.07.07c-.09.08-.18.17-.27.26-.09.08-.18.17-.27.27l-.07.07c-.09.08-.18.17-.27.26-.09.08-.18.17-.27.27l-.07.07c-.09.08-.18.17-.27.26-.09.08-.18.17-.27.27l-.07.07c-.09.08-.18.17-.27.26-.09.08-.18.17-.27.27l-.07.07s-.07.06-.1.09c-.06.05-.11.11-.17.17-.09.08-.18.17-.27.27l-.07.07c-.09.08-.18.17-.27.26-.09.08-.18.17-.27.27l-.07.07c-.09.08-.18.17-.27.26-.08.08-.16.16-.24.25-.01,0-.02.02-.02.02l-.07.07c-.09.08-.18.17-.27.26-.09.08-.18.17-.27.27l-.07.07c-.09.08-.18.17-.27.26-.09.08-.18.17-.27.27l-.07.07c-.09.08-.18.17-.27.26-.02.01-.03.03-.05.05-.07.07-.14.14-.22.22l-.07.07c-.09.08-.18.17-.27.26-.09.08-.18.17-.27.27l-.07.07c-.09.08-.18.17-.27.26-.09.08-.18.17-.27.27l-.07.07c-.09.08-.18.17-.27.26-.09.08-.18.17-.27.27l-.07.07c-.09.08-.18.17-.27.26-.09.08-.18.17-.27.27l-.07.07c-.09.08-.18.17-.27.26-.09.08-.18.17-.27.27l-.07.07c-.09.08-.18.17-.27.26-.09.08-.18.17-.27.27l-.07.07c-.09.08-.18.17-.27.26-.09.08-.18.17-.27.27l-.07.07c-.09.08-.18.17-.27.26-.09.08-.18.17-.27.27l-.07.07c-.09.08-.18.17-.27.26-.09.08-.18.17-.27.27l-.07.07c-.09.08-.18.17-.27.26-.09.08-.18.17-.27.27l-.07.07s-.08.07-.12.11c-.22-.52-.45-1.05-.71-1.56-2.7-5.49-8.48-12.01-20.74-12.36l-7.5-34.97-.47-2.19-.47-2.19-.97-4.49c-1.05-4.89,2.07-9.71,6.95-10.76l50.27-10.79c.63-.14,1.28-.21,1.92-.21.22,0,.45,0,.68.02Z"></path>
        <path class="cls-7" d="M223.57,148.56l-.32,2.32-8.47,61.21c-.75.07-1.49.14-2.23.21-.74.07-1.48.14-2.22.22l8.73-63.04c-.22-.02-.45-.02-.68-.02-.64,0-1.28.07-1.92.21l-50.27,10.79c-4.89,1.05-8,5.87-6.95,10.76l.97,4.49.47,2.19.47,2.19,7.5,34.97c-.34-.01-.7-.02-1.06-.02-.38,0-.77,0-1.16.02l-7.29-33.97-.47-2.19-.47-2.19-1.08-5.04c-1.3-6.06,2.56-12.03,8.63-13.34l50.26-10.79c1.13-.24,2.26-.31,3.35-.21.73.07,1.44.2,2.14.4.72.21,1.42.49,2.07.84Z"></path>
        <path class="cls-3" d="M221.8,145.55c-.7-.19-1.42-.31-2.14-.38-1.35-.13-2.73-.05-4.1.24l-50.26,10.79c-7.23,1.56-11.84,8.69-10.29,15.92l1.2,5.58.46,2.18.47,2.19,7.11,33.1c.74-.06,1.47-.1,2.19-.12.39-.01.78-.02,1.16-.02.36,0,.71,0,1.06.02l-7.5-34.97-.47-2.19-.47-2.19-.97-4.49c-1.05-4.89,2.07-9.71,6.95-10.76l50.27-10.79c.63-.14,1.28-.21,1.92-.21.22,0,.45,0,.68.02.72.05,1.44.2,2.13.43.72.23,1.41.55,2.06.97l.32-2.32.31-2.26c-.68-.31-1.38-.56-2.09-.75ZM167.73,221.06s-.08,0-.13,0c-.24,0-.49.01-.74.02.29,0,.58-.01.86,0h.21c-.07,0-.13,0-.21,0Z"></path>
      </g>
      <g>
        <path class="cls-4" d="M293.16,152.93l-.97,6.99-.31,2.22-.31,2.21-5.95,42.96c-3.32-1.65-7.24-2.49-11.71-2.49-1.37,0-2.81.08-4.29.23-2.35.24-4.55.65-6.62,1.22-.93.25-1.83.54-2.7.87-.99.36-1.94.76-2.85,1.21-2.65,1.29-4.98,2.93-6.99,4.92-.05.04-.09.08-.14.13l-.24.24s-.08.08-.13.13l-.24.24-.24.24s-.08.08-.13.13l-.24.24-.24.24s-.08.08-.13.13l-.24.24-.24.24s-.08.08-.13.13l-.24.24-.24.24s-.08.08-.13.13l-.24.24-.24.24s-.08.08-.13.13l-.24.24-.24.24s-.08.08-.13.13l-.24.24-.24.24s-.08.08-.13.13l-.24.24-.24.24s-.08.08-.13.13l-.13.13-.34.34s-.08.08-.13.13l-.24.24-.24.24s-.08.08-.13.13l-.24.24-.24.24s-.08.08-.13.13l-.15.15-.09.09-.24.24s-.08.08-.13.13l-.24.24-.24.24s-.08.08-.13.13l-.24.24-.24.24s-.08.08-.13.13l-.16.16-.31.31s-.08.08-.13.13l-.24.24-.24.24s-.08.08-.13.13l-.24.24-.24.24s-.08.08-.13.13l-.24.24-.24.24s-.08.08-.13.13l-.24.24-.24.24s-.08.08-.13.13l-.24.24-.24.24s-.08.08-.13.13l-.24.24-.24.24s-.08.08-.13.13l-.24.24-.24.24s-.08.08-.13.13l-.24.24-.24.24s-.08.08-.13.13l-.24.24-.24.24s-.08.08-.13.13c-.02.02-.03.03-.04.04l-2.72-12.61c-.61-2.8-3.08-4.77-5.89-4.77-.2,0-.4.01-.61.03-4.01.4-7.79.78-11.44,1.14l8.47-61.21.32-2.32.31-2.26.4-2.91c.33-2.4,1.57-4.52,3.5-5.98,1.59-1.21,3.49-1.84,5.45-1.84.42,0,.84.03,1.27.09l50.92,7.05c4.95.69,8.42,5.27,7.73,10.22Z"></path>
        <path class="cls-4" d="M295.32,153.22l-1.04,7.55-.31,2.23-.31,2.21-5.99,43.26c-.65-.42-1.33-.81-2.04-1.16l5.95-42.96.31-2.21.31-2.22.97-6.99c.69-4.95-2.78-9.53-7.73-10.22l-50.92-7.05c-.42-.06-.84-.09-1.27-.09-1.96,0-3.85.63-5.45,1.84-1.93,1.46-3.17,3.58-3.5,5.98l-.4,2.91-.31,2.26-.32,2.32-8.47,61.21c-.75.07-1.49.14-2.23.21l8.64-62.39.3-2.18.3-2.17.34-2.45c.85-6.15,6.52-10.44,12.67-9.58l50.93,7.05c6.14.85,10.44,6.52,9.58,12.66Z"></path>
        <path class="cls-1" d="M286.03,138.41l-50.93-7.06c-3.54-.49-7.07.43-9.92,2.59-2.85,2.17-4.69,5.3-5.19,8.85l-.33,2.38-.3,2.15-.3,2.15-8.73,63.04c.74-.07,1.48-.14,2.22-.22.74-.07,1.48-.14,2.23-.21l8.47-61.21.32-2.32.31-2.26.4-2.91c.33-2.4,1.57-4.52,3.5-5.98,1.59-1.21,3.49-1.84,5.45-1.84.42,0,.84.03,1.27.09l50.92,7.05c4.95.69,8.42,5.27,7.73,10.22l-.97,6.99-.31,2.22-.31,2.21-5.95,42.96c.71.35,1.39.74,2.04,1.16.69.45,1.36.94,1.98,1.47l6.07-43.88.31-2.22.31-2.22,1.12-8.1c1.01-7.32-4.12-14.1-11.44-15.11Z"></path>
      </g>
    </g>
    <path class="cls-2" d="M467.34,200.07c-4.88-5.5-11.67-8.41-19.63-8.41-.24,0-.48,0-.71.01-7.24.16-13.44,2.69-17.93,7.33l-.11.11s-.08.08-.12.12c-.04.04-.08.08-.12.12-.04.04-.08.08-.12.11-.04.05-.08.08-.12.13-.04.04-.08.08-.12.12-.04.04-.08.08-.12.12-.04.04-.08.08-.12.12-.04.04-.08.08-.12.11-.04.05-.08.08-.12.13-.04.04-.08.08-.12.12-.04.04-.08.08-.12.12-.04.04-.08.08-.12.12-.04.04-.08.08-.12.11-.04.05-.08.08-.12.13-.04.04-.08.08-.12.12-.04.04-.08.08-.12.12-.04.04-.08.08-.12.12-.04.04-.08.08-.12.11-.04.05-.08.08-.12.13-.04.04-.08.08-.12.12-.04.04-.08.08-.12.12-.04.04-.08.08-.12.12-.04.04-.08.08-.12.11-.04.05-.08.08-.12.13-.04.04-.08.08-.12.12-.04.04-.08.08-.12.12-.04.04-.08.08-.12.12-.04.04-.08.08-.12.11-.04.05-.08.08-.12.13-.04.04-.08.08-.12.12-.04.04-.08.08-.12.12-.04.04-.08.08-.12.12-.04.04-.08.08-.12.11-.04.05-.08.08-.12.13-.04.04-.08.08-.12.12-.04.04-.08.08-.12.12-.04.04-.08.08-.12.12-.04.04-.08.08-.12.11-.04.05-.08.08-.12.13-.04.04-.08.08-.12.12-.04.04-.08.08-.12.12-.04.04-.08.08-.12.12-.04.04-.08.08-.12.11-.04.05-.08.08-.12.13-.04.04-.08.08-.12.12-.04.04-.08.08-.12.12-.04.04-.08.08-.12.12-.04.04-.08.08-.12.11-.04.05-.08.08-.12.13-.04.04-.08.08-.12.12-.04.04-.08.08-.12.12-.04.04-.08.08-.12.12-.04.04-.08.08-.12.11-.04.05-.08.08-.12.13-.04.04-.08.08-.12.12-.04.04-.08.08-.12.12-.04.04-.08.08-.12.12-.04.04-.08.08-.12.11-.04.05-.08.08-.12.13-.04.04-.08.08-.12.12-.04.04-.08.08-.12.12-.04.04-.08.08-.12.12-.04.04-.08.08-.12.11-.04.05-.08.08-.12.13-.04.04-.08.08-.12.12-.04.04-.08.08-.12.12-.04.04-.08.08-.12.12-.04.04-.08.08-.12.11-.04.05-.08.08-.12.13-.04.04-.08.08-.12.12-.04.04-.08.08-.12.12-.04.04-.08.08-.12.12-.04.04-.08.08-.12.11-.04.05-.08.08-.12.13-.04.04-.08.08-.12.12-.04.04-.08.08-.12.12-.04.04-.08.08-.12.12-.04.04-.08.08-.12.11-.04.05-.08.08-.12.13-.04.04-.08.08-.12.12-.04.04-.08.08-.12.12-.04.04-.08.08-.12.12-.04.04-.08.08-.12.11-.04.05-.08.08-.12.13-.04.04-.08.08-.12.12-.04.04-.08.08-.12.12-.04.04-.08.08-.12.12-.04.04-.08.08-.12.11-.04.05-.08.08-.12.13-.04.04-.08.08-.12.12-.04.04-.08.08-.12.12-.04.04-.08.08-.12.12-.04.04-.08.08-.12.11-.04.05-.08.08-.12.13-.04.04-.08.08-.12.12-.04.04-.08.08-.12.12-.04.04-.08.08-.12.12-.04.04-.08.08-.12.11-.04.05-.08.08-.12.13-.04.04-.08.08-.12.12-.04.04-.08.08-.12.12-.04.04-.08.08-.12.12-.04.04-.08.08-.12.11-.04.05-.08.08-.12.13-.04.04-.08.08-.12.12-.04.04-.08.08-.12.12-.04.04-.08.08-.12.12-.04.04-.08.08-.12.11-.04.05-.08.08-.12.13-.04.04-.08.08-.12.12-.04.04-.08.08-.12.12-.04.04-.08.08-.12.12-.04.04-.08.08-.12.11-.04.05-.08.08-.12.13-.04.04-.08.08-.12.12-.04.04-.08.08-.12.12-.04.04-.08.08-.12.12-.04.04-.08.08-.12.11-.04.05-.08.08-.12.13-.04.04-.08.08-.12.12-.04.04-.08.08-.12.12-.04.04-.08.08-.12.12-.04.04-.08.08-.12.11-.04.05-.08.08-.12.13-.04.04-.08.08-.12.12-.04.04-.08.08-.12.12-.04.04-.08.08-.12.12-.04.04-.08.08-.12.11-.04.05-.08.08-.12.13-.04.04-.08.08-.12.12-.04.04-.08.08-.12.12-.04.04-.08.08-.12.12-.04.04-.08.08-.12.11-.04.05-.08.08-.12.13-.04.04-.08.08-.12.12-.04.04-.08.08-.12.12-.04.04-.08.08-.12.12-.04.04-.08.08-.12.11-.04.05-.08.08-.12.13-.04.04-.08.08-.12.12-.04.04-.08.08-.12.12-.04.04-.08.08-.12.12-.04.04-.08.08-.12.11-.04.05-.08.08-.12.13-.04.04-.08.08-.12.12-.04.04-.08.08-.12.12-.04.04-.08.08-.12.12l-.15.15c-.29.3-.57.6-.84.91h-.01l-.84.8c-.62.59-1.65.14-1.65-.72h0s0-.01,0-.01v-17.02c0-1.66-.68-3.25-1.89-4.39-1.12-1.06-2.61-1.65-4.14-1.65-.11,0-.23,0-.34.01-12.56.72-25.52,1.62-39.6,2.75-1.51.12-2.86.8-3.84,1.81-.04.04-.08.08-.12.11-.04.04-.08.08-.12.13-.04.04-.08.08-.12.11-.04.04-.08.08-.12.13-.04.04-.08.08-.12.12-.04.04-.08.08-.12.11-.04.04-.08.08-.12.13-.04.04-.08.08-.12.11-.04.04-.08.08-.12.13-.04.04-.08.08-.12.12-.04.04-.08.08-.12.11-.04.04-.08.08-.12.13-.04.04-.08.08-.12.11-.04.04-.08.08-.12.13-.04.04-.08.08-.12.12-.02.01-.03.03-.04.04-.27-.41-.59-.79-.95-1.13-1.12-1.04-2.59-1.62-4.11-1.62-.17,0-.34,0-.51.02-1.5.13-3.03.26-4.58.39-.81.07-1.62.14-2.44.22-.8.07-1.62.14-2.43.22-2.45.22-4.95.45-7.46.68-1.48.13-2.8.8-3.77,1.8l-.12.12s-.08.08-.12.12c-.04.04-.08.08-.12.13-.04.04-.08.08-.12.11-.04.04-.08.08-.12.12l-.12.12s-.08.08-.12.12c-.04.04-.08.08-.12.13-.04.04-.08.08-.12.11-.04.04-.08.08-.12.12l-.12.12s-.08.08-.12.12c-.04.04-.08.08-.12.13-.04.04-.08.08-.12.11-.04.04-.08.08-.12.12l-.12.12s-.08.08-.12.12c-.04.04-.08.08-.12.13-.04.04-.08.08-.12.11-.04.04-.08.08-.12.12l-.12.12s-.08.08-.12.12c-.04.04-.08.08-.12.13-.04.04-.08.08-.12.11-.04.04-.08.08-.12.12l-.12.12s-.08.08-.12.12c-.04.04-.08.08-.12.13-.04.04-.08.08-.12.11-.04.04-.08.08-.12.12l-.12.12s-.08.08-.12.12c-.04.04-.08.08-.12.13-.04.04-.08.08-.12.11-.04.04-.08.08-.12.12l-.12.12s-.08.08-.12.12c-.04.04-.08.08-.12.13-.04.04-.08.08-.12.11-.04.04-.08.08-.12.12l-.12.12s-.08.08-.12.12c-.04.04-.08.08-.12.13-.04.04-.08.08-.12.11-.04.04-.08.08-.12.12-.03.04-.07.07-.1.1l-.82-2.04c-.92-2.3-3.15-3.78-5.59-3.78-.2,0-.39.01-.59.03-4.69.45-9.54.93-14.85,1.47-1.47.14-2.77.81-3.73,1.8-.04.04-.08.08-.11.12-.04.04-.08.08-.13.12l-.11.11s-.08.08-.13.13l-.12.12s-.08.08-.11.12c-.04.04-.08.08-.13.12l-.11.11s-.08.08-.13.13l-.12.12s-.08.08-.11.12c-.04.04-.08.08-.13.12l-.11.11s-.08.08-.13.13l-.12.12s-.08.08-.11.12c-.04.04-.08.08-.13.12l-.11.11s-.08.08-.13.13l-.12.12s-.08.08-.11.12c-.04.04-.08.08-.13.12l-.11.11s-.08.08-.13.13l-.12.12s-.08.08-.11.12c-.04.04-.08.08-.13.12l-.11.11s-.08.08-.13.13l-.12.12s-.08.08-.11.12c-.04.04-.08.08-.13.12l-.11.11s-.08.08-.13.13l-.12.12s-.08.08-.11.12c-.04.04-.08.08-.13.12l-.11.11s-.08.08-.13.13l-.12.12s-.08.08-.11.12c-.04.04-.08.08-.13.12l-.11.11s-.08.08-.13.13l-.12.12s-.08.08-.11.12c-.04.04-.08.08-.13.12l-.11.11s-.08.08-.13.13l-.12.12s-.08.08-.11.12c-.04.04-.08.08-.13.12l-.11.11s-.08.08-.13.13l-.12.12s-.08.08-.11.12c-.04.04-.08.08-.13.12l-.11.11s0,0,0,0c-.63-.71-1.31-1.38-2.03-1.98-.63-.53-1.29-1.02-1.98-1.47-.65-.42-1.33-.81-2.04-1.16-3.32-1.65-7.24-2.49-11.71-2.49-1.37,0-2.81.08-4.29.23-2.35.24-4.55.65-6.62,1.22-.93.25-1.83.54-2.7.87-.99.36-1.94.76-2.85,1.21-2.65,1.29-4.98,2.93-6.99,4.92-.05.04-.09.08-.14.13l-.24.24s-.08.08-.13.13l-.24.24-.24.24s-.08.08-.13.13l-.24.24-.24.24s-.08.08-.13.13l-.24.24-.24.24s-.08.08-.13.13l-.24.24-.24.24s-.08.08-.13.13l-.24.24-.24.24s-.08.08-.13.13l-.24.24-.24.24s-.08.08-.13.13l-.24.24-.24.24s-.08.08-.13.13l-.24.24-.24.24s-.08.08-.13.13l-.13.13-.34.34s-.08.08-.13.13l-.24.24-.24.24s-.08.08-.13.13l-.24.24-.24.24s-.08.08-.13.13l-.15.15-.09.09-.24.24s-.08.08-.13.13l-.24.24-.24.24s-.08.08-.13.13l-.24.24-.24.24s-.08.08-.13.13l-.16.16-.31.31s-.08.08-.13.13l-.24.24-.24.24s-.08.08-.13.13l-.24.24-.24.24s-.08.08-.13.13l-.24.24-.24.24s-.08.08-.13.13l-.24.24-.24.24s-.08.08-.13.13l-.24.24-.24.24s-.08.08-.13.13l-.24.24-.24.24s-.08.08-.13.13l-.24.24-.24.24s-.08.08-.13.13l-.24.24-.24.24s-.08.08-.13.13l-.24.24-.24.24s-.08.08-.13.13c-.02.02-.03.03-.04.04l-2.72-12.61c-.61-2.8-3.08-4.77-5.89-4.77-.2,0-.4.01-.61.03-4.01.4-7.79.78-11.44,1.14-.75.07-1.49.14-2.23.21-.74.07-1.48.14-2.22.22-.68.07-1.36.13-2.03.19-1.46.14-2.77.8-3.75,1.8-.04.04-.08.08-.11.12-.09.08-.18.17-.27.27l-.07.07c-.09.08-.18.17-.27.26-.09.08-.18.17-.27.27l-.07.07c-.09.08-.18.17-.27.26-.09.08-.18.17-.27.27l-.07.07c-.09.08-.18.17-.27.26-.09.08-.18.17-.27.27l-.07.07c-.09.08-.18.17-.27.26-.09.08-.18.17-.27.27l-.07.07c-.09.08-.18.17-.27.26-.09.08-.18.17-.27.27l-.07.07c-.09.08-.18.17-.27.26-.09.08-.18.17-.27.27l-.07.07c-.09.08-.18.17-.27.26-.09.08-.18.17-.27.27l-.07.07s-.07.06-.1.09c-.06.05-.11.11-.17.17-.09.08-.18.17-.27.27l-.07.07c-.09.08-.18.17-.27.26-.09.08-.18.17-.27.27l-.07.07c-.09.08-.18.17-.27.26-.08.08-.16.16-.24.25-.01,0-.02.02-.02.02l-.07.07c-.09.08-.18.17-.27.26-.09.08-.18.17-.27.27l-.07.07c-.09.08-.18.17-.27.26-.09.08-.18.17-.27.27l-.07.07c-.09.08-.18.17-.27.26-.02.01-.03.03-.05.05-.07.07-.14.14-.22.22l-.07.07c-.09.08-.18.17-.27.26-.09.08-.18.17-.27.27l-.07.07c-.09.08-.18.17-.27.26-.09.08-.18.17-.27.27l-.07.07c-.09.08-.18.17-.27.26-.09.08-.18.17-.27.27l-.07.07c-.09.08-.18.17-.27.26-.09.08-.18.17-.27.27l-.07.07c-.09.08-.18.17-.27.26-.09.08-.18.17-.27.27l-.07.07c-.09.08-.18.17-.27.26-.09.08-.18.17-.27.27l-.07.07c-.09.08-.18.17-.27.26-.09.08-.18.17-.27.27l-.07.07c-.09.08-.18.17-.27.26-.09.08-.18.17-.27.27l-.07.07c-.09.08-.18.17-.27.26-.09.08-.18.17-.27.27l-.07.07c-.09.08-.18.17-.27.26-.09.08-.18.17-.27.27l-.07.07s-.08.07-.12.11c-.22-.52-.45-1.05-.71-1.56-2.7-5.49-8.48-12.01-20.74-12.36-.34-.01-.7-.02-1.06-.02-.38,0-.77,0-1.16.02-.72.02-1.45.06-2.19.12-.04,0-.07,0-.1,0-8.06.62-14.56,3.23-19.28,7.76l-6.32,6.32.06-4.31c.02-1.68-.66-3.29-1.87-4.45-1.12-1.07-2.62-1.67-4.16-1.67-.12,0-.24,0-.36.01-4.99.3-9.95.58-14.78.81-.79.04-1.58.08-2.36.11-.32.02-.64.04-.96.05-.46.02-.9.1-1.33.22-.51.14-.99.34-1.43.6-.8-.37-1.66-.57-2.56-.57-.09,0-.17,0-.27,0-6.33.27-12.61.5-18.68.66-1.63.05-3.14.75-4.22,1.89l-.1.1c-.1.09-.19.19-.28.28-.01.01-.02.02-.04.04-.07.06-.13.12-.18.18-.04.03-.07.07-.1.1-.1.09-.19.19-.28.28-.01.01-.02.02-.04.04-.07.06-.13.12-.18.18-.04.03-.07.07-.1.1-.05.05-.11.1-.16.16-.27-.48-.61-.93-1.01-1.34-1.13-1.13-2.67-1.76-4.26-1.76h-.11c-6.09.11-12.17.16-18.07.16-1.61,0-3.16.65-4.29,1.8-.06.06-.11.12-.17.18t0,0s-.03.03-.04.05c-.04.04-.08.08-.13.12l-.13.13s-.06.06-.08.09c-.05.05-.1.1-.15.15-.02.02-.05.04-.07.07-.01.02-.03.03-.04.05-.04.04-.08.08-.13.12l-.13.13s-.06.06-.08.09c-.05.05-.1.1-.15.15-.02.02-.05.04-.07.07-.01.02-.03.03-.04.05-.04.04-.08.08-.13.12l-.13.13s-.06.06-.08.09c-.05.05-.1.1-.15.15-.02.02-.05.04-.07.07-.01.02-.03.03-.04.05-.04.04-.08.08-.13.12l-.13.13s-.06.06-.08.09c-.05.05-.1.1-.15.15-.02.02-.05.04-.07.07-.01.02-.03.03-.04.05-.04.04-.08.08-.13.12l-.13.13s-.06.06-.08.09c-.05.05-.1.1-.15.15-.02.02-.05.04-.07.07-.01.02-.03.03-.04.05-.04.04-.08.08-.13.12l-.13.13s-.06.06-.08.09c-.05.05-.1.1-.15.15-.02.02-.05.04-.07.07-.01.02-.03.03-.04.05-.04.04-.08.08-.13.12l-.13.13s-.06.06-.08.09c-.05.05-.1.1-.15.15-.02.02-.05.04-.07.07-.01.02-.03.03-.04.05-.04.04-.08.08-.13.12l-.13.13s-.06.06-.08.09c-.05.05-.1.1-.15.15-.02.02-.05.04-.07.07-.01.02-.03.03-.04.05-.04.04-.08.08-.13.12l-.13.13s-.06.06-.08.09c-.05.05-.1.1-.15.15-.02.02-.05.04-.07.07-.01.02-.03.03-.04.05-.04.04-.08.08-.13.12l-.13.13s-.06.06-.08.09c-.05.05-.1.1-.15.15-.02.02-.05.04-.07.07-.01.02-.03.03-.04.05-.04.04-.08.08-.13.12l-.13.13s-.06.06-.08.09c-.05.05-.1.1-.15.15-.02.02-.05.04-.07.07-.01.02-.03.03-.04.05-.04.04-.08.08-.13.12l-.13.13s-.06.06-.08.09c-.05.05-.1.1-.15.15-.02.02-.05.04-.07.07-.01.02-.03.03-.04.05-.04.04-.08.08-.13.12l-.13.13s-.06.06-.08.09c-.05.05-.1.1-.15.15-.02.02-.05.04-.07.07-.01.02-.03.03-.04.05-.04.04-.08.08-.13.12l-.13.13s-.06.06-.08.09c-.05.05-.1.1-.15.15-.02.02-.05.04-.07.07-.01.02-.03.03-.04.05-.04.04-.08.08-.13.12l-.13.13s-.06.06-.08.09c-.05.05-.1.1-.15.15-.02.02-.05.04-.07.07-.01.02-.03.03-.04.05-.04.04-.08.08-.13.12l-.13.13s-.06.06-.08.09c-.05.05-.1.1-.15.15-.02.02-.05.04-.07.07-.01.02-.03.03-.04.05-.04.04-.08.08-.13.12l-.13.13s-.06.06-.08.09c-.05.05-.1.1-.15.15-.02.02-.05.04-.07.07-.01.02-.03.03-.04.05-.04.04-.08.08-.13.12l-.13.13s-.06.06-.08.09c-.05.05-.1.1-.15.15-.02.02-.05.04-.07.07-.01.02-.03.03-.04.05-.04.04-.08.08-.13.12l-.13.13s-.06.06-.08.09c-.05.05-.1.1-.15.15-.02.02-.05.04-.07.07-.01.02-.03.03-.04.05-.04.04-.08.08-.13.12l-.13.13s-.06.06-.08.09c-.05.05-.1.1-.15.15-.02.02-.05.04-.07.07-.01.02-.03.03-.04.05-.04.04-.08.08-.13.12l-.13.13s-.06.06-.08.09c-.05.05-.1.1-.15.15-.02.02-.05.04-.07.07-.01.02-.03.03-.04.05-.04.04-.08.08-.13.12l-.13.13s-.06.06-.08.09c-.05.05-.1.1-.15.15-.02.02-.05.04-.07.07-.01.02-.03.03-.04.05-.04.04-.08.08-.13.12l-.13.13s-.06.06-.08.09c-.05.05-.1.1-.15.15-.02.02-.05.04-.07.07-.01.02-.03.03-.04.05-.04.04-.08.08-.13.12l-.13.13s-.06.06-.08.09c-.05.05-.1.1-.15.15-.02.02-.05.04-.07.07-.01.02-.03.03-.04.05-.04.04-.08.08-.13.12l-.13.13s-.06.06-.08.09c-.05.05-.1.1-.15.15-.02.02-.05.04-.07.07-.01.02-.03.03-.04.05-.04.04-.08.08-.13.12l-.13.13s-.06.06-.08.09c-.05.05-.1.1-.15.15-.02.02-.05.04-.07.07-.01.02-.03.03-.04.05-.04.04-.08.08-.13.12l-.13.13s-.06.06-.08.09c-.05.05-.1.1-.15.15-.02.02-.05.04-.07.07-.01.02-.03.03-.04.05-.04.04-.08.08-.13.12l-.13.13s-.06.06-.08.09c-.05.05-.1.1-.15.15-.02.02-.05.04-.07.07-.01.02-.03.03-.04.05-.04.04-.08.08-.13.12l-.13.13s-.06.06-.08.09c-.05.05-.1.1-.15.15-.02.02-.05.04-.07.07-.01.02-.03.03-.04.05-.04.04-.08.08-.13.12l-.13.13s-.1.1-.14.15c-1.11,1.15-1.74,2.69-1.72,4.29l.12,8.69v67.97l-.06,4.31-.06,4.38c-.02,1.61.6,3.17,1.74,4.32,1.13,1.15,2.68,1.79,4.29,1.79,5.98,0,12.13-.05,18.29-.16,1.66-.03,3.15-.72,4.22-1.82l.12-.12s.08-.08.12-.13h0s.08-.08.11-.12c.04-.04.08-.08.12-.11.04-.04.08-.08.12-.12.04-.04.08-.08.12-.12.04-.04.08-.08.12-.13h0s.08-.08.11-.12c.04-.04.08-.08.12-.11.04-.04.08-.08.12-.12.04-.04.08-.08.12-.12.04-.04.08-.08.12-.13h0s.08-.08.11-.12c.04-.04.08-.08.12-.11.04-.04.08-.08.12-.12.04-.04.08-.08.12-.12.03-.03.05-.05.08-.08.97,2.17,3.12,3.56,5.5,3.56h.17c6.63-.19,13.51-.44,20.43-.75.57-.02,1.14-.13,1.67-.31.46.11.93.17,1.41.17.1,0,.19,0,.28,0,5.93-.28,12.08-.62,18.26-.99,1.56-.09,2.95-.77,3.96-1.82.04-.04.08-.08.12-.12l.12-.12s.08-.08.12-.12c.04-.04.08-.08.11-.11l.13-.13s.08-.08.12-.12l.12-.12s.08-.08.12-.12c.04-.04.08-.08.11-.11l.13-.13s.08-.08.12-.12l.12-.12s.08-.08.12-.12c.04-.04.08-.08.11-.11l.13-.13s.08-.08.12-.12l.12-.12s.08-.08.12-.12c.04-.04.08-.08.11-.11l.13-.13s.08-.08.12-.12l.12-.12s.08-.08.12-.12c.04-.04.08-.08.11-.11l.13-.13s.08-.08.12-.12l.12-.12s.08-.08.12-.12c.04-.04.08-.08.11-.11l.13-.13s.08-.08.12-.12l.12-.12s.08-.08.12-.12c.04-.04.08-.08.11-.11l.13-.13s.08-.08.12-.12l.12-.12s.08-.08.12-.12c.04-.04.08-.08.11-.11l.13-.13s.08-.08.12-.12l.12-.12s.08-.08.12-.12c.04-.04.08-.08.11-.11l.13-.13s.08-.08.12-.12l.12-.12s.08-.08.12-.12c.04-.04.08-.08.11-.11l.18-.18c4.17,4.86,9.99,7.37,17.21,7.37.81,0,1.65-.03,2.49-.09,5.64-.44,10.36-2.14,14.59-5.28,1.14,1.41,2.87,2.24,4.69,2.24.17,0,.34,0,.52-.02,1.72-.14,3.44-.3,5.16-.45.67-.05,1.3-.22,1.89-.48.46.11.93.17,1.4.17.18,0,.36-.01.54-.02,5.78-.52,11.65-1.07,17.97-1.68,1.47-.14,2.78-.8,3.75-1.8.04-.04.08-.08.12-.13.04-.04.08-.08.13-.12.04-.04.07-.08.11-.11.04-.04.08-.08.12-.13.04-.04.08-.08.12-.12.04-.04.08-.08.12-.12.04-.04.08-.08.13-.12.04-.04.07-.08.11-.11.04-.04.08-.08.12-.13.04-.04.08-.08.12-.12.04-.04.08-.08.12-.12.04-.04.08-.08.13-.12.04-.04.07-.08.11-.11.04-.04.08-.08.12-.13.04-.04.08-.08.12-.12.04-.04.08-.08.12-.12.04-.04.08-.08.13-.12.04-.04.07-.08.11-.11.04-.04.08-.08.12-.13.04-.04.08-.08.12-.12.04-.04.08-.08.12-.12.04-.04.08-.08.13-.12.04-.04.07-.08.11-.11.04-.04.08-.08.12-.13.04-.04.08-.08.12-.12.04-.04.08-.08.12-.12.04-.04.08-.08.13-.12.04-.04.07-.08.11-.11.04-.04.08-.08.12-.13.04-.04.08-.08.12-.12.04-.04.08-.08.12-.12.04-.04.08-.08.13-.12.04-.04.07-.08.11-.11.04-.04.08-.08.12-.13.04-.04.08-.08.12-.12.04-.04.08-.08.12-.12.04-.04.08-.08.13-.12.04-.04.07-.08.11-.11.04-.04.08-.08.12-.13.04-.04.08-.08.12-.12.04-.04.08-.08.12-.12.04-.04.08-.08.13-.12.04-.04.07-.08.11-.11.04-.04.08-.08.12-.13.04-.04.08-.08.12-.12.04-.04.08-.08.12-.12.04-.04.08-.08.13-.12.04-.04.07-.08.11-.11.04-.04.08-.08.12-.13.04-.04.08-.08.12-.12.04-.04.08-.08.12-.12.04-.04.08-.08.13-.12l.07-.07.24,1.45c.48,2.94,3.02,5.07,5.95,5.07.2,0,.4-.01.6-.03,5.78-.58,11.86-1.19,19.16-1.95,1.44-.14,2.77-.81,3.76-1.85.06-.06.13-.12.19-.19l.11-.11s.08-.08.13-.12c.06-.06.11-.12.17-.18.06-.06.13-.12.19-.19l.11-.11s.08-.08.13-.12c.06-.06.11-.12.17-.18.06-.06.13-.12.19-.19l.11-.11s.08-.08.13-.12c.06-.06.11-.12.17-.18.06-.06.13-.12.19-.19l.11-.11s.08-.08.13-.12c.06-.06.11-.12.17-.18.06-.06.13-.12.19-.19l.11-.11s.05-.05.08-.08c3.59,2.56,8.01,3.88,13.06,3.88,1.08,0,2.2-.06,3.35-.18,5.6-.58,10.29-2.38,14.49-5.59,1.14,1.35,2.83,2.14,4.61,2.14.21,0,.41,0,.62-.03,1.71-.17,3.43-.35,5.14-.52,1.46-.15,2.76-.81,3.72-1.8l.12-.12s.08-.08.11-.12c.04-.04.08-.08.13-.12.04-.04.08-.08.11-.12.04-.04.08-.08.13-.12l.12-.12s.08-.08.11-.12c.04-.04.08-.08.13-.12.04-.04.08-.08.11-.12.04-.04.08-.08.13-.12l.12-.12.02-.02c.16.19.34.38.52.55,1.12,1.03,2.58,1.59,4.08,1.59.21,0,.4-.01.6-.03,5.99-.6,11.45-1.14,16.72-1.65,1.48-.14,2.78-.81,3.75-1.8l.12-.12s.08-.08.13-.13l.48-.48s.08-.08.13-.13l.48-.48s.08-.08.13-.13l.48-.48s.08-.08.13-.13l.48-.48s.08-.08.13-.13l.48-.48s.08-.08.13-.13l.48-.48s.08-.08.13-.13l.48-.48s.08-.08.13-.13l.48-.48s.08-.08.13-.13l.45-.45c.27.68.55,1.36.82,2.04.93,2.3,3.15,3.78,5.6,3.78.18,0,.36,0,.55-.02,5.1-.46,10.12-.91,14.92-1.32,1.53-.13,2.88-.83,3.87-1.86.08-.08.16-.16.24-.24.11-.1.21-.2.3-.31.1-.09.21-.19.3-.3.11-.1.21-.2.3-.31.1-.09.21-.19.3-.3.11-.1.21-.2.3-.31.02-.01.03-.02.05-.04.27.41.58.78.94,1.13,1.12,1.05,2.59,1.62,4.12,1.62.16,0,.32,0,.48-.02,14.11-1.13,27.1-2.03,39.69-2.75,1.61-.1,3.05-.81,4.07-1.91.01-.02.03-.03.04-.05.08-.07.15-.14.23-.22.04-.04.08-.08.12-.13.07-.07.14-.14.21-.21.01-.02.03-.03.04-.05.08-.07.15-.14.23-.22.04-.04.08-.08.12-.13.07-.07.14-.14.21-.21.01-.02.03-.03.04-.05.08-.07.15-.14.23-.22.04-.04.08-.08.12-.13.07-.07.14-.14.21-.21.01-.02.03-.03.04-.05.08-.07.15-.14.23-.22.04-.04.08-.08.12-.13.07-.07.14-.14.21-.21.01-.02.03-.03.04-.05.08-.07.15-.14.23-.22.04-.04.08-.08.12-.13.07-.07.14-.14.21-.21.01-.02.03-.03.04-.05.08-.07.15-.14.23-.22.04-.04.08-.08.12-.13.07-.07.14-.14.21-.21.01-.02.03-.03.04-.05.08-.07.15-.14.23-.22.04-.04.08-.08.12-.13.07-.07.14-.14.21-.21.01-.02.03-.03.04-.05.08-.07.15-.14.23-.22.04-.04.08-.08.12-.13.07-.07.14-.14.21-.21.01-.02.03-.03.04-.05.08-.07.15-.14.23-.22.04-.04.08-.08.12-.13.07-.07.14-.14.21-.21.01-.02.03-.03.04-.05.08-.07.15-.14.23-.22.04-.04.08-.08.12-.13.07-.07.14-.14.21-.21.01-.02.03-.03.04-.05.08-.07.15-.14.23-.22.04-.04.08-.08.12-.13.07-.07.14-.14.21-.21.01-.02.03-.03.04-.05.08-.07.15-.14.23-.22.04-.04.08-.08.12-.13.07-.07.14-.14.21-.21.01-.02.03-.03.04-.05.08-.07.15-.14.23-.22.04-.04.08-.08.12-.13.07-.07.14-.14.21-.21.01-.02.03-.03.04-.05.08-.07.15-.14.23-.22.04-.04.08-.08.12-.13.07-.07.14-.14.21-.21.01-.02.03-.03.04-.05.08-.07.15-.14.23-.22.04-.04.08-.08.12-.13.07-.07.14-.14.21-.21.01-.02.03-.03.04-.05.08-.07.15-.14.23-.22.04-.04.08-.08.12-.13.07-.07.14-.14.21-.21.01-.02.03-.03.04-.05.08-.07.15-.14.23-.22.04-.04.08-.08.12-.13.07-.07.14-.14.21-.21.01-.02.03-.03.04-.05.08-.07.15-.14.23-.22.04-.04.08-.08.12-.13.07-.07.14-.14.21-.21.01-.02.03-.03.04-.05.08-.07.15-.14.23-.22.04-.04.08-.08.12-.13.07-.07.14-.14.21-.21.01-.02.03-.03.04-.05.08-.07.15-.14.23-.22.04-.04.08-.08.12-.13.07-.07.14-.14.21-.21.01-.02.03-.03.04-.05.08-.07.15-.14.23-.22.04-.04.08-.08.12-.13.07-.07.14-.14.21-.21.01-.02.03-.03.04-.05.08-.07.15-.14.23-.22.04-.04.08-.08.12-.13.07-.07.14-.14.21-.21.01-.02.03-.03.04-.05.08-.07.15-.14.23-.22.04-.04.08-.08.12-.13.07-.07.14-.14.21-.21.01-.02.03-.03.04-.05.08-.07.15-.14.23-.22.04-.04.08-.08.12-.13.07-.07.14-.14.21-.21.01-.02.03-.03.04-.05.08-.07.15-.14.23-.22.01-.02.02-.03.04-.04v9.46c0,1.63.67,3.21,1.85,4.34,1.12,1.09,2.62,1.69,4.18,1.69.08,0,.16,0,.23,0,5.61-.22,11.21-.39,16.66-.52,1.71-.04,3.23-.78,4.3-1.95.14-.13.27-.26.39-.4l.09-.09s.05-.05.08-.08c.15-.14.3-.28.43-.43l.09-.09s.05-.05.08-.08c.15-.14.3-.28.43-.43l.09-.09s.05-.05.08-.08c.15-.14.3-.28.43-.43l.09-.09s.05-.05.08-.08c.15-.14.3-.28.43-.43l.09-.09s.05-.05.08-.08c.15-.14.3-.28.43-.43l.09-.09s.05-.05.08-.08c.15-.14.3-.28.43-.43l.09-.09s.05-.05.08-.08c.15-.14.3-.28.43-.43l.09-.09s.05-.05.08-.08c.15-.14.3-.28.43-.43l.09-.09s.05-.05.08-.08c.15-.14.3-.28.43-.43l.09-.09s.05-.05.08-.08c.15-.14.3-.28.43-.43l.09-.09s.05-.05.08-.08c.15-.14.3-.28.43-.43l.09-.09s.05-.05.08-.08c.15-.14.3-.28.43-.43l.09-.09s.05-.05.08-.08c.15-.14.3-.28.43-.43l.09-.09s.05-.05.08-.08c.15-.14.3-.28.43-.43l.09-.09s.05-.05.08-.08c.15-.14.3-.28.43-.43l.09-.09s.05-.05.08-.08c.15-.14.3-.28.43-.43l.09-.09s.05-.05.08-.08c.15-.14.3-.28.43-.43l.09-.09s.05-.05.08-.08c.15-.14.3-.28.43-.43l.09-.09s.05-.05.08-.08c.15-.14.3-.28.43-.43l.09-.09s.05-.05.08-.08c.15-.14.3-.28.43-.43l.09-.09s.05-.05.08-.08c.15-.14.3-.28.43-.43l.09-.09s.05-.05.08-.08c.15-.14.3-.28.43-.43l.09-.09s.05-.05.08-.08c.15-.14.3-.28.43-.43l.09-.09s.05-.05.08-.08c.15-.14.3-.28.43-.43l.09-.09s.05-.05.08-.08c.15-.14.3-.28.43-.43l.09-.09s.05-.05.08-.08c.15-.14.3-.28.43-.43l.09-.09s.05-.05.08-.08c.15-.14.3-.28.43-.43l.09-.09s.05-.05.08-.08c.15-.14.3-.28.43-.43l.09-.09s.05-.05.08-.08c.15-.14.3-.28.43-.43,1.11-1.09,1.8-2.61,1.8-4.28v-15.86l.06-.06c.05-.05.11-.11.16-.16l.07-.07c.05-.05.11-.11.17-.16l.1-.11.1-.1c.05-.05.11-.11.16-.16l.07-.07c.05-.05.11-.11.17-.16l.1-.11.1-.1c.05-.05.11-.11.16-.16l.07-.07c.05-.05.11-.11.17-.16l.1-.11.1-.1c.05-.05.11-.11.16-.16l.07-.07c.05-.05.11-.11.17-.16l.1-.11.1-.1c.05-.05.11-.11.16-.16l.07-.07c.05-.05.11-.11.17-.16l.1-.11.1-.1c.05-.05.11-.11.16-.16l.07-.07c.05-.05.11-.11.17-.16l.1-.11.1-.1c.05-.05.11-.11.16-.16l.07-.07c.05-.05.11-.11.17-.16l.1-.11.1-.1c.05-.05.11-.11.16-.16l.07-.07c.05-.05.11-.11.17-.16l.1-.11.1-.1c.05-.05.11-.11.16-.16l.07-.07c.05-.05.11-.11.17-.16l.1-.11.1-.1c.05-.05.11-.11.16-.16l.07-.07c.05-.05.11-.11.17-.16l.1-.11.1-.1c.05-.05.11-.11.16-.16l.07-.07c.05-.05.11-.11.17-.16l.1-.11.1-.1c.05-.05.11-.11.16-.16l.07-.07c.05-.05.11-.11.17-.16l.1-.11.1-.1c.05-.05.11-.11.16-.16l.07-.07c.05-.05.11-.11.17-.16l.1-.11.1-.1c.05-.05.11-.11.16-.16l.07-.07c.05-.05.11-.11.17-.16l.1-.11.1-.1c.05-.05.11-.11.16-.16l.07-.07c.05-.05.11-.11.17-.16l.1-.11.1-.1c.05-.05.11-.11.16-.16l.07-.07c.05-.05.11-.11.17-.16l.1-.11.1-.1c.05-.05.11-.11.16-.16l.07-.07c.05-.05.11-.11.17-.16l.1-.11.1-.1c.05-.05.11-.11.16-.16l.07-.07c.05-.05.11-.11.17-.16l.1-.11.1-.1c.05-.05.11-.11.16-.16l.07-.07c.05-.05.11-.11.17-.16l.1-.11.1-.1c.05-.05.11-.11.16-.16l.07-.07c.05-.05.11-.11.17-.16l.1-.11.1-.1c.05-.05.11-.11.16-.16l.07-.07c.05-.05.11-.11.17-.16l.1-.11.1-.1c.05-.05.11-.11.16-.16l.07-.07c.05-.05.11-.11.17-.16l.1-.11.1-.1c.05-.05.11-.11.16-.16l.07-.07c.05-.05.11-.11.17-.16l.1-.11.1-.1c.05-.05.11-.11.16-.16l.07-.07c.05-.05.11-.11.17-.16l.1-.11.1-.1c.05-.05.11-.11.16-.16l.07-.07c.05-.05.11-.11.17-.16l.1-.11.1-.1c.05-.05.11-.11.16-.16l.07-.07c.05-.05.11-.11.17-.16l.1-.11.1-.1c.05-.05.11-.11.16-.16l.07-.07c.05-.05.11-.11.17-.16l.1-.11.1-.1s.09-.09.14-.13c5.72-5.67,8.75-14.98,8.75-26.94,0-10.9-2.67-19.44-7.94-25.38ZM167.94,221.07h-.21c-.28,0-.57,0-.86,0,.25,0,.49-.02.74-.02.04,0,.08,0,.13,0,.07,0,.14,0,.21,0ZM247.03,317.93s-.04,0-.05,0h.16s-.08,0-.11,0ZM447.13,197.7c.19,0,.39-.01.58-.01.08,0,.17,0,.26,0-.28,0-.56,0-.84,0Z"></path>
    <g>
      <path class="cls-11" d="M60.71,315.71c-.81,0-1.58-.32-2.15-.9-.57-.57-.88-1.35-.87-2.16l.12-8.73v-68.01s-.12-8.69-.12-8.69c-.01-.81.3-1.58.87-2.16.57-.57,1.34-.9,2.15-.9,5.93,0,12.02-.05,18.13-.16.82-.03,1.6.3,2.18.88.58.58.9,1.36.89,2.18l-.12,8.73v3.95c1.8-4.68,3.61-9.37,5.41-14.06.44-1.14,1.51-1.9,2.73-1.93,6.09-.17,12.39-.39,18.73-.67,1.03-.04,2.01.44,2.6,1.28.59.84.71,1.93.31,2.88-5.66,13.65-11.33,27.25-16.84,40.46,6.18,13.84,12.6,28.16,19.08,42.57.41.91.34,1.97-.18,2.82-.52.85-1.44,1.39-2.43,1.43-6.92.31-13.77.56-20.38.75-1.25.03-2.4-.71-2.88-1.87-2.05-5.02-4.1-10.04-6.15-15.06v5.47l.12,8.69c.02,1.66-1.3,3.03-2.96,3.06-6.14.11-12.27.16-18.23.16ZM63.76,230.19l.08,5.68v68.1s-.08,5.71-.08,5.71c3.97-.01,8.01-.05,12.07-.11l-.08-5.72v-19.42c0-1.64,1.32-2.99,2.96-3.02h.6s.04-.01.05-.01c1.22,0,2.33.74,2.79,1.88,3.52,8.65,7.05,17.29,10.57,25.9,4.5-.14,9.11-.3,13.76-.49-6.05-13.45-12.02-26.79-17.79-39.71-.34-.76-.35-1.63-.03-2.39,5.08-12.17,10.3-24.69,15.53-37.28-4.08.16-8.12.3-12.09.42-3.31,8.6-6.62,17.19-9.93,25.76-.44,1.14-1.53,1.91-2.76,1.93h-.6c-.81.03-1.59-.29-2.17-.85-.58-.57-.9-1.34-.9-2.15v-18.66l.08-5.67c-4.05.06-8.09.1-12.06.11Z"></path>
      <path class="cls-11" d="M114.41,314.38c-.78,0-1.53-.3-2.1-.85-.6-.58-.93-1.38-.92-2.21l.12-8.74v-68.01s-.12-8.68-.12-8.68c-.02-1.63,1.25-2.98,2.87-3.05,5.9-.28,12-.61,18.14-.98.84-.05,1.66.25,2.26.83.61.58.94,1.38.93,2.22l-.12,8.74v68.01s.12,8.68.12,8.68c.02,1.61-1.23,2.96-2.83,3.05-6.17.37-12.3.7-18.22.98-.05,0-.1,0-.14,0ZM117.46,228.71l.08,5.81v68.1s-.08,5.57-.08,5.57c3.96-.2,8-.42,12.07-.65l-.08-5.84v-68.1s.08-5.54.08-5.54c-4.07.24-8.1.45-12.06.65Z"></path>
      <path class="cls-11" d="M160.23,312.85c-5.51,0-10.05-1.63-13.53-4.86-7.38-6.84-8.4-19.03-8.4-31.18v-19.38c0-8.87.26-17.42,3.39-24.61,3.86-8.86,11.5-13.79,22.72-14.65,7.82-.63,13.94,1.02,18.16,4.92,6.65,6.14,7.57,16.63,7.57,27.05v.84c0,1.56-1.19,2.87-2.75,3-6.1.54-12.1,1.05-17.84,1.52-.84.06-1.67-.22-2.29-.79-.62-.57-.97-1.37-.97-2.22v-1.08c0-3.65,0-9.18-.88-9.81-.04-.03-.29-.11-.89-.06-1.05.08-1.38.28-1.72,1.54-.52,1.9-.52,5.08-.52,9.12v6.74c.38-.23.82-.37,1.29-.41,7.49-.59,15.11-1.23,23.29-1.95.84-.07,1.68.21,2.3.78s.98,1.38.98,2.22v46.65c0,1.56-1.19,2.87-2.75,3-1.72.15-3.43.3-5.15.45-1.18.11-2.32-.5-2.9-1.54l-1.26-2.28c-4.49,4.24-9.43,6.4-15.6,6.88-.77.06-1.52.09-2.25.09ZM167.64,224.07c-.88,0-1.8.04-2.76.12-19.04,1.46-20.55,15.3-20.55,33.25v19.38c0,10.27.77,21.47,6.47,26.75,2.7,2.51,6.37,3.54,11.22,3.18,5.91-.46,10.05-2.72,14.3-7.8.51-.61,1.25-1,2.05-1.07h.16c1.17-.1,2.29.5,2.86,1.53l2.28,4.11c.15-.01.29-.03.44-.04v-40.59c-5.98.52-11.69,1-17.29,1.45v9.74c1.26-.1,2.53-.2,3.79-.31.84-.07,1.67.22,2.29.79.62.57.97,1.37.97,2.22v5.02c0,5.54,0,13.92-8.88,14.62-2.43.19-4.39-.39-5.83-1.72-2.92-2.7-2.92-7.45-2.92-15.33v-27.15c0-8.62,0-16.06,7.8-16.67,2.24-.18,4.08.38,5.46,1.65,2.51,2.32,2.78,6.25,2.81,12.04,3.84-.32,7.79-.65,11.78-1-.11-8.38-1.02-16.46-5.62-20.7-2.51-2.32-6.08-3.46-10.84-3.46ZM162.27,279.94c0,4.54.04,9.46.98,10.33.09.08.45.2,1.27.14,2.76-.22,3.32-1.67,3.32-8.61v-1.75c-1.27.1-2.54.2-3.81.3-.62.05-1.24-.1-1.76-.41ZM187.12,250.99h0,0Z"></path>
      <path class="cls-11" d="M190.95,308.92c-.85,0-1.67-.36-2.25-1.01-.64-.71-.9-1.68-.7-2.62,5.98-29.04,11.96-58.11,17.94-87.19.27-1.3,1.35-2.27,2.67-2.4,5.98-.57,11.95-1.16,17.93-1.76,1.52-.15,2.92.86,3.25,2.37,6.02,27.9,12.04,55.79,18.06,83.68.18.84,0,1.71-.51,2.41-.5.69-1.28,1.14-2.13,1.23-6.38.66-12.76,1.31-19.14,1.95-1.59.15-3.02-.94-3.28-2.52l-.86-5.32c-3.06.3-6.12.6-9.18.9l-.86,6.02c-.2,1.38-1.31,2.44-2.7,2.58-6.19.59-12.23,1.16-17.96,1.67-.09,0-.18.01-.27.01ZM211.39,221.51c-5.56,27.02-11.12,54.03-16.67,81.03,3.74-.34,7.59-.7,11.52-1.08l.86-6.02c.2-1.38,1.31-2.44,2.7-2.58,4.78-.46,9.56-.93,14.34-1.41,1.58-.16,3.02.95,3.28,2.52l.86,5.32c4.32-.43,8.64-.87,12.95-1.32-5.59-25.91-11.19-51.83-16.78-77.76-4.35.43-8.7.86-13.05,1.28ZM212.6,282.73c-.82,0-1.61-.33-2.18-.93-.64-.67-.94-1.6-.8-2.51l4.31-29.96c.2-1.38,1.31-2.44,2.69-2.57l.6-.06c1.6-.15,3.04.97,3.28,2.56l4.31,29.12c.12.82-.1,1.65-.61,2.3-.51.65-1.26,1.06-2.08,1.15-3.07.3-6.14.61-9.22.9-.1,0-.19.01-.29.01ZM217.24,268.58l-1.12,7.76c.74-.07,1.49-.15,2.23-.22l-1.12-7.54Z"></path>
      <path class="cls-11" d="M265.14,302.85c-5.19,0-9.5-1.52-12.84-4.53-7.37-6.65-8.39-18.78-8.39-30.91v-19.38c0-8.86.26-17.42,3.38-24.72,3.84-8.97,11.46-14.11,22.64-15.27,7.83-.81,13.96.72,18.2,4.54,6.69,6.03,7.61,16.54,7.61,27v.84c0,1.55-1.17,2.84-2.71,3-5.94.6-11.88,1.22-17.82,1.83-.85.09-1.7-.19-2.33-.76-.63-.57-1-1.39-1-2.24v-1.08c0-3.78,0-8.96-.85-9.73,0,0-.11-.05-.43-.05-.11,0-.25,0-.42.02-1.07.11-1.44.34-1.8,1.66-.52,1.92-.52,5.11-.52,9.14v6.62c.36-.21.77-.35,1.22-.4,7.78-.81,15.55-1.61,23.33-2.4.85-.08,1.69.19,2.33.76.63.57.99,1.38.99,2.24v46.65c0,1.55-1.17,2.84-2.71,3l-5.14.53c-1.2.12-2.35-.48-2.94-1.53l-1.24-2.21c-4.47,4.31-9.4,6.57-15.55,7.21-1.04.11-2.05.16-3.03.16ZM273.96,213.87c-1.07,0-2.2.06-3.4.19-19.1,1.98-20.62,15.94-20.62,33.98v19.38c0,10.22.76,21.35,6.4,26.43,2.69,2.42,6.35,3.35,11.21,2.85,5.95-.62,10.11-2.98,14.37-8.15.5-.61,1.23-1,2.02-1.08,0,0,.06,0,.06,0,1.2-.13,2.41.47,3,1.52l2.26,4.04.46-.05v-40.58c-5.76.59-11.53,1.19-17.29,1.78v9.72l3.73-.39c.85-.09,1.7.19,2.33.76.63.57,1,1.39,1,2.24v5.02c0,5.51,0,13.84-8.81,14.76-2.45.25-4.42-.28-5.88-1.6-2.95-2.65-2.95-7.41-2.95-15.3v-27.15c0-4.48,0-8.03.73-10.72.99-3.65,3.35-5.69,6.99-6.07,2.26-.23,4.11.28,5.51,1.54,2.52,2.27,2.81,6.19,2.84,11.95,3.93-.41,7.85-.81,11.78-1.21-.1-8.41-1.01-16.49-5.61-20.63-2.39-2.15-5.72-3.21-10.13-3.21ZM267.88,269.84c0,4.55.03,9.54.95,10.37.05.05.39.17,1.22.08,2.83-.29,3.4-1.77,3.4-8.75v-1.68l-3.73.39c-.64.07-1.29-.08-1.84-.4ZM292.73,240.43h0,0Z"></path>
      <path class="cls-11" d="M303.01,297.67c-.75,0-1.48-.28-2.04-.79-.63-.58-.99-1.4-.98-2.26l.12-8.72v-68.03l-.12-8.68c-.02-1.57,1.16-2.89,2.71-3.04,4.95-.5,9.89-.99,14.84-1.46,1.33-.13,2.59.63,3.09,1.88,3.52,8.76,7.05,17.53,10.57,26.3v-17.99l-.12-8.68c-.02-1.57,1.17-2.9,2.74-3.04,5.81-.53,11.49-1.04,16.88-1.5.85-.07,1.69.22,2.31.8.62.58.97,1.4.96,2.25l-.12,8.74v68.01s.12,8.68.12,8.68c.02,1.58-1.18,2.91-2.76,3.05-4.79.41-9.81.85-14.93,1.32-1.32.12-2.57-.64-3.07-1.88-3.52-8.76-7.05-17.5-10.57-26.25v17.93l.12,8.68c.02,1.57-1.16,2.89-2.73,3.04-5.58.54-11.16,1.09-16.73,1.65-.1.01-.2.02-.3.02ZM306.07,211.86l.08,5.95v68.1s0,.03,0,.04l-.07,5.36c3.54-.35,7.09-.7,10.63-1.05l-.08-5.94v-31.98c0-1.55,1.18-2.85,2.72-3l.6-.06c1.33-.13,2.59.63,3.09,1.87,4.98,12.36,9.97,24.72,14.95,37.11,3.38-.31,6.7-.6,9.94-.88l-.08-5.91v-68.1s.07-5.45.07-5.45c-3.49.3-7.09.62-10.75.96l.08,5.93v32.1c0,1.56-1.19,2.86-2.74,3l-.59.05c-1.33.13-2.59-.64-3.08-1.88-4.98-12.41-9.96-24.81-14.94-37.19-3.27.32-6.55.64-9.82.97ZM303.13,285.91h0,0Z"></path>
      <path class="cls-11" d="M362.21,292.24c-.76,0-1.5-.29-2.06-.81-.62-.58-.97-1.39-.96-2.24l.12-8.74v-68.01s-.12-8.68-.12-8.68c-.02-1.59,1.19-2.92,2.77-3.05,14.06-1.13,26.99-2.03,39.54-2.75.83-.05,1.64.25,2.24.82.6.57.95,1.36.95,2.19v17.1c0,1.6-1.25,2.92-2.84,3.01-6,.34-12.24.74-18.57,1.18v10.82c5.42-.37,10.77-.72,15.94-1.02.82-.05,1.64.25,2.25.82.6.57.95,1.36.95,2.19v17.1c0,1.6-1.24,2.92-2.84,3.01-5.27.31-10.74.66-16.3,1.04v11.3c6.35-.44,12.59-.83,18.58-1.17.83-.04,1.64.25,2.24.82.6.57.95,1.36.95,2.19v17.1c0,1.6-1.25,2.92-2.84,3.01-12.62.72-25.62,1.62-39.76,2.76-.08,0-.16,0-.24,0ZM365.27,206.49l.08,5.9v68.1s-.07,5.47-.07,5.47c11.87-.93,22.97-1.7,33.75-2.34v-11.06c-6.01.36-12.23.76-18.54,1.21-.83.06-1.66-.23-2.27-.8-.61-.57-.96-1.37-.96-2.21v-17.34c0-1.58,1.22-2.9,2.8-3.01,5.55-.39,11.03-.75,16.33-1.08v-11.06c-5.18.32-10.52.67-15.91,1.05-.83.06-1.66-.23-2.27-.8-.61-.57-.96-1.37-.96-2.21v-16.86c0-1.58,1.22-2.9,2.8-3.01,6.32-.45,12.57-.85,18.61-1.21v-11.06c-10.66.63-21.64,1.4-33.4,2.33Z"></path>
      <path class="cls-11" d="M427.27,288.26c-.78,0-1.53-.3-2.09-.84-.59-.57-.92-1.35-.92-2.17v-24.28c0-1.62,1.28-2.95,2.9-3.01,5.67-.22,11.31-.39,16.79-.53.82,0,1.6.29,2.18.86.58.57.91,1.35.91,2.16v24.28c0,1.64-1.31,2.98-2.94,3.01-5.49.13-11.1.31-16.7.52-.04,0-.08,0-.12,0ZM430.29,263.87v18.24c3.59-.13,7.17-.24,10.71-.33v-18.25c-3.53.09-7.11.21-10.71.34ZM428.47,257.24c-.78,0-1.53-.3-2.09-.84-.59-.57-.92-1.35-.92-2.17v-21.29c0-1.62,1.28-2.95,2.9-3.01,4.81-.18,9.65-.33,14.39-.45,1.57-.04,2.91,1.14,3.08,2.7.34,3.31,1.43,3.3,1.84,3.28,2.47-.05,2.67-5.21,2.67-10.96,0-6.46-.95-8.36-1.52-8.92-.11-.1-.3-.31-1.02-.29-1.7.04-1.95,3.37-1.95,5.35v1.91c0,1.64-1.3,2.97-2.94,3.01-5.06.13-10.27.29-15.51.49-.82.04-1.62-.27-2.21-.84-.59-.57-.92-1.35-.92-2.17v-1.31c0-16.63,8.53-26.74,22.8-27.05,6.75-.15,12.61,2.02,16.95,6.26,5.48,5.36,8.26,13.6,8.26,24.5,0,8.8-1.76,16.19-5.09,21.35-3.31,5.14-8.12,8.02-13.55,8.1-3.92.08-6.73-.98-8.99-2.58v1.49c0,1.63-1.3,2.97-2.94,3.01-4.25.11-8.66.25-13.12.42-.04,0-.08,0-.11,0ZM431.49,235.84v15.25c2.4-.08,4.78-.16,7.12-.23v-5.2c0-1.64,1.31-2.98,2.94-3.02h.59c.93-.04,1.83.37,2.42,1.1,3.03,3.74,4.84,5.11,8.7,5.11.09,0,.18,0,.27,0,7.72-.12,12.7-9.31,12.7-23.42,0-9.09-2.23-16.07-6.44-20.19-3.98-3.9-9.06-4.62-12.6-4.54-10.4.23-16.34,7.03-16.87,19.21,3.19-.11,6.37-.22,9.5-.3.17-3.72,1.39-10.22,7.83-10.36,2.16-.04,3.96.63,5.37,2.01,2.34,2.29,3.33,6.25,3.33,13.22,0,3.26,0,6.96-.8,10.04-1.55,5.95-5.54,6.91-7.78,6.95-3.62.08-6.27-2.09-7.42-5.92-2.94.08-5.91.17-8.88.28Z"></path>
    </g>
    <g>
      <path class="cls-5" d="M108.79,226.1c-5.78,13.92-11.56,27.81-17.34,41.65,6.54,14.64,13.08,29.23,19.62,43.77-6.78.3-13.56.56-20.33.75-3.79-9.26-7.58-18.54-11.36-27.84-.2,0-.4,0-.6.01v19.38c.04,2.91.08,5.82.12,8.73-6.06.11-12.12.16-18.18.16.04-2.91.08-5.82.12-8.73v-68.05c-.04-2.91-.08-5.82-.12-8.73,6.06,0,12.12-.06,18.18-.16-.04,2.91-.08,5.82-.12,8.73v18.66c.2,0,.4,0,.6-.01,3.55-9.19,7.1-18.41,10.65-27.63,6.26-.17,12.52-.4,18.78-.67Z"></path>
      <path class="cls-5" d="M132.59,224.86c-.04,2.91-.08,5.83-.12,8.74v68.05c.04,2.91.08,5.82.12,8.72-6.06.37-12.12.69-18.18.98.04-2.91.08-5.82.12-8.74v-68.05c-.04-2.91-.08-5.82-.12-8.73,6.06-.29,12.12-.62,18.18-.98Z"></path>
      <path class="cls-5" d="M187.12,250.99c-5.94.53-11.88,1.03-17.82,1.52v-1.08c0-8.61,0-13.27-5.02-12.87-5.02.39-5.02,5.05-5.02,13.66v27.15c0,9.81,0,14.48,5.5,14.05,6.1-.48,6.1-5.99,6.1-11.61v-5.02c-2.35.19-4.7.38-7.06.57v-15.79c7.77-.61,15.55-1.26,23.32-1.95v46.65c-1.71.15-3.43.3-5.14.45-1.08-1.94-2.15-3.88-3.23-5.82-.04,0-.08,0-.12.01-4.31,5.15-9.09,8.3-16.39,8.87-19.73,1.49-20.93-18.5-20.93-32.94,0-6.46,0-12.92,0-19.38,0-15.82.6-34.52,23.32-36.26,20.45-1.65,22.49,13.4,22.49,28.97v.84Z"></path>
      <path class="cls-5" d="M244.89,300.63c-6.38.66-12.76,1.31-19.14,1.94-.44-2.71-.88-5.41-1.32-8.12-4.78.48-9.57.95-14.35,1.41-.4,2.79-.8,5.58-1.2,8.37-5.98.57-11.96,1.13-17.94,1.67,5.98-29.05,11.96-58.11,17.94-87.19,5.98-.57,11.96-1.16,17.94-1.76,6.02,27.9,12.04,55.79,18.06,83.68ZM212.6,279.72c3.07-.3,6.14-.6,9.21-.9-1.44-9.71-2.87-19.41-4.31-29.12-.2.02-.4.04-.6.06-1.44,9.99-2.87,19.98-4.31,29.96Z"></path>
      <path class="cls-5" d="M292.73,240.43c-5.94.61-11.88,1.22-17.82,1.83v-1.08c0-8.61,0-13.28-5.02-12.76-5.02.52-5.02,5.19-5.02,13.8v27.15c0,9.81,0,14.47,5.5,13.9,6.1-.63,6.1-6.13,6.1-11.76,0-1.67,0-3.35,0-5.02-2.35.24-4.7.49-7.06.73,0-5.26,0-10.53,0-15.79,7.77-.81,15.55-1.61,23.32-2.4,0,15.55,0,31.1,0,46.65-1.71.17-3.43.35-5.14.53-1.08-1.92-2.15-3.85-3.23-5.77-.04,0-.08,0-.12.01-4.31,5.23-9.09,8.47-16.39,9.23-19.73,2.05-20.93-17.81-20.93-32.28v-19.38c0-15.79.6-34.62,23.32-36.98,20.45-2.12,22.48,13,22.49,28.54,0,.28,0,.56,0,.84Z"></path>
      <path class="cls-5" d="M303.13,285.91v-68.05c-.04-2.91-.08-5.81-.12-8.72,4.94-.5,9.89-.98,14.83-1.46,5.26,13.09,10.53,26.18,15.79,39.29.2-.02.4-.04.6-.05v-32.05c-.04-2.91-.08-5.81-.12-8.72,5.62-.52,11.24-1.02,16.86-1.5-.04,2.91-.08,5.83-.12,8.74v68.05c.04,2.91.08,5.81.12,8.72-4.98.43-9.97.87-14.95,1.32-5.26-13.08-10.53-26.13-15.79-39.18-.2.02-.4.04-.6.06v31.93c.04,2.91.08,5.81.12,8.72-5.58.54-11.16,1.09-16.74,1.65.04-2.91.08-5.83.12-8.74Z"></path>
      <path class="cls-5" d="M380.27,253.41v17.34c7.26-.51,14.51-.98,21.77-1.4v17.1c-13.28.76-26.55,1.7-39.83,2.76.04-2.91.08-5.83.12-8.74v-68.05c-.04-2.91-.08-5.81-.12-8.72,13.16-1.06,26.31-1.99,39.47-2.74,0,5.7,0,11.4,0,17.1-7.14.41-14.27.87-21.41,1.38v16.86c6.38-.45,12.76-.87,19.14-1.24v17.1c-6.38.38-12.76.79-19.14,1.24Z"></path>
      <path class="cls-5" d="M428.47,254.22c0-7.1,0-14.19,0-21.29,4.78-.18,9.57-.33,14.35-.45.36,3.46,1.79,6.05,4.9,5.99,5.62-.11,5.62-7.75,5.62-13.98,0-8.85-1.68-12.3-5.62-12.22-2.75.06-4.9,2.15-4.9,8.37v1.91c-5.18.13-10.37.3-15.55.49,0-.44,0-.88,0-1.32,0-15.66,7.89-23.78,19.85-24.04,11.84-.26,22.13,7.41,22.13,27.75,0,17.46-7.06,26.3-15.67,26.43-5.5.09-8.13-2.24-11.36-6.22-.2,0-.4.01-.6.02v8.13c-4.39.11-8.77.26-13.16.42ZM427.27,260.97c5.58-.21,11.16-.39,16.74-.52v24.28c-5.58.13-11.16.31-16.74.52,0-8.09,0-16.19,0-24.28Z"></path>
    </g>
  </g></svg>