<?xml version="1.0" encoding="UTF-8"?>
<svg id="Calque_1" data-name="Calque 1" xmlns="http://www.w3.org/2000/svg" width="734.32" height="337.15" viewBox="0 0 734.32 337.15">
  <defs>
    <style>
      .cls-1 {
        fill: none;
        stroke: #fff;
        stroke-miterlimit: 10;
        stroke-width: 7px;
      }

      .cls-2 {
        fill: #fff;
      }
    </style>
  </defs>
  <g>
    <path class="cls-2" d="M511.1,98.91l-2.88,7c-4.07.36-8.2.74-12.37,1.12-2.46.22-4.64,1.33-6.25,2.98l-.2.2c-.07.07-.13.14-.2.2-.07.07-.14.14-.2.21-.07.06-.14.13-.2.19-.07.07-.13.14-.2.2l-.2.2c-.07.07-.13.14-.2.2-.07.07-.14.14-.2.21-.07.06-.14.13-.2.19-.07.07-.13.14-.2.2l-.2.2c-.07.07-.13.14-.2.2-.07.07-.14.14-.2.21-.07.06-.14.13-.2.19-.07.07-.13.14-.2.2l-.2.2c-.07.07-.13.14-.2.2-.07.07-.14.14-.2.21-.07.06-.14.13-.2.19-.07.07-.13.14-.2.2l-.2.2c-.07.07-.13.14-.2.2-.07.07-.14.14-.2.21-.07.06-.14.13-.2.19-.07.07-.13.14-.2.2l-.2.2c-.07.07-.13.14-.2.2-.07.07-.14.14-.2.21-.07.06-.14.13-.2.19-.07.07-.13.14-.2.2l-.2.2c-.07.07-.13.14-.2.2-.07.07-.14.14-.2.21-.07.06-.14.13-.2.19-.07.07-.13.14-.2.2l-.2.2c-.07.07-.13.14-.2.2-.07.07-.14.14-.2.21-.07.06-.14.13-.2.19-.07.07-.13.14-.2.2l-.2.2c-.07.07-.13.14-.2.2-.07.07-.14.14-.2.21-.07.06-.14.13-.2.19-.07.07-.13.14-.2.2-.05.06-.11.11-.16.17l-1.36-3.38c-1.53-3.81-5.23-6.26-9.27-6.27-.33,0-.65.02-.97.05-7.77.75-15.82,1.55-24.62,2.43-2.43.24-4.59,1.34-6.18,2.98-.06.07-.13.13-.19.2-.07.06-.14.13-.21.2l-.19.19c-.07.07-.14.14-.21.21l-.2.2c-.06.07-.13.13-.19.2-.07.06-.14.13-.21.2l-.19.19c-.07.07-.14.14-.21.21l-.2.2c-.06.07-.13.13-.19.2-.07.06-.14.13-.21.2l-.19.19c-.07.07-.14.14-.21.21l-.2.2c-.06.07-.13.13-.19.2-.07.06-.14.13-.21.2l-.19.19c-.07.07-.14.14-.21.21l-.2.2c-.06.07-.13.13-.19.2-.07.06-.14.13-.21.2l-.19.19c-.07.07-.14.14-.21.21l-.2.2c-.06.07-.13.13-.19.2-.07.06-.14.13-.21.2l-.19.19c-.07.07-.14.14-.21.21l-.2.2c-.06.07-.13.13-.19.2-.07.06-.14.13-.21.2l-.19.19c-.07.07-.14.14-.21.21l-.2.2c-.06.07-.13.13-.19.2-.07.06-.14.13-.21.2l-.19.19c-.07.07-.14.14-.21.21l-.2.2c-.06.07-.13.13-.19.2-.07.06-.14.13-.21.2l-.19.19c-.07.07-.14.14-.21.21l-.2.2c-.06.07-.13.13-.19.2-.07.06-.14.13-.21.2l-.19.19c-.07.07-.14.14-.21.21l-.2.2c-.06.07-.13.13-.19.2-.07.06-.14.13-.21.2l-.19.19c-.07.07-.14.14-.21.21l-.2.2c-.06.07-.13.13-.19.2-.07.06-.14.13-.21.2l-.19.19s-.01.01-.01.01c-1.05-1.18-2.17-2.28-3.37-3.29l10.07-72.74,69.79,28.74c3.71,1.53,6.6,4.41,8.15,8.11,1.54,3.71,1.55,7.79.02,11.5Z"/>
    <g>
      <path class="cls-2" d="M220.94,141.74c.12,0,.23.01.34.01h-.34c-.47-.01-.95,0-1.43.01.41-.01.82-.03,1.22-.03.07,0,.14,0,.21.01Z"/>
      <path class="cls-2" d="M215.17,131.96c-.06,0-.11.01-.17.01-13.37,1.02-24.14,5.36-31.96,12.87l-10.47,10.47.1-7.14c.04-2.78-1.09-5.45-3.1-7.37-1.86-1.78-4.34-2.77-6.9-2.77-.2,0-.4.01-.6.02-8.27.5-16.49.96-24.51,1.35l-5.08-10.21c-1.79-3.59-2.08-7.67-.8-11.47,1.27-3.81,3.95-6.89,7.55-8.68l64.15-31.95,11.79,54.87Z"/>
    </g>
    <g>
      <path class="cls-2" d="M220.94,141.74c.12,0,.23.01.34.01h-.34Z"/>
      <path class="cls-2" d="M306.05,23.05l-14.48,104.52c-1.13.11-2.25.22-3.36.32-2.42.24-4.6,1.33-6.22,2.99-.06.07-.13.13-.19.2-.15.14-.3.29-.44.45l-.12.12c-.15.14-.3.28-.44.43-.15.14-.3.29-.44.45l-.12.12c-.15.14-.3.28-.44.43-.15.14-.3.29-.44.45l-.12.12c-.15.14-.3.28-.44.43-.15.14-.3.29-.44.45l-.12.12c-.15.14-.3.28-.44.43-.15.14-.3.29-.44.45l-.12.12c-.15.14-.3.28-.44.43-.15.14-.3.29-.44.45l-.12.12c-.15.14-.3.28-.44.43-.15.14-.3.29-.44.45l-.12.12c-.15.14-.3.28-.44.43-.15.14-.3.29-.44.45l-.12.12c-.05.05-.11.1-.16.15-.1.09-.19.18-.28.28-.15.14-.3.29-.44.45l-.12.12c-.15.14-.3.28-.44.43-.15.14-.3.29-.44.45l-.12.12c-.15.14-.3.28-.44.43-.14.13-.27.26-.4.41-.02.01-.03.03-.04.04l-.12.12c-.15.14-.3.28-.44.43-.15.14-.3.29-.44.45l-.12.12c-.15.14-.3.28-.44.43-.15.14-.3.29-.44.45l-.12.12c-.15.14-.3.28-.44.43-.03.02-.05.05-.08.08-.12.11-.24.24-.36.37l-.12.12c-.15.14-.3.28-.44.43-.15.14-.3.29-.44.45l-.12.12c-.15.14-.3.28-.44.43-.15.14-.3.29-.44.45l-.12.12c-.15.14-.3.28-.44.43-.15.14-.3.29-.44.45l-.12.12c-.15.14-.3.28-.44.43-.15.14-.3.29-.44.45l-.12.12c-.15.14-.3.28-.44.43-.15.14-.3.29-.44.45l-.12.12c-.15.14-.3.28-.44.43-.15.14-.3.29-.44.45l-.12.12c-.15.14-.3.28-.44.43-.15.14-.3.29-.44.45l-.12.12c-.15.14-.3.28-.44.43-.15.14-.3.29-.44.45l-.12.12c-.15.14-.3.28-.44.43-.15.14-.3.29-.44.45l-.12.12c-.15.14-.3.28-.44.43-.15.14-.3.29-.44.45l-.12.12c-.06.06-.13.12-.2.18-.36-.87-.75-1.74-1.17-2.58-4.47-9.1-14.06-19.91-34.39-20.49l-12.44-57.98-.78-3.63-.78-3.63-1.6-7.44c-1.74-8.1,3.43-16.1,11.53-17.84l83.34-17.89c1.05-.23,2.12-.34,3.18-.34.37,0,.75.01,1.12.04Z"/>
      <path class="cls-2" d="M220.94,141.74c-.07-.01-.14-.01-.21-.01-.4,0-.81.02-1.22.03.48-.01.96-.02,1.43-.01h.34c-.11,0-.22-.01-.34-.01Z"/>
    </g>
    <path class="cls-2" d="M428.89,28.78l-1.6,11.59-.51,3.68-.51,3.67-9.87,71.22c-5.5-2.73-12.01-4.12-19.42-4.12-2.27,0-4.66.13-7.12.38-3.89.4-7.55,1.08-10.98,2.03-1.54.42-3.03.9-4.47,1.44-1.64.59-3.21,1.26-4.72,2.01-4.39,2.14-8.26,4.86-11.59,8.15-.08.07-.15.14-.23.22l-24.67,24.67-4.51-20.9c-1.01-4.65-5.11-7.9-9.77-7.9-.33,0-.67.02-1.01.05-6.64.67-12.92,1.29-18.97,1.89l14.05-101.48.53-3.84.52-3.75.67-4.82c.55-3.98,2.61-7.5,5.81-9.92,2.64-2,5.78-3.05,9.03-3.05.7,0,1.4.05,2.1.15l84.42,11.69c8.21,1.14,13.96,8.74,12.82,16.94Z"/>
  </g>
  <g>
    <path class="cls-1" d="M730.82,149.01c0,19.82-5.02,35.26-14.51,44.66-.08.07-.15.15-.23.22l-.16.16-.17.18c-.09.09-.19.18-.28.27l-.12.12c-.09.09-.18.19-.27.27l-.16.16-.17.18c-.09.09-.19.18-.28.27l-.12.12c-.09.09-.18.19-.27.27l-.16.16-.17.18c-.09.09-.19.18-.28.27l-.12.12c-.09.09-.18.19-.27.27l-.16.16-.17.18c-.09.09-.19.18-.28.27l-.12.12c-.09.09-.18.19-.27.27l-.16.16-.17.18c-.09.09-.19.18-.28.27l-.12.12c-.09.09-.18.19-.27.27l-.16.16-.17.18c-.09.09-.19.18-.28.27l-.12.12c-.09.09-.18.19-.27.27l-.16.16-.17.18c-.09.09-.19.18-.28.27l-.12.12c-.09.09-.18.19-.27.27l-.16.16-.17.18c-.09.09-.19.18-.28.27l-.12.12c-.09.09-.18.19-.27.27l-.16.16-.17.18c-.09.09-.19.18-.28.27l-.12.12c-.09.09-.18.19-.27.27l-.16.16-.17.18c-.09.09-.19.18-.28.27l-.12.12c-.09.09-.18.19-.27.27l-.16.16-.17.18c-.09.09-.19.18-.28.27l-.12.12c-.09.09-.18.19-.27.27l-.16.16-.17.18c-.09.09-.19.18-.28.27l-.12.12c-.09.09-.18.19-.27.27l-.16.16-.17.18c-.09.09-.19.18-.28.27l-.12.12c-.09.09-.18.19-.27.27l-.16.16-.17.18c-.09.09-.19.18-.28.27l-.12.12c-.09.09-.18.19-.27.27l-.16.16-.17.18c-.09.09-.19.18-.28.27l-.12.12c-.09.09-.18.19-.27.27l-.16.16-.17.18c-.09.09-.19.18-.28.27l-.12.12c-.09.09-.18.19-.27.27l-.16.16-.17.18c-.09.09-.19.18-.28.27l-.12.12c-.09.09-.18.19-.27.27l-.16.16-.17.18c-.09.09-.19.18-.28.27l-.12.12c-.09.09-.18.19-.27.27l-.16.16-.17.18c-.09.09-.19.18-.28.27l-.12.12c-.09.09-.18.19-.27.27l-.16.16-.17.18c-.09.09-.19.18-.28.27l-.12.12c-.09.09-.18.19-.27.27l-.16.16-.17.18c-.09.09-.19.18-.28.27l-.12.12c-.09.09-.18.19-.27.27l-.16.16-.17.18c-.09.09-.19.18-.28.27l-.12.12c-.09.09-.18.19-.27.27l-.16.16-.17.18c-.09.09-.19.18-.28.27l-.12.12c-.09.09-.18.19-.27.27l-.16.16-.17.18c-.09.09-.19.18-.28.27l-.12.12c-.09.09-.18.19-.27.27l-.16.16-.17.18c-.09.09-.19.18-.28.27l-.12.12c-.09.09-.18.19-.27.27l-.16.16-.17.18c-.09.09-.19.18-.28.27l-.12.12c-.09.09-.18.19-.27.27l-.16.16-.17.18c-.09.09-.19.18-.28.27l-.12.12c-.09.09-.18.19-.27.27l-.1.1v26.29c0,2.77-1.14,5.29-2.98,7.1-.22.25-.46.49-.71.72-.05.04-.09.09-.14.13l-.15.15c-.22.25-.46.49-.71.72-.05.04-.09.09-.14.13l-.15.15c-.22.25-.46.49-.71.72-.05.04-.09.09-.14.13l-.15.15c-.22.25-.46.49-.71.72-.05.04-.09.09-.14.13l-.15.15c-.22.25-.46.49-.71.72-.05.04-.09.09-.14.13l-.15.15c-.22.25-.46.49-.71.72-.05.04-.09.09-.14.13l-.15.15c-.22.25-.46.49-.71.72-.05.04-.09.09-.14.13l-.15.15c-.22.25-.46.49-.71.72-.05.04-.09.09-.14.13l-.15.15c-.22.25-.46.49-.71.72-.05.04-.09.09-.14.13l-.15.15c-.22.25-.46.49-.71.72-.05.04-.09.09-.14.13l-.15.15c-.22.25-.46.49-.71.72-.05.04-.09.09-.14.13l-.15.15c-.22.25-.46.49-.71.72-.05.04-.09.09-.14.13l-.15.15c-.22.25-.46.49-.71.72-.05.04-.09.09-.14.13l-.15.15c-.22.25-.46.49-.71.72-.05.04-.09.09-.14.13l-.15.15c-.22.25-.46.49-.71.72-.05.04-.09.09-.14.13l-.15.15c-.22.25-.46.49-.71.72-.05.04-.09.09-.14.13l-.15.15c-.22.25-.46.49-.71.72-.05.04-.09.09-.14.13l-.15.15c-.22.25-.46.49-.71.72-.05.04-.09.09-.14.13l-.15.15c-.22.25-.46.49-.71.72-.05.04-.09.09-.14.13l-.15.15c-.22.25-.46.49-.71.72-.05.04-.09.09-.14.13l-.15.15c-.22.25-.46.49-.71.72-.05.04-.09.09-.14.13l-.15.15c-.22.25-.46.49-.71.72-.05.04-.09.09-.14.13l-.15.15c-.22.25-.46.49-.71.72-.05.04-.09.09-.14.13l-.15.15c-.22.25-.46.49-.71.72-.05.04-.09.09-.14.13l-.15.15c-.22.25-.46.49-.71.72-.05.04-.09.09-.14.13l-.15.15c-.22.25-.46.49-.71.72-.05.04-.09.09-.14.13l-.15.15c-.22.25-.46.49-.71.72-.05.04-.09.09-.14.13l-.15.15c-.22.25-.46.49-.71.72-.05.04-.09.09-.14.13l-.15.15c-.22.25-.46.49-.71.72-.05.04-.09.09-.14.13l-.15.15c-.2.23-.42.45-.65.66-1.78,1.93-4.3,3.17-7.13,3.23-9.03.22-18.32.51-27.62.87-.12,0-.25.01-.38.01-2.58,0-5.07-1-6.93-2.8-1.96-1.88-3.07-4.49-3.07-7.2v-15.69s-.04.04-.06.07c-.13.12-.25.25-.38.36-.02.03-.05.05-.07.08-.12.12-.23.24-.35.35-.07.07-.13.14-.2.21-.13.12-.25.25-.38.36-.02.03-.05.05-.07.08-.12.12-.23.24-.35.35-.07.07-.13.14-.2.21-.13.12-.25.25-.38.36-.02.03-.05.05-.07.08-.12.12-.23.24-.35.35-.07.07-.13.14-.2.21-.13.12-.25.25-.38.36-.02.03-.05.05-.07.08-.12.12-.23.24-.35.35-.07.07-.13.14-.2.21-.13.12-.25.25-.38.36-.02.03-.05.05-.07.08-.12.12-.23.24-.35.35-.07.07-.13.14-.2.21-.13.12-.25.25-.38.36-.02.03-.05.05-.07.08-.12.12-.23.24-.35.35-.07.07-.13.14-.2.21-.13.12-.25.25-.38.36-.02.03-.05.05-.07.08-.12.12-.23.24-.35.35-.07.07-.13.14-.2.21-.13.12-.25.25-.38.36-.02.03-.05.05-.07.08-.12.12-.23.24-.35.35-.07.07-.13.14-.2.21-.13.12-.25.25-.38.36-.02.03-.05.05-.07.08-.12.12-.23.24-.35.35-.07.07-.13.14-.2.21-.13.12-.25.25-.38.36-.02.03-.05.05-.07.08-.12.12-.23.24-.35.35-.07.07-.13.14-.2.21-.13.12-.25.25-.38.36-.02.03-.05.05-.07.08-.12.12-.23.24-.35.35-.07.07-.13.14-.2.21-.13.12-.25.25-.38.36-.02.03-.05.05-.07.08-.12.12-.23.24-.35.35-.07.07-.13.14-.2.21-.13.12-.25.25-.38.36-.02.03-.05.05-.07.08-.12.12-.23.24-.35.35-.07.07-.13.14-.2.21-.13.12-.25.25-.38.36-.02.03-.05.05-.07.08-.12.12-.23.24-.35.35-.07.07-.13.14-.2.21-.13.12-.25.25-.38.36-.02.03-.05.05-.07.08-.12.12-.23.24-.35.35-.07.07-.13.14-.2.21-.13.12-.25.25-.38.36-.02.03-.05.05-.07.08-.12.12-.23.24-.35.35-.07.07-.13.14-.2.21-.13.12-.25.25-.38.36-.02.03-.05.05-.07.08-.12.12-.23.24-.35.35-.07.07-.13.14-.2.21-.13.12-.25.25-.38.36-.02.03-.05.05-.07.08-.12.12-.23.24-.35.35-.07.07-.13.14-.2.21-.13.12-.25.25-.38.36-.02.03-.05.05-.07.08-.12.12-.23.24-.35.35-.07.07-.13.14-.2.21-.13.12-.25.25-.38.36-.02.03-.05.05-.07.08-.12.12-.23.24-.35.35-.07.07-.13.14-.2.21-.13.12-.25.25-.38.36-.02.03-.05.05-.07.08-.12.12-.23.24-.35.35-.07.07-.13.14-.2.21-.13.12-.25.25-.38.36-.02.03-.05.05-.07.08-.12.12-.23.24-.35.35-.07.07-.13.14-.2.21-.13.12-.25.25-.38.36-.02.03-.05.05-.07.08-.12.12-.23.24-.35.35-.07.07-.13.14-.2.21-.13.12-.25.25-.38.36-.02.03-.05.05-.07.08-.12.12-.23.24-.35.35-.07.07-.13.14-.2.21-.13.12-.25.25-.38.36-.02.03-.05.05-.07.08-1.7,1.82-4.08,3.01-6.75,3.17-20.88,1.19-42.4,2.68-65.8,4.56-.27.02-.53.03-.8.03-2.53,0-4.97-.95-6.83-2.69-.6-.57-1.12-1.19-1.56-1.87-.03.03-.05.05-.08.07-.16.18-.32.35-.5.51-.16.17-.33.34-.5.49-.16.18-.32.35-.5.51-.16.17-.33.34-.5.49-.16.18-.32.35-.5.51-.13.13-.26.27-.39.4-1.64,1.72-3.88,2.88-6.42,3.09-7.95.68-16.27,1.42-24.73,2.19-.31.03-.61.04-.91.04-4.05,0-7.74-2.45-9.28-6.27-.45-1.12-.91-2.25-1.36-3.38l-8.96,8.96-.2.2c-1.6,1.64-3.76,2.74-6.21,2.98-8.73.84-17.79,1.73-27.72,2.73-.33.03-.66.05-1,.05-2.49,0-4.9-.93-6.76-2.63-.31-.29-.6-.6-.87-.92l-.24.24c-.07.07-.14.14-.21.2-.06.07-.13.14-.19.2-.07.07-.14.14-.21.2-.06.07-.13.14-.19.2l-.2.2c-.07.07-.14.14-.21.2-.06.07-.13.14-.19.2-.07.07-.14.14-.21.2-.06.07-.13.14-.19.2l-.2.2c-1.59,1.63-3.74,2.73-6.16,2.98-2.84.29-5.68.58-8.52.87-.34.04-.68.05-1.02.05-2.96,0-5.76-1.31-7.65-3.55-6.97,5.32-14.75,8.3-24.03,9.26-1.9.2-3.76.3-5.55.3-8.37,0-15.69-2.2-21.65-6.44-.05.04-.09.09-.14.13l-.19.19c-.1.11-.21.21-.31.31-.1.1-.19.2-.29.3-.07.06-.14.13-.21.2l-.19.19c-.1.11-.21.21-.31.31-.1.1-.19.2-.29.3-.07.06-.14.13-.21.2l-.19.19c-.1.11-.21.21-.31.31-.1.1-.19.2-.29.3-.07.06-.14.13-.21.2l-.19.19c-.1.11-.21.21-.31.31-.1.1-.19.2-.29.3-.07.06-.14.13-.21.2l-.19.19c-.1.11-.21.21-.31.31-1.64,1.73-3.85,2.83-6.24,3.07-12.09,1.25-22.18,2.27-31.76,3.23-.33.03-.67.05-1,.05-4.85,0-9.07-3.52-9.86-8.4l-.39-2.41-.12.12c-.07.07-.14.14-.21.2-.07.07-.13.14-.2.2-.07.07-.13.14-.2.2-.07.07-.13.14-.2.21-.07.06-.13.12-.19.19-.07.07-.14.14-.21.2-.07.07-.13.14-.2.2-.07.07-.13.14-.2.2-.07.07-.13.14-.2.21-.07.06-.13.12-.19.19-.07.07-.14.14-.21.2-.07.07-.13.14-.2.2-.07.07-.13.14-.2.2-.07.07-.13.14-.2.21-.07.06-.13.12-.19.19-.07.07-.14.14-.21.2-.07.07-.13.14-.2.2-.07.07-.13.14-.2.2-.07.07-.13.14-.2.21-.07.06-.13.12-.19.19-.07.07-.14.14-.21.2-.07.07-.13.14-.2.2-.07.07-.13.14-.2.2-.07.07-.13.14-.2.21-.07.06-.13.12-.19.19-.07.07-.14.14-.21.2-.07.07-.13.14-.2.2-.07.07-.13.14-.2.2-.07.07-.13.14-.2.21-.07.06-.13.12-.19.19-.07.07-.14.14-.21.2-.07.07-.13.14-.2.2-.07.07-.13.14-.2.2-.07.07-.13.14-.2.21-.07.06-.13.12-.19.19-.07.07-.14.14-.21.2-.07.07-.13.14-.2.2-.07.07-.13.14-.2.2-.07.07-.13.14-.2.21-.07.06-.13.12-.19.19-.07.07-.14.14-.21.2-.07.07-.13.14-.2.2-.07.07-.13.14-.2.2-.07.07-.13.14-.2.21-.07.06-.13.12-.19.19-.07.07-.14.14-.21.2-.07.07-.13.14-.2.2-.07.07-.13.14-.2.2-.07.07-.13.14-.2.21-.07.06-.13.12-.19.19-.07.07-.14.14-.21.2-.07.07-.13.14-.2.21-1.61,1.65-3.79,2.74-6.22,2.98-10.48,1-20.22,1.91-29.8,2.78-.3.02-.6.04-.9.04-.78,0-1.56-.1-2.32-.28-.97.43-2.02.71-3.13.8-2.85.26-5.7.51-8.55.75-.29.03-.58.04-.86.04-3.03,0-5.89-1.38-7.78-3.71-7.02,5.22-14.84,8.03-24.19,8.76-1.39.1-2.78.15-4.12.15-11.97,0-21.63-4.17-28.54-12.22l-.3.3c-.06.06-.12.13-.19.19-.07.07-.13.14-.2.2l-.2.2c-.07.07-.13.14-.2.2l-.21.21c-.06.06-.12.13-.19.19-.07.07-.13.14-.2.2l-.2.2c-.07.07-.13.14-.2.2l-.21.21c-.06.06-.12.13-.19.19-.07.07-.13.14-.2.2l-.2.2c-.07.07-.13.14-.2.2l-.21.21c-.06.06-.12.13-.19.19-.07.07-.13.14-.2.2l-.2.2c-.07.07-.13.14-.2.2l-.21.21c-.06.06-.12.13-.19.19-.07.07-.13.14-.2.2l-.2.2c-.07.07-.13.14-.2.2l-.21.21c-.06.06-.12.13-.19.19-.07.07-.13.14-.2.2l-.2.2c-.07.07-.13.14-.2.2l-.21.21c-.06.06-.12.13-.19.19-.07.07-.13.14-.2.2l-.2.2c-.07.07-.13.14-.2.2l-.21.21c-.06.06-.12.13-.19.19-.07.07-.13.14-.2.2l-.2.2c-.07.07-.13.14-.2.2l-.21.21c-.06.06-.12.13-.19.19-.07.07-.13.14-.2.2l-.2.2c-.07.07-.13.14-.2.2l-.21.21c-.06.06-.12.13-.19.19-.07.07-.13.14-.2.2l-.2.2c-.07.07-.13.14-.2.2-1.68,1.73-3.99,2.86-6.57,3.01-10.25.62-20.44,1.17-30.27,1.64-.16,0-.31.01-.47.01-.79,0-1.57-.1-2.33-.28-.88.3-1.82.48-2.77.52-11.48.52-22.88.94-33.87,1.25h-.29c-3.94,0-7.51-2.32-9.12-5.91-.05.05-.09.09-.14.14-.07.06-.13.13-.2.2-.07.06-.13.13-.2.2-.07.06-.13.13-.2.19-.06.07-.13.14-.19.2h-.01c-.06.07-.13.14-.2.21-.07.06-.13.13-.2.2-.07.06-.13.13-.2.2-.07.06-.13.13-.2.19-.06.07-.13.14-.19.2h-.01c-.06.07-.13.14-.2.21-.07.06-.13.13-.2.2-.07.06-.13.13-.2.2-.07.06-.13.13-.2.19-.06.07-.13.14-.19.2h-.01c-.06.07-.13.14-.2.21l-.2.2c-1.77,1.82-4.24,2.97-6.99,3.02-10.21.18-20.41.27-30.32.27-2.67,0-5.24-1.07-7.12-2.97-1.88-1.91-2.91-4.49-2.88-7.16l.1-7.26.1-7.15v-112.69l-.2-14.4c-.03-2.65,1.01-5.21,2.85-7.11.08-.08.16-.17.24-.25l.21-.21c.07-.07.14-.14.21-.2.02-.03.05-.05.07-.08.04-.04.08-.08.12-.11.08-.09.16-.17.25-.25.04-.05.09-.1.14-.15l.21-.21c.07-.07.14-.14.21-.2.02-.03.05-.05.07-.08.04-.04.08-.08.12-.11.08-.09.16-.17.25-.25.04-.05.09-.1.14-.15l.21-.21c.07-.07.14-.14.21-.2.02-.03.05-.05.07-.08.04-.04.08-.08.12-.11.08-.09.16-.17.25-.25.04-.05.09-.1.14-.15l.21-.21c.07-.07.14-.14.21-.2.02-.03.05-.05.07-.08.04-.04.08-.08.12-.11.08-.09.16-.17.25-.25.04-.05.09-.1.14-.15l.21-.21c.07-.07.14-.14.21-.2.02-.03.05-.05.07-.08.04-.04.08-.08.12-.11.08-.09.16-.17.25-.25.04-.05.09-.1.14-.15l.21-.21c.07-.07.14-.14.21-.2.02-.03.05-.05.07-.08.04-.04.08-.08.12-.11.08-.09.16-.17.25-.25.04-.05.09-.1.14-.15l.21-.21c.07-.07.14-.14.21-.2.02-.03.05-.05.07-.08.04-.04.08-.08.12-.11.08-.09.16-.17.25-.25.04-.05.09-.1.14-.15l.21-.21c.07-.07.14-.14.21-.2.02-.03.05-.05.07-.08.04-.04.08-.08.12-.11.08-.09.16-.17.25-.25.04-.05.09-.1.14-.15l.21-.21c.07-.07.14-.14.21-.2.02-.03.05-.05.07-.08.04-.04.08-.08.12-.11.08-.09.16-.17.25-.25.04-.05.09-.1.14-.15l.21-.21c.07-.07.14-.14.21-.2.02-.03.05-.05.07-.08.04-.04.08-.08.12-.11.08-.09.16-.17.25-.25.04-.05.09-.1.14-.15l.21-.21c.07-.07.14-.14.21-.2.02-.03.05-.05.07-.08.04-.04.08-.08.12-.11.08-.09.16-.17.25-.25.04-.05.09-.1.14-.15l.21-.21c.07-.07.14-.14.21-.2.02-.03.05-.05.07-.08.04-.04.08-.08.12-.11.08-.09.16-.17.25-.25.04-.05.09-.1.14-.15l.21-.21c.07-.07.14-.14.21-.2.02-.03.05-.05.07-.08.04-.04.08-.08.12-.11.08-.09.16-.17.25-.25.04-.05.09-.1.14-.15l.21-.21c.07-.07.14-.14.21-.2.02-.03.05-.05.07-.08.04-.04.08-.08.12-.11.08-.09.16-.17.25-.25.04-.05.09-.1.14-.15l.21-.21c.07-.07.14-.14.21-.2.02-.03.05-.05.07-.08.04-.04.08-.08.12-.11.08-.09.16-.17.25-.25.04-.05.09-.1.14-.15l.21-.21c.07-.07.14-.14.21-.2.02-.03.05-.05.07-.08.04-.04.08-.08.12-.11.08-.09.16-.17.25-.25.04-.05.09-.1.14-.15l.21-.21c.07-.07.14-.14.21-.2.02-.03.05-.05.07-.08.04-.04.08-.08.12-.11.08-.09.16-.17.25-.25.04-.05.09-.1.14-.15l.21-.21c.07-.07.14-.14.21-.2.02-.03.05-.05.07-.08.04-.04.08-.08.12-.11.08-.09.16-.17.25-.25.04-.05.09-.1.14-.15l.21-.21c.07-.07.14-.14.21-.2.02-.03.05-.05.07-.08.04-.04.08-.08.12-.11.08-.09.16-.17.25-.25.04-.05.09-.1.14-.15l.21-.21c.07-.07.14-.14.21-.2.02-.03.05-.05.07-.08.04-.04.08-.08.12-.11.08-.09.16-.17.25-.25.04-.05.09-.1.14-.15l.21-.21c.07-.07.14-.14.21-.2.02-.03.05-.05.07-.08.04-.04.08-.08.12-.11.08-.09.16-.17.25-.25.04-.05.09-.1.14-.15l.21-.21c.07-.07.14-.14.21-.2.02-.03.05-.05.07-.08.04-.04.08-.08.12-.11.08-.09.16-.17.25-.25.04-.05.09-.1.14-.15l.21-.21c.07-.07.14-.14.21-.2.02-.03.05-.05.07-.08.04-.04.08-.08.12-.11.08-.09.16-.17.25-.25.04-.05.09-.1.14-.15l.21-.21c.07-.07.14-.14.21-.2.02-.03.05-.05.07-.08.04-.04.08-.08.12-.11.08-.09.16-.17.25-.25.04-.05.09-.1.14-.15l.21-.21c.07-.07.14-.14.21-.2.02-.03.05-.05.07-.08.04-.04.08-.08.12-.11.08-.09.16-.17.25-.25.04-.05.09-.1.14-.15l.21-.21c.07-.07.14-.14.21-.2.02-.03.05-.05.07-.08.04-.04.08-.08.12-.11.08-.09.16-.17.25-.25.04-.05.09-.1.14-.15l.21-.21c.07-.07.14-.14.21-.2.02-.03.05-.05.07-.08.04-.04.08-.08.12-.11.08-.09.16-.17.25-.25.04-.05.09-.1.14-.15l.21-.21c.07-.07.14-.14.21-.2.02-.03.05-.05.07-.08.04-.04.08-.08.12-.11.08-.09.16-.17.25-.25.04-.05.09-.1.14-.15l.21-.21c.07-.07.14-.14.21-.2.02-.03.05-.05.07-.08.04-.04.08-.08.12-.11.08-.09.16-.17.25-.25.04-.05.09-.1.14-.15l.21-.21c.07-.07.14-.14.21-.2.02-.03.05-.05.07-.08t.01-.01c.1-.1.19-.2.29-.3,1.88-1.91,4.45-2.98,7.12-2.98,9.78,0,19.86-.09,29.96-.27h.18c2.64,0,5.18,1.04,7.06,2.91.67.67,1.23,1.42,1.68,2.22.09-.09.18-.17.27-.26.05-.05.11-.11.17-.16.09-.1.19-.2.3-.3.02-.03.04-.05.06-.07.15-.16.31-.32.47-.47.05-.05.11-.11.17-.16.09-.1.19-.2.3-.3.02-.03.04-.05.06-.07.15-.16.31-.32.47-.47l.16-.16c1.79-1.89,4.29-3.05,7-3.13,10.06-.27,20.48-.65,30.97-1.1.15,0,.29-.01.44-.01,1.49,0,2.93.34,4.25.95.73-.43,1.53-.77,2.37-1,.71-.2,1.45-.32,2.21-.36.53-.02,1.06-.05,1.59-.08,1.3-.06,2.61-.12,3.92-.19,8.02-.39,16.24-.85,24.51-1.35.2-.01.4-.02.6-.02,2.56,0,5.04.99,6.9,2.77,2.01,1.92,3.14,4.59,3.1,7.37l-.1,7.14,10.47-10.47c7.82-7.51,18.59-11.85,31.96-12.87.06,0,.11,0,.17,0,1.23-.1,2.44-.17,3.63-.2.65-.02,1.3-.03,1.93-.03.59,0,1.18,0,1.75.03,20.33.58,29.92,11.39,34.39,20.49.42.84.81,1.71,1.17,2.58.07-.06.14-.12.2-.18l.12-.12c.14-.16.29-.31.44-.45.14-.15.29-.29.44-.43l.12-.12c.14-.16.29-.31.44-.45.14-.15.29-.29.44-.43l.12-.12c.14-.16.29-.31.44-.45.14-.15.29-.29.44-.43l.12-.12c.14-.16.29-.31.44-.45.14-.15.29-.29.44-.43l.12-.12c.14-.16.29-.31.44-.45.14-.15.29-.29.44-.43l.12-.12c.14-.16.29-.31.44-.45.14-.15.29-.29.44-.43l.12-.12c.14-.16.29-.31.44-.45.14-.15.29-.29.44-.43l.12-.12c.14-.16.29-.31.44-.45.14-.15.29-.29.44-.43l.12-.12c.14-.16.29-.31.44-.45.14-.15.29-.29.44-.43l.12-.12c.14-.16.29-.31.44-.45.14-.15.29-.29.44-.43l.12-.12c.12-.13.24-.26.36-.37.03-.03.05-.06.08-.08.14-.15.29-.29.44-.43l.12-.12c.14-.16.29-.31.44-.45.14-.15.29-.29.44-.43l.12-.12c.14-.16.29-.31.44-.45.14-.15.29-.29.44-.43l.12-.12s.02-.03.04-.04c.13-.15.26-.28.4-.41.14-.15.29-.29.44-.43l.12-.12c.14-.16.29-.31.44-.45.14-.15.29-.29.44-.43l.12-.12c.14-.16.29-.31.44-.45.09-.1.18-.19.28-.28.05-.05.11-.1.16-.15l.12-.12c.14-.16.29-.31.44-.45.14-.15.29-.29.44-.43l.12-.12c.14-.16.29-.31.44-.45.14-.15.29-.29.44-.43l.12-.12c.14-.16.29-.31.44-.45.14-.15.29-.29.44-.43l.12-.12c.14-.16.29-.31.44-.45.14-.15.29-.29.44-.43l.12-.12c.14-.16.29-.31.44-.45.14-.15.29-.29.44-.43l.12-.12c.14-.16.29-.31.44-.45.14-.15.29-.29.44-.43l.12-.12c.14-.16.29-.31.44-.45.14-.15.29-.29.44-.43l.12-.12c.14-.16.29-.31.44-.45.06-.07.13-.13.19-.2,1.62-1.66,3.8-2.75,6.22-2.99,1.11-.1,2.23-.21,3.36-.32,1.22-.12,2.45-.24,3.68-.36,1.22-.11,2.45-.23,3.69-.35,6.05-.6,12.33-1.22,18.97-1.89.34-.03.68-.05,1.01-.05,4.66,0,8.76,3.25,9.77,7.9l4.51,20.9s.04-.04.07-.07l.21-.21.39-.39.4-.4.21-.21.39-.39.4-.4.21-.21.39-.39.4-.4.21-.21.39-.39.4-.4.21-.21.39-.39.4-.4.21-.21.39-.39.4-.4.21-.21.39-.39.4-.4.21-.21.39-.39.4-.4.21-.21.39-.39.4-.4.21-.21.52-.52.27-.27.21-.21.39-.39.4-.4.21-.21.39-.39.4-.4.21-.21.39-.39.15-.15.46-.46.39-.39.4-.4.21-.21.39-.39.4-.4.21-.21.57-.57.22-.22.21-.21.39-.39.4-.4.21-.21.39-.39.4-.4.21-.21.39-.39.4-.4.21-.21.39-.39.4-.4.21-.21.39-.39.4-.4.21-.21.39-.39.4-.4.21-.21.39-.39.4-.4.21-.21.39-.39.4-.4.21-.21.39-.39c.08-.08.15-.15.23-.22,3.33-3.29,7.2-6.01,11.59-8.15,1.51-.75,3.08-1.42,4.72-2.01,1.44-.54,2.93-1.02,4.47-1.44,3.43-.95,7.09-1.63,10.98-2.03,2.46-.25,4.85-.38,7.12-.38,7.41,0,13.92,1.39,19.42,4.12,1.17.58,2.3,1.22,3.38,1.92,1.15.75,2.25,1.56,3.29,2.44,1.2,1.01,2.32,2.11,3.37,3.29,0,0,.01,0,.01-.01l.19-.19c.07-.07.14-.14.21-.2.06-.07.13-.13.19-.2l.6-.6c.07-.07.14-.14.21-.2.06-.07.13-.13.19-.2l.6-.6c.07-.07.14-.14.21-.2.06-.07.13-.13.19-.2l.6-.6c.07-.07.14-.14.21-.2.06-.07.13-.13.19-.2l.6-.6c.07-.07.14-.14.21-.2.06-.07.13-.13.19-.2l.6-.6c.07-.07.14-.14.21-.2.06-.07.13-.13.19-.2l.6-.6c.07-.07.14-.14.21-.2.06-.07.13-.13.19-.2l.6-.6c.07-.07.14-.14.21-.2.06-.07.13-.13.19-.2l.6-.6c.07-.07.14-.14.21-.2.06-.07.13-.13.19-.2l.6-.6c.07-.07.14-.14.21-.2.06-.07.13-.13.19-.2l.6-.6c.07-.07.14-.14.21-.2.06-.07.13-.13.19-.2l.6-.6c.07-.07.14-.14.21-.2.06-.07.13-.13.19-.2,1.59-1.64,3.75-2.74,6.18-2.98,8.8-.88,16.85-1.68,24.62-2.43.32-.03.64-.05.97-.05,4.04.01,7.74,2.46,9.27,6.27l1.36,3.38c.05-.06.11-.11.16-.17.07-.06.13-.13.2-.2.06-.06.13-.13.2-.19.06-.07.13-.14.2-.21.07-.06.13-.13.2-.2l.2-.2c.07-.06.13-.13.2-.2.06-.06.13-.13.2-.19.06-.07.13-.14.2-.21.07-.06.13-.13.2-.2l.2-.2c.07-.06.13-.13.2-.2.06-.06.13-.13.2-.19.06-.07.13-.14.2-.21.07-.06.13-.13.2-.2l.2-.2c.07-.06.13-.13.2-.2.06-.06.13-.13.2-.19.06-.07.13-.14.2-.21.07-.06.13-.13.2-.2l.2-.2c.07-.06.13-.13.2-.2.06-.06.13-.13.2-.19.06-.07.13-.14.2-.21.07-.06.13-.13.2-.2l.2-.2c.07-.06.13-.13.2-.2.06-.06.13-.13.2-.19.06-.07.13-.14.2-.21.07-.06.13-.13.2-.2l.2-.2c.07-.06.13-.13.2-.2.06-.06.13-.13.2-.19.06-.07.13-.14.2-.21.07-.06.13-.13.2-.2l.2-.2c.07-.06.13-.13.2-.2.06-.06.13-.13.2-.19.06-.07.13-.14.2-.21.07-.06.13-.13.2-.2l.2-.2c.07-.06.13-.13.2-.2.06-.06.13-.13.2-.19.06-.07.13-.14.2-.21.07-.06.13-.13.2-.2l.2-.2c1.61-1.65,3.79-2.76,6.25-2.98,4.17-.38,8.3-.76,12.37-1.12,1.35-.12,2.7-.24,4.03-.36,1.36-.12,2.7-.24,4.04-.36,2.56-.22,5.1-.44,7.59-.65.28-.03.56-.04.85-.04,2.52,0,4.95.95,6.81,2.68.61.57,1.13,1.2,1.58,1.88.02-.02.04-.05.07-.07.06-.07.13-.14.2-.2.07-.07.13-.14.2-.21.07-.06.13-.13.2-.19.07-.07.14-.14.2-.21.07-.06.13-.13.2-.19.06-.07.13-.14.2-.2.07-.07.13-.14.2-.21.07-.06.13-.13.2-.19.07-.07.14-.14.2-.21.07-.06.13-.13.2-.19.06-.07.13-.14.2-.2.07-.07.13-.14.2-.21.07-.06.13-.13.2-.19.07-.07.14-.14.2-.21.07-.06.13-.13.2-.19,1.63-1.68,3.86-2.8,6.37-3,23.35-1.88,44.83-3.37,65.66-4.56.19-.01.38-.02.57-.02,2.55,0,5.01.97,6.87,2.73,2,1.89,3.13,4.52,3.13,7.27v28.22h.01v.02c0,1.42,1.71,2.16,2.74,1.19l1.4-1.32h.02c.44-.52.91-1.02,1.39-1.51l.25-.25c.06-.07.13-.13.2-.2.06-.07.13-.13.2-.2.06-.07.13-.13.2-.2.07-.07.13-.13.2-.21.06-.06.13-.12.2-.19.06-.07.13-.13.2-.2.06-.07.13-.13.2-.2.06-.07.13-.13.2-.2.07-.07.13-.13.2-.21.06-.06.13-.12.2-.19.06-.07.13-.13.2-.2.06-.07.13-.13.2-.2.06-.07.13-.13.2-.2.07-.07.13-.13.2-.21.06-.06.13-.12.2-.19.06-.07.13-.13.2-.2.06-.07.13-.13.2-.2.06-.07.13-.13.2-.2.07-.07.13-.13.2-.21.06-.06.13-.12.2-.19.06-.07.13-.13.2-.2.06-.07.13-.13.2-.2.06-.07.13-.13.2-.2.07-.07.13-.13.2-.21.06-.06.13-.12.2-.19.06-.07.13-.13.2-.2.06-.07.13-.13.2-.2.06-.07.13-.13.2-.2.07-.07.13-.13.2-.21.06-.06.13-.12.2-.19.06-.07.13-.13.2-.2.06-.07.13-.13.2-.2.06-.07.13-.13.2-.2.07-.07.13-.13.2-.21.06-.06.13-.12.2-.19.06-.07.13-.13.2-.2.06-.07.13-.13.2-.2.06-.07.13-.13.2-.2.07-.07.13-.13.2-.21.06-.06.13-.12.2-.19.06-.07.13-.13.2-.2.06-.07.13-.13.2-.2.06-.07.13-.13.2-.2.07-.07.13-.13.2-.21.06-.06.13-.12.2-.19.06-.07.13-.13.2-.2.06-.07.13-.13.2-.2.06-.07.13-.13.2-.2.07-.07.13-.13.2-.21.06-.06.13-.12.2-.19.06-.07.13-.13.2-.2.06-.07.13-.13.2-.2.06-.07.13-.13.2-.2.07-.07.13-.13.2-.21.06-.06.13-.12.2-.19.06-.07.13-.13.2-.2.06-.07.13-.13.2-.2.06-.07.13-.13.2-.2.07-.07.13-.13.2-.21.06-.06.13-.12.2-.19.06-.07.13-.13.2-.2.06-.07.13-.13.2-.2.06-.07.13-.13.2-.2.07-.07.13-.13.2-.21.06-.06.13-.12.2-.19.06-.07.13-.13.2-.2.06-.07.13-.13.2-.2.06-.07.13-.13.2-.2.07-.07.13-.13.2-.21.06-.06.13-.12.2-.19.06-.07.13-.13.2-.2.06-.07.13-.13.2-.2.06-.07.13-.13.2-.2.07-.07.13-.13.2-.21.06-.06.13-.12.2-.19.06-.07.13-.13.2-.2.06-.07.13-.13.2-.2.06-.07.13-.13.2-.2.07-.07.13-.13.2-.21.06-.06.13-.12.2-.19.06-.07.13-.13.2-.2.06-.07.13-.13.2-.2.06-.07.13-.13.2-.2.07-.07.13-.13.2-.21.06-.06.13-.12.2-.19.06-.07.13-.13.2-.2.06-.07.13-.13.2-.2.06-.07.13-.13.2-.2.07-.07.13-.13.2-.21.06-.06.13-.12.2-.19.06-.07.13-.13.2-.2.06-.07.13-.13.2-.2.06-.07.13-.13.2-.2.07-.07.13-.13.2-.21.06-.06.13-.12.2-.19.06-.07.13-.13.2-.2.06-.07.13-.13.2-.2.06-.07.13-.13.2-.2.07-.07.13-.13.2-.21.06-.06.13-.12.2-.19.06-.07.13-.13.2-.2.06-.07.13-.13.2-.2.06-.07.13-.13.2-.2.07-.07.13-.13.2-.21.06-.06.13-.12.2-.19.06-.07.13-.13.2-.2.06-.07.13-.13.2-.2.06-.07.13-.13.2-.2.07-.07.13-.13.2-.21.06-.06.13-.12.2-.19.06-.07.13-.13.2-.2.06-.07.13-.13.2-.2.06-.07.13-.13.2-.2.07-.07.13-.13.2-.21.06-.06.13-.12.2-.19.06-.07.13-.13.2-.2.06-.07.13-.13.2-.2.06-.07.13-.13.2-.2.07-.07.13-.13.2-.21.06-.06.13-.12.2-.19.06-.07.13-.13.2-.2.06-.07.13-.13.2-.2.06-.07.13-.13.2-.2.07-.07.13-.13.2-.21.06-.06.13-.12.2-.19.06-.07.13-.13.2-.2.06-.07.13-.13.2-.2.06-.07.13-.13.2-.2.07-.07.13-.13.2-.21.06-.06.13-.12.2-.19.06-.07.13-.13.2-.2.06-.07.13-.13.2-.2.06-.07.13-.13.2-.2.07-.07.13-.13.2-.21.06-.06.13-.12.2-.19.06-.07.13-.13.2-.2.06-.07.13-.13.2-.2.06-.07.13-.13.2-.2.07-.07.13-.13.2-.21.06-.06.13-.12.2-.19.06-.07.13-.13.2-.2.06-.07.13-.13.2-.2.06-.07.13-.13.2-.2.07-.07.13-.13.2-.21.06-.06.13-.12.2-.19.06-.07.13-.13.2-.2.06-.07.13-.13.2-.2l.19-.19c7.45-7.7,17.73-11.9,29.73-12.16.39,0,.79-.02,1.18-.02,13.21,0,24.46,4.82,32.55,13.94,8.74,9.85,13.17,24.01,13.17,42.08Z"/>
    <g>
      <path class="cls-2" d="M123.22,150.08c-9.58,23.08-19.17,46.1-28.75,69.05,10.84,24.27,21.68,48.46,32.52,72.56-11.24.5-22.47.92-33.71,1.24-6.28-15.35-12.56-30.74-18.84-46.16-.33,0-.66.01-.99.02v32.12c.07,4.82.13,9.65.2,14.47-10.05.18-20.09.27-30.14.27.07-4.82.13-9.65.2-14.47v-112.83c-.07-4.82-.13-9.65-.2-14.47,10.05,0,20.09-.09,30.14-.27-.07,4.83-.13,9.65-.2,14.48v30.93c.33,0,.66-.01.99-.02,5.88-15.24,11.77-30.51,17.65-45.81,10.38-.29,20.75-.66,31.13-1.11Z"/>
      <path class="cls-2" d="M162.67,148.04c-.07,4.83-.13,9.66-.2,14.49v112.83c.07,4.82.13,9.64.2,14.46-10.05.61-20.09,1.15-30.14,1.63.07-4.83.13-9.66.2-14.48v-112.83c-.07-4.82-.13-9.64-.2-14.47,10.05-.48,20.09-1.02,30.14-1.63Z"/>
      <path class="cls-2" d="M253.09,191.36c-9.85.87-19.7,1.71-29.54,2.51v-1.79c0-14.28,0-22-8.33-21.34-8.33.65-8.33,8.38-8.33,22.65v45.01c0,16.26,0,24,9.12,23.29,10.11-.8,10.11-9.94,10.11-19.25v-8.33c-3.9.32-7.8.63-11.7.94v-26.17c12.89-1.01,25.78-2.1,38.67-3.24v77.33c-2.84.25-5.68.5-8.53.75-1.78-3.22-3.57-6.43-5.35-9.65-.07,0-.13.01-.2.02-7.14,8.54-15.07,13.77-27.17,14.71-32.72,2.47-34.7-30.66-34.7-54.61,0-10.71,0-21.41,0-32.12,0-26.23.99-57.23,38.67-60.11,33.91-2.74,37.28,22.21,37.28,48.03v1.39Z"/>
      <path class="cls-2" d="M348.86,273.66c-10.58,1.09-21.15,2.17-31.73,3.22-.73-4.49-1.45-8.98-2.18-13.46-7.93.79-15.86,1.57-23.79,2.33-.66,4.62-1.32,9.25-1.98,13.87-9.91.95-19.83,1.88-29.74,2.77,9.91-48.15,19.83-96.34,29.74-144.55,9.91-.95,19.83-1.93,29.74-2.92,9.98,46.26,19.96,92.5,29.94,138.73ZM295.32,238.98c5.09-.49,10.18-.99,15.27-1.5-2.38-16.09-4.76-32.18-7.14-48.27-.33.03-.66.07-.99.1-2.38,16.56-4.76,33.12-7.14,49.67Z"/>
      <path class="cls-2" d="M428.17,173.85c-9.85,1-19.7,2.02-29.54,3.04v-1.79c0-14.28,0-22.01-8.33-21.15-8.33.86-8.33,8.6-8.33,22.87v45.01c0,16.26,0,23.99,9.12,23.05,10.11-1.05,10.11-10.17,10.11-19.49,0-2.78,0-5.55,0-8.33-3.9.4-7.8.81-11.7,1.21,0-8.72,0-17.45,0-26.17,12.89-1.34,25.78-2.67,38.67-3.99,0,25.78,0,51.55,0,77.33-2.84.29-5.68.58-8.53.87-1.78-3.19-3.57-6.38-5.35-9.56-.07,0-.13.01-.2.02-7.14,8.67-15.07,14.05-27.17,15.3-32.72,3.4-34.7-29.52-34.7-53.51v-32.12c0-26.18.99-57.4,38.67-61.31,33.91-3.51,37.28,21.54,37.28,47.32,0,.46,0,.93,0,1.39Z"/>
      <path class="cls-2" d="M445.42,249.24v-112.83c-.07-4.82-.13-9.64-.2-14.45,8.2-.82,16.39-1.63,24.59-2.43,8.72,21.69,17.45,43.41,26.17,65.14.33-.03.66-.06.99-.09v-53.14c-.07-4.82-.13-9.64-.2-14.46,9.32-.86,18.64-1.69,27.96-2.48-.07,4.83-.13,9.66-.2,14.49v112.83c.07,4.82.13,9.64.2,14.46-8.26.71-16.52,1.44-24.79,2.19-8.72-21.68-17.45-43.33-26.17-64.96-.33.03-.66.06-.99.1v52.94c.07,4.82.13,9.64.2,14.46-9.25.89-18.51,1.8-27.76,2.73.07-4.83.13-9.66.2-14.49Z"/>
      <path class="cls-2" d="M573.31,195.36v28.75c12.03-.85,24.06-1.63,36.09-2.31v28.35c-22.01,1.26-44.02,2.81-66.03,4.58.07-4.83.13-9.66.2-14.49v-112.83c-.07-4.82-.13-9.64-.2-14.46,21.81-1.75,43.62-3.3,65.43-4.55,0,9.45,0,18.9,0,28.35-11.83.68-23.66,1.44-35.49,2.28v27.96c10.58-.75,21.15-1.44,31.73-2.06v28.36c-10.58.62-21.15,1.31-31.73,2.06Z"/>
      <path class="cls-2" d="M653.21,196.72c0-11.76,0-23.53,0-35.29,7.93-.3,15.86-.55,23.79-.75.6,5.74,2.97,10.03,8.13,9.93,9.32-.18,9.32-12.86,9.32-23.17,0-14.67-2.78-20.39-9.32-20.25-4.56.09-8.13,3.56-8.13,13.87v3.17c-8.59.22-17.19.49-25.78.82,0-.73,0-1.45,0-2.18,0-25.96,13.09-39.42,32.92-39.85,19.63-.43,36.68,12.29,36.68,46,0,28.95-11.7,43.6-25.98,43.82-9.12.15-13.48-3.71-18.84-10.32-.33,0-.66.02-.99.03v13.48c-7.27.19-14.54.42-21.81.69ZM651.23,207.9c9.25-.35,18.51-.65,27.76-.87v40.25c-9.25.22-18.51.51-27.76.87,0-13.42,0-26.83,0-40.25Z"/>
    </g>
  </g>
  <g>
    <path class="cls-2" d="M123.22,150.09c-9.58,23.08-19.17,46.1-28.75,69.05,10.84,24.27,21.68,48.46,32.52,72.56-11.24.5-22.47.92-33.71,1.24-6.28-15.35-12.56-30.74-18.84-46.16-.33,0-.66.01-.99.02v32.12c.07,4.82.13,9.65.2,14.47-10.05.18-20.09.27-30.14.27.07-4.82.13-9.65.2-14.47v-112.83c-.07-4.82-.13-9.65-.2-14.47,10.05,0,20.09-.09,30.14-.27-.07,4.83-.13,9.65-.2,14.48v30.93c.33,0,.66-.01.99-.02,5.88-15.24,11.77-30.51,17.65-45.81,10.38-.29,20.75-.66,31.13-1.11Z"/>
    <path class="cls-2" d="M162.67,148.04c-.07,4.83-.13,9.66-.2,14.49v112.83c.07,4.82.13,9.64.2,14.46-10.05.61-20.09,1.15-30.14,1.63.07-4.83.13-9.66.2-14.48v-112.83c-.07-4.82-.13-9.64-.2-14.47,10.05-.48,20.09-1.02,30.14-1.63Z"/>
    <path class="cls-2" d="M253.09,191.36c-9.85.87-19.7,1.71-29.54,2.51v-1.79c0-14.28,0-22-8.33-21.34-8.33.65-8.33,8.38-8.33,22.65v45.01c0,16.26,0,24,9.12,23.29,10.11-.8,10.11-9.94,10.11-19.25v-8.33c-3.9.32-7.8.63-11.7.94v-26.17c12.89-1.01,25.78-2.1,38.67-3.24v77.33c-2.84.25-5.68.5-8.53.75-1.78-3.22-3.57-6.43-5.35-9.65-.07,0-.13.01-.2.02-7.14,8.54-15.07,13.77-27.17,14.71-32.72,2.47-34.7-30.66-34.7-54.61,0-10.71,0-21.41,0-32.12,0-26.23.99-57.23,38.67-60.11,33.91-2.74,37.28,22.21,37.28,48.03v1.39Z"/>
    <path class="cls-2" d="M348.86,273.66c-10.58,1.09-21.15,2.17-31.73,3.22-.73-4.49-1.45-8.98-2.18-13.46-7.93.79-15.86,1.57-23.79,2.33-.66,4.62-1.32,9.25-1.98,13.87-9.91.95-19.83,1.88-29.74,2.77,9.91-48.15,19.83-96.34,29.74-144.55,9.91-.95,19.83-1.93,29.74-2.92,9.98,46.26,19.96,92.5,29.94,138.73ZM295.32,238.98c5.09-.49,10.18-.99,15.27-1.5-2.38-16.09-4.76-32.18-7.14-48.27-.33.03-.66.07-.99.1-2.38,16.56-4.76,33.12-7.14,49.67Z"/>
    <path class="cls-2" d="M428.17,173.86c-9.85,1-19.7,2.02-29.54,3.04v-1.79c0-14.28,0-22.01-8.33-21.15-8.33.86-8.33,8.6-8.33,22.87v45.01c0,16.26,0,23.99,9.12,23.05,10.11-1.05,10.11-10.17,10.11-19.49,0-2.78,0-5.55,0-8.33-3.9.4-7.8.81-11.7,1.21,0-8.72,0-17.45,0-26.17,12.89-1.34,25.78-2.67,38.67-3.99,0,25.78,0,51.55,0,77.33-2.84.29-5.68.58-8.53.87-1.78-3.19-3.57-6.38-5.35-9.56-.07,0-.13.01-.2.02-7.14,8.67-15.07,14.05-27.17,15.3-32.72,3.4-34.7-29.52-34.7-53.51v-32.12c0-26.18.99-57.4,38.67-61.31,33.91-3.51,37.28,21.54,37.28,47.32,0,.46,0,.93,0,1.39Z"/>
    <path class="cls-2" d="M445.42,249.25v-112.83c-.07-4.82-.13-9.64-.2-14.45,8.2-.82,16.39-1.63,24.59-2.43,8.72,21.69,17.45,43.41,26.17,65.14.33-.03.66-.06.99-.09v-53.14c-.07-4.82-.13-9.64-.2-14.46,9.32-.86,18.64-1.69,27.96-2.48-.07,4.83-.13,9.66-.2,14.49v112.83c.07,4.82.13,9.64.2,14.46-8.26.71-16.52,1.44-24.79,2.19-8.72-21.68-17.45-43.33-26.17-64.96-.33.03-.66.06-.99.1v52.94c.07,4.82.13,9.64.2,14.46-9.25.89-18.51,1.8-27.76,2.73.07-4.83.13-9.66.2-14.49Z"/>
    <path class="cls-2" d="M573.31,195.36v28.75c12.03-.85,24.06-1.63,36.09-2.31v28.35c-22.01,1.26-44.02,2.81-66.03,4.58.07-4.83.13-9.66.2-14.49v-112.83c-.07-4.82-.13-9.64-.2-14.46,21.81-1.75,43.62-3.3,65.43-4.55,0,9.45,0,18.9,0,28.35-11.83.68-23.66,1.44-35.49,2.28v27.96c10.58-.75,21.15-1.44,31.73-2.06v28.36c-10.58.62-21.15,1.31-31.73,2.06Z"/>
    <path class="cls-2" d="M653.21,196.72c0-11.76,0-23.53,0-35.29,7.93-.3,15.86-.55,23.79-.75.6,5.74,2.97,10.03,8.13,9.93,9.32-.18,9.32-12.86,9.32-23.17,0-14.67-2.78-20.39-9.32-20.25-4.56.09-8.13,3.56-8.13,13.87v3.17c-8.59.22-17.19.49-25.78.82,0-.73,0-1.45,0-2.18,0-25.96,13.09-39.42,32.92-39.85,19.63-.43,36.68,12.29,36.68,46,0,28.95-11.7,43.6-25.98,43.82-9.12.15-13.48-3.71-18.84-10.32-.33,0-.66.02-.99.03v13.48c-7.27.19-14.54.42-21.81.69ZM651.23,207.9c9.25-.35,18.51-.65,27.76-.87v40.25c-9.25.22-18.51.51-27.76.87,0-13.42,0-26.83,0-40.25Z"/>
  </g>
</svg>