<?xml version="1.0" encoding="UTF-8"?>
<svg id="Calque_1" data-name="Calque 1" xmlns="http://www.w3.org/2000/svg" width="727.32" height="340.84" viewBox="0 0 727.32 340.84">
  <defs>
    <style>
      .cls-1 {
        fill: #366d98;
      }

      .cls-2 {
        fill: #1f6863;
      }

      .cls-3 {
        fill: #98322c;
      }

      .cls-4 {
        fill: #3483bc;
      }

      .cls-5 {
        fill: #fff;
      }

      .cls-6 {
        fill: #bcaa31;
      }

      .cls-7 {
        fill: #bc2f28;
      }

      .cls-8 {
        fill: #33bc43;
      }

      .cls-9 {
        fill: #369843;
      }

      .cls-10 {
        fill: #1e8c86;
      }

      .cls-11 {
        fill: #988b34;
      }
    </style>
  </defs>
  <g>
    <g>
      <path class="cls-8" d="M510.92,107.47l-2.17,5.27c-1.33.12-2.68.24-4.03.36-4.07.36-8.2.74-12.37,1.12-2.46.22-4.64,1.33-6.25,2.98l-.2.2c-.07.07-.13.14-.2.2-.07.07-.14.14-.2.21-.07.06-.14.13-.2.19-.07.07-.13.14-.2.2l-.2.2c-.07.07-.13.14-.2.2-.07.07-.14.14-.2.21-.07.06-.14.13-.2.19-.07.07-.13.14-.2.2l-.2.2c-.07.07-.13.14-.2.2-.07.07-.14.14-.2.21-.07.06-.14.13-.2.19-.07.07-.13.14-.2.2l-.2.2c-.07.07-.13.14-.2.2-.07.07-.14.14-.2.21-.07.06-.14.13-.2.19-.07.07-.13.14-.2.2l-.2.2c-.07.07-.13.14-.2.2-.07.07-.14.14-.2.21-.07.06-.14.13-.2.19-.07.07-.13.14-.2.2l-.2.2c-.07.07-.13.14-.2.2-.07.07-.14.14-.2.21-.07.06-.14.13-.2.19-.07.07-.13.14-.2.2l-.2.2c-.07.07-.13.14-.2.2-.07.07-.14.14-.2.21-.07.06-.14.13-.2.19-.07.07-.13.14-.2.2l-.2.2c-.07.07-.13.14-.2.2-.07.07-.14.14-.2.21-.07.06-.14.13-.2.19-.07.07-.13.14-.2.2l-.2.2c-.07.07-.13.14-.2.2-.07.07-.14.14-.2.21-.07.06-.14.13-.2.19-.07.07-.13.14-.2.2-.05.06-.11.11-.16.17l-1.36-3.38c-1.53-3.81-5.23-6.26-9.27-6.27-.33,0-.65.02-.97.05-7.77.75-15.82,1.55-24.62,2.43-2.43.24-4.59,1.34-6.18,2.98-.06.07-.13.13-.19.2-.07.06-.14.13-.21.2l-.19.19c-.07.07-.14.14-.21.21l-.2.2c-.06.07-.13.13-.19.2-.07.06-.14.13-.21.2l-.19.19c-.07.07-.14.14-.21.21l-.2.2c-.06.07-.13.13-.19.2-.07.06-.14.13-.21.2l-.19.19c-.07.07-.14.14-.21.21l-.2.2c-.06.07-.13.13-.19.2-.07.06-.14.13-.21.2l-.19.19c-.07.07-.14.14-.21.21l-.2.2c-.06.07-.13.13-.19.2-.07.06-.14.13-.21.2l-.19.19c-.07.07-.14.14-.21.21l-.2.2c-.06.07-.13.13-.19.2-.07.06-.14.13-.21.2l-.19.19c-.07.07-.14.14-.21.21l-.2.2c-.06.07-.13.13-.19.2-.07.06-.14.13-.21.2l-.19.19c-.07.07-.14.14-.21.21l-.2.2c-.06.07-.13.13-.19.2-.07.06-.14.13-.21.2l-.19.19c-.07.07-.14.14-.21.21l-.2.2c-.06.07-.13.13-.19.2-.07.06-.14.13-.21.2l-.19.19c-.07.07-.14.14-.21.21l-.2.2c-.06.07-.13.13-.19.2-.07.06-.14.13-.21.2l-.19.19c-.07.07-.14.14-.21.21l-.2.2c-.06.07-.13.13-.19.2-.07.06-.14.13-.21.2l-.19.19c-.07.07-.14.14-.21.21l-.2.2c-.06.07-.13.13-.19.2-.07.06-.14.13-.21.2l-.19.19s-.01.01-.01.01c-1.05-1.18-2.17-2.28-3.37-3.29-1.04-.88-2.14-1.69-3.29-2.44-1.08-.7-2.21-1.34-3.38-1.92l9.87-71.22.51-3.67,3.44,1.42,3.43,1.41,70.65,29.09c9.51,3.92,14.04,14.8,10.12,24.31Z"/>
      <path class="cls-9" d="M514.21,91.84c-2.28-5.48-6.56-9.74-12.04-12l-71.51-29.45-3.43-1.42-3.44-1.41-.51,3.68-.51,3.67,3.44,1.42,3.43,1.42,69.79,28.74c3.71,1.53,6.6,4.41,8.15,8.11,1.54,3.71,1.55,7.79.02,11.5l-2.88,7c1.35-.12,2.7-.24,4.03-.36,1.36-.12,2.7-.24,4.04-.36l1.46-3.54c2.26-5.49,2.25-11.53-.04-17Z"/>
    </g>
    <g>
      <path class="cls-6" d="M217.44,148.93c.12,0,.23.01.34.01h-.34c-.47-.01-.95,0-1.43.01.41-.01.82-.03,1.22-.03.07,0,.14,0,.21.01Z"/>
      <path class="cls-6" d="M218.98,138.95c-.57-.02-1.16-.03-1.75-.03-.63,0-1.28.01-1.93.03-1.19.03-2.4.1-3.63.2-.06,0-.11.01-.17.01-13.37,1.02-24.14,5.36-31.96,12.87l-10.47,10.47.1-7.14c.04-2.78-1.09-5.45-3.1-7.37-1.86-1.78-4.34-2.77-6.9-2.77-.2,0-.4.01-.6.02-8.27.5-16.49.96-24.51,1.35-1.31.07-2.62.13-3.92.19l-4.38-8.8c-4.59-9.2-.84-20.38,8.36-24.97l64.98-32.36,3.33-1.65,3.33-1.66.78,3.63,12.44,57.98Z"/>
      <path class="cls-11" d="M205.76,77.34l-.78-3.63-3.33,1.66-3.32,1.66-65.81,32.76c-5.31,2.65-9.27,7.2-11.16,12.83-1.89,5.63-1.47,11.65,1.18,16.96l3.8,7.64c.71-.2,1.45-.32,2.21-.36.53-.02,1.06-.05,1.59-.08,1.3-.06,2.61-.12,3.92-.19l-5.08-10.21c-1.79-3.59-2.08-7.67-.8-11.47,1.27-3.81,3.95-6.89,7.55-8.68l64.15-31.95,3.33-1.65,3.33-1.66-.78-3.63Z"/>
    </g>
    <g>
      <path class="cls-7" d="M217.44,148.93c.12,0,.23.01.34.01h-.34Z"/>
      <path class="cls-7" d="M302.55,30.24l-14.48,104.52c-1.13.11-2.25.22-3.36.32-2.42.24-4.6,1.33-6.22,2.99-.06.07-.13.13-.19.2-.15.14-.3.29-.44.45l-.12.12c-.15.14-.3.28-.44.43-.15.14-.3.29-.44.45l-.12.12c-.15.14-.3.28-.44.43-.15.14-.3.29-.44.45l-.12.12c-.15.14-.3.28-.44.43-.15.14-.3.29-.44.45l-.12.12c-.15.14-.3.28-.44.43-.15.14-.3.29-.44.45l-.12.12c-.15.14-.3.28-.44.43-.15.14-.3.29-.44.45l-.12.12c-.15.14-.3.28-.44.43-.15.14-.3.29-.44.45l-.12.12c-.15.14-.3.28-.44.43-.15.14-.3.29-.44.45l-.12.12c-.05.05-.11.1-.16.15-.1.09-.19.18-.28.28-.15.14-.3.29-.44.45l-.12.12c-.15.14-.3.28-.44.43-.15.14-.3.29-.44.45l-.12.12c-.15.14-.3.28-.44.43-.14.13-.27.26-.4.41-.02.01-.03.03-.04.04l-.12.12c-.15.14-.3.28-.44.43-.15.14-.3.29-.44.45l-.12.12c-.15.14-.3.28-.44.43-.15.14-.3.29-.44.45l-.12.12c-.15.14-.3.28-.44.43-.03.02-.05.05-.08.08-.12.11-.24.24-.36.37l-.12.12c-.15.14-.3.28-.44.43-.15.14-.3.29-.44.45l-.12.12c-.15.14-.3.28-.44.43-.15.14-.3.29-.44.45l-.12.12c-.15.14-.3.28-.44.43-.15.14-.3.29-.44.45l-.12.12c-.15.14-.3.28-.44.43-.15.14-.3.29-.44.45l-.12.12c-.15.14-.3.28-.44.43-.15.14-.3.29-.44.45l-.12.12c-.15.14-.3.28-.44.43-.15.14-.3.29-.44.45l-.12.12c-.15.14-.3.28-.44.43-.15.14-.3.29-.44.45l-.12.12c-.15.14-.3.28-.44.43-.15.14-.3.29-.44.45l-.12.12c-.15.14-.3.28-.44.43-.15.14-.3.29-.44.45l-.12.12c-.15.14-.3.28-.44.43-.15.14-.3.29-.44.45l-.12.12c-.06.06-.13.12-.2.18-.36-.87-.75-1.74-1.17-2.58-4.47-9.1-14.06-19.91-34.39-20.49l-12.44-57.98-.78-3.63-.78-3.63-1.6-7.44c-1.74-8.1,3.43-16.1,11.53-17.84l83.34-17.89c1.05-.23,2.12-.34,3.18-.34.37,0,.75.01,1.12.04Z"/>
      <path class="cls-7" d="M310.02,28.73l-.53,3.84-14.05,101.48c-1.24.12-2.47.24-3.69.35-1.23.12-2.46.24-3.68.36l14.48-104.52c-.37-.03-.75-.04-1.12-.04-1.06,0-2.13.11-3.18.34l-83.34,17.89c-8.1,1.74-13.27,9.74-11.53,17.84l1.6,7.44.78,3.63.78,3.63,12.44,57.98c-.57-.02-1.16-.03-1.75-.03-.63,0-1.28.01-1.93.03l-12.09-56.32-.78-3.63-.78-3.63-1.79-8.35c-2.16-10.05,4.24-19.95,14.3-22.11l83.33-17.89c1.87-.4,3.74-.51,5.55-.35,1.21.11,2.39.33,3.54.67,1.19.34,2.35.81,3.44,1.39Z"/>
      <path class="cls-3" d="M307.08,23.74c-1.16-.31-2.35-.52-3.55-.63-2.24-.22-4.53-.09-6.8.39l-83.33,17.89c-11.98,2.58-19.63,14.41-17.06,26.39l1.99,9.25.77,3.62.78,3.63,11.79,54.87c1.23-.1,2.44-.17,3.63-.2.65-.02,1.3-.03,1.93-.03.59,0,1.18.01,1.75.03l-12.44-57.98-.78-3.63-.78-3.63-1.6-7.44c-1.74-8.1,3.43-16.1,11.53-17.84l83.34-17.89c1.05-.23,2.12-.34,3.18-.34.37,0,.75.01,1.12.04,1.2.09,2.39.33,3.53.72,1.19.38,2.33.92,3.41,1.61l.53-3.84.52-3.75c-1.12-.51-2.28-.93-3.46-1.24ZM217.44,148.93c-.07-.01-.14-.01-.21-.01-.4,0-.81.02-1.22.03.48-.01.96-.02,1.43-.01h.34c-.11,0-.22-.01-.34-.01Z"/>
    </g>
    <g>
      <path class="cls-4" d="M425.39,35.97l-1.6,11.59-.51,3.68-.51,3.67-9.87,71.22c-5.5-2.73-12.01-4.12-19.42-4.12-2.27,0-4.66.13-7.12.38-3.89.4-7.55,1.08-10.98,2.03-1.54.42-3.03.9-4.47,1.44-1.64.59-3.21,1.26-4.72,2.01-4.39,2.14-8.26,4.86-11.59,8.15-.08.07-.15.14-.23.22l-.39.39c-.07.07-.14.14-.21.21l-.4.4-.39.39c-.07.07-.14.14-.21.21l-.4.4-.39.39c-.07.07-.14.14-.21.21l-.4.4-.39.39c-.07.07-.14.14-.21.21l-.4.4-.39.39c-.07.07-.14.14-.21.21l-.4.4-.39.39c-.07.07-.14.14-.21.21l-.4.4-.39.39c-.07.07-.14.14-.21.21l-.4.4-.39.39c-.07.07-.14.14-.21.21l-.4.4-.39.39c-.07.07-.14.14-.21.21l-.22.22-.57.57c-.07.07-.14.14-.21.21l-.4.4-.39.39c-.07.07-.14.14-.21.21l-.4.4-.39.39c-.07.07-.14.14-.21.21l-.25.25-.15.15-.39.39c-.07.07-.14.14-.21.21l-.4.4-.39.39c-.07.07-.14.14-.21.21l-.4.4-.39.39c-.07.07-.14.14-.21.21l-.27.27-.52.52c-.07.07-.14.14-.21.21l-.4.4-.39.39c-.07.07-.14.14-.21.21l-.4.4-.39.39c-.07.07-.14.14-.21.21l-.4.4-.39.39c-.07.07-.14.14-.21.21l-.4.4-.39.39c-.07.07-.14.14-.21.21l-.4.4-.39.39c-.07.07-.14.14-.21.21l-.4.4-.39.39c-.07.07-.14.14-.21.21l-.4.4-.39.39c-.07.07-.14.14-.21.21l-.4.4-.39.39c-.07.07-.14.14-.21.21l-.4.4-.39.39c-.07.07-.14.14-.21.21-.03.03-.05.05-.07.07l-4.51-20.9c-1.01-4.65-5.11-7.9-9.77-7.9-.33,0-.67.02-1.01.05-6.64.67-12.92,1.29-18.97,1.89l14.05-101.48.53-3.84.52-3.75.67-4.82c.55-3.98,2.61-7.5,5.81-9.92,2.64-2,5.78-3.05,9.03-3.05.7,0,1.4.05,2.1.15l84.42,11.69c8.21,1.14,13.96,8.74,12.82,16.94Z"/>
      <path class="cls-4" d="M428.96,36.46l-1.73,12.51-.51,3.69-.51,3.67-9.93,71.72c-1.08-.7-2.21-1.34-3.38-1.92l9.87-71.22.51-3.67.51-3.68,1.6-11.59c1.14-8.2-4.61-15.8-12.82-16.94l-84.42-11.69c-.7-.1-1.4-.15-2.1-.15-3.25,0-6.39,1.05-9.03,3.05-3.2,2.42-5.26,5.94-5.81,9.92l-.67,4.82-.52,3.75-.53,3.84-14.05,101.48c-1.24.12-2.47.24-3.69.35l14.33-103.44.5-3.62.5-3.6.56-4.07c1.41-10.19,10.81-17.3,21-15.89l84.43,11.69c10.18,1.41,17.3,10.81,15.89,20.99Z"/>
      <path class="cls-1" d="M413.56,11.91L329.13.21c-5.87-.81-11.72.71-16.45,4.29-4.73,3.59-7.78,8.79-8.6,14.67l-.55,3.94-.49,3.56-.49,3.57-14.48,104.52c1.22-.12,2.45-.24,3.68-.36,1.22-.11,2.45-.23,3.69-.35l14.05-101.48.53-3.84.52-3.75.67-4.82c.55-3.98,2.61-7.5,5.81-9.92,2.64-2,5.78-3.05,9.03-3.05.7,0,1.4.05,2.1.15l84.42,11.69c8.21,1.14,13.96,8.74,12.82,16.94l-1.6,11.59-.51,3.68-.51,3.67-9.87,71.22c1.17.58,2.3,1.22,3.38,1.92,1.15.75,2.25,1.56,3.29,2.44l10.07-72.74.51-3.68.51-3.68,1.86-13.43c1.68-12.13-6.83-23.37-18.96-25.05Z"/>
    </g>
  </g>
  <path class="cls-2" d="M714.15,114.12c-8.09-9.12-19.34-13.94-32.55-13.94-.39,0-.79.01-1.18.02-12,.26-22.28,4.46-29.73,12.16l-.19.19c-.07.07-.14.13-.2.2-.07.07-.14.13-.2.2-.07.07-.14.13-.2.19-.07.08-.13.14-.2.21-.07.07-.14.13-.2.2-.07.07-.14.13-.2.2-.07.07-.14.13-.2.2-.07.07-.14.13-.2.19-.07.08-.13.14-.2.21-.07.07-.14.13-.2.2-.07.07-.14.13-.2.2-.07.07-.14.13-.2.2-.07.07-.14.13-.2.19-.07.08-.13.14-.2.21-.07.07-.14.13-.2.2-.07.07-.14.13-.2.2-.07.07-.14.13-.2.2-.07.07-.14.13-.2.19-.07.08-.13.14-.2.21-.07.07-.14.13-.2.2-.07.07-.14.13-.2.2-.07.07-.14.13-.2.2-.07.07-.14.13-.2.19-.07.08-.13.14-.2.21-.07.07-.14.13-.2.2-.07.07-.14.13-.2.2-.07.07-.14.13-.2.2-.07.07-.14.13-.2.19-.07.08-.13.14-.2.21-.07.07-.14.13-.2.2-.07.07-.14.13-.2.2-.07.07-.14.13-.2.2-.07.07-.14.13-.2.19-.07.08-.13.14-.2.21-.07.07-.14.13-.2.2-.07.07-.14.13-.2.2-.07.07-.14.13-.2.2-.07.07-.14.13-.2.19-.07.08-.13.14-.2.21-.07.07-.14.13-.2.2-.07.07-.14.13-.2.2-.07.07-.14.13-.2.2-.07.07-.14.13-.2.19-.07.08-.13.14-.2.21-.07.07-.14.13-.2.2-.07.07-.14.13-.2.2-.07.07-.14.13-.2.2-.07.07-.14.13-.2.19-.07.08-.13.14-.2.21-.07.07-.14.13-.2.2-.07.07-.14.13-.2.2-.07.07-.14.13-.2.2-.07.07-.14.13-.2.19-.07.08-.13.14-.2.21-.07.07-.14.13-.2.2-.07.07-.14.13-.2.2-.07.07-.14.13-.2.2-.07.07-.14.13-.2.19-.07.08-.13.14-.2.21-.07.07-.14.13-.2.2-.07.07-.14.13-.2.2-.07.07-.14.13-.2.2-.07.07-.14.13-.2.19-.07.08-.13.14-.2.21-.07.07-.14.13-.2.2-.07.07-.14.13-.2.2-.07.07-.14.13-.2.2-.07.07-.14.13-.2.19-.07.08-.13.14-.2.21-.07.07-.14.13-.2.2-.07.07-.14.13-.2.2-.07.07-.14.13-.2.2-.07.07-.14.13-.2.19-.07.08-.13.14-.2.21-.07.07-.14.13-.2.2-.07.07-.14.13-.2.2-.07.07-.14.13-.2.2-.07.07-.14.13-.2.19-.07.08-.13.14-.2.21-.07.07-.14.13-.2.2-.07.07-.14.13-.2.2-.07.07-.14.13-.2.2-.07.07-.14.13-.2.19-.07.08-.13.14-.2.21-.07.07-.14.13-.2.2-.07.07-.14.13-.2.2-.07.07-.14.13-.2.2-.07.07-.14.13-.2.19-.07.08-.13.14-.2.21-.07.07-.14.13-.2.2-.07.07-.14.13-.2.2-.07.07-.14.13-.2.2-.07.07-.14.13-.2.19-.07.08-.13.14-.2.21-.07.07-.14.13-.2.2-.07.07-.14.13-.2.2-.07.07-.14.13-.2.2-.07.07-.14.13-.2.19-.07.08-.13.14-.2.21-.07.07-.14.13-.2.2-.07.07-.14.13-.2.2-.07.07-.14.13-.2.2-.07.07-.14.13-.2.19-.07.08-.13.14-.2.21-.07.07-.14.13-.2.2-.07.07-.14.13-.2.2-.07.07-.14.13-.2.2-.07.07-.14.13-.2.19-.07.08-.13.14-.2.21-.07.07-.14.13-.2.2-.07.07-.14.13-.2.2-.07.07-.14.13-.2.2-.07.07-.14.13-.2.19-.07.08-.13.14-.2.21-.07.07-.14.13-.2.2-.07.07-.14.13-.2.2-.07.07-.14.13-.2.2-.07.07-.14.13-.2.19-.07.08-.13.14-.2.21-.07.07-.14.13-.2.2-.07.07-.14.13-.2.2-.07.07-.14.13-.2.2-.07.07-.14.13-.2.19-.07.08-.13.14-.2.21-.07.07-.14.13-.2.2-.07.07-.14.13-.2.2-.07.07-.14.13-.2.2-.07.07-.14.13-.2.19-.07.08-.13.14-.2.21-.07.07-.14.13-.2.2-.07.07-.14.13-.2.2-.07.07-.14.13-.2.2-.07.07-.14.13-.2.19-.07.08-.13.14-.2.21-.07.07-.14.13-.2.2-.07.07-.14.13-.2.2-.07.07-.14.13-.2.2-.07.07-.14.13-.2.19-.07.08-.13.14-.2.21-.07.07-.14.13-.2.2-.07.07-.14.13-.2.2-.07.07-.14.13-.2.2-.07.07-.14.13-.2.19-.07.08-.13.14-.2.21-.07.07-.14.13-.2.2-.07.07-.14.13-.2.2-.07.07-.14.13-.2.2l-.25.25c-.48.49-.95.99-1.39,1.51h-.02l-1.4,1.32c-1.03.97-2.74.23-2.74-1.19v-.02h-.01v-28.22c0-2.75-1.13-5.38-3.13-7.27-1.86-1.76-4.32-2.73-6.87-2.73-.19,0-.38,0-.57.02-20.83,1.19-42.31,2.68-65.66,4.56-2.51.2-4.74,1.32-6.37,3-.07.06-.13.13-.2.19-.06.07-.13.14-.2.21-.07.06-.13.13-.2.19-.07.07-.13.14-.2.21-.07.06-.14.13-.2.2-.07.06-.13.13-.2.19-.06.07-.13.14-.2.21-.07.06-.13.13-.2.19-.07.07-.13.14-.2.21-.07.06-.14.13-.2.2-.07.06-.13.13-.2.19-.06.07-.13.14-.2.21-.07.06-.13.13-.2.19-.07.07-.13.14-.2.21-.07.06-.14.13-.2.2-.03.02-.05.05-.07.07-.45-.68-.97-1.31-1.58-1.88-1.86-1.73-4.29-2.68-6.81-2.68-.29,0-.57.01-.85.04-2.49.21-5.03.43-7.59.65-1.34.12-2.68.24-4.04.36-1.33.12-2.68.24-4.03.36-4.07.36-8.2.74-12.37,1.12-2.46.22-4.64,1.33-6.25,2.98l-.2.2c-.07.07-.13.14-.2.2-.07.07-.14.14-.2.21-.07.06-.14.13-.2.19-.07.07-.13.14-.2.2l-.2.2c-.07.07-.13.14-.2.2-.07.07-.14.14-.2.21-.07.06-.14.13-.2.19-.07.07-.13.14-.2.2l-.2.2c-.07.07-.13.14-.2.2-.07.07-.14.14-.2.21-.07.06-.14.13-.2.19-.07.07-.13.14-.2.2l-.2.2c-.07.07-.13.14-.2.2-.07.07-.14.14-.2.21-.07.06-.14.13-.2.19-.07.07-.13.14-.2.2l-.2.2c-.07.07-.13.14-.2.2-.07.07-.14.14-.2.21-.07.06-.14.13-.2.19-.07.07-.13.14-.2.2l-.2.2c-.07.07-.13.14-.2.2-.07.07-.14.14-.2.21-.07.06-.14.13-.2.19-.07.07-.13.14-.2.2l-.2.2c-.07.07-.13.14-.2.2-.07.07-.14.14-.2.21-.07.06-.14.13-.2.19-.07.07-.13.14-.2.2l-.2.2c-.07.07-.13.14-.2.2-.07.07-.14.14-.2.21-.07.06-.14.13-.2.19-.07.07-.13.14-.2.2l-.2.2c-.07.07-.13.14-.2.2-.07.07-.14.14-.2.21-.07.06-.14.13-.2.19-.07.07-.13.14-.2.2-.05.06-.11.11-.16.17l-1.36-3.38c-1.53-3.81-5.23-6.26-9.27-6.27-.33,0-.65.02-.97.05-7.77.75-15.82,1.55-24.62,2.43-2.43.24-4.59,1.34-6.18,2.98-.06.07-.13.13-.19.2-.07.06-.14.13-.21.2l-.19.19c-.07.07-.14.14-.21.21l-.2.2c-.06.07-.13.13-.19.2-.07.06-.14.13-.21.2l-.19.19c-.07.07-.14.14-.21.21l-.2.2c-.06.07-.13.13-.19.2-.07.06-.14.13-.21.2l-.19.19c-.07.07-.14.14-.21.21l-.2.2c-.06.07-.13.13-.19.2-.07.06-.14.13-.21.2l-.19.19c-.07.07-.14.14-.21.21l-.2.2c-.06.07-.13.13-.19.2-.07.06-.14.13-.21.2l-.19.19c-.07.07-.14.14-.21.21l-.2.2c-.06.07-.13.13-.19.2-.07.06-.14.13-.21.2l-.19.19c-.07.07-.14.14-.21.21l-.2.2c-.06.07-.13.13-.19.2-.07.06-.14.13-.21.2l-.19.19c-.07.07-.14.14-.21.21l-.2.2c-.06.07-.13.13-.19.2-.07.06-.14.13-.21.2l-.19.19c-.07.07-.14.14-.21.21l-.2.2c-.06.07-.13.13-.19.2-.07.06-.14.13-.21.2l-.19.19c-.07.07-.14.14-.21.21l-.2.2c-.06.07-.13.13-.19.2-.07.06-.14.13-.21.2l-.19.19c-.07.07-.14.14-.21.21l-.2.2c-.06.07-.13.13-.19.2-.07.06-.14.13-.21.2l-.19.19c-.07.07-.14.14-.21.21l-.2.2c-.06.07-.13.13-.19.2-.07.06-.14.13-.21.2l-.19.19s-.01.01-.01.01c-1.05-1.18-2.17-2.28-3.37-3.29-1.04-.88-2.14-1.69-3.29-2.44-1.08-.7-2.21-1.34-3.38-1.92-5.5-2.73-12.01-4.12-19.42-4.12-2.27,0-4.66.13-7.12.38-3.89.4-7.55,1.08-10.98,2.03-1.54.42-3.03.9-4.47,1.44-1.64.59-3.21,1.26-4.72,2.01-4.39,2.14-8.26,4.86-11.59,8.15-.08.07-.15.14-.23.22l-.39.39c-.07.07-.14.14-.21.21l-.4.4-.39.39c-.07.07-.14.14-.21.21l-.4.4-.39.39c-.07.07-.14.14-.21.21l-.4.4-.39.39c-.07.07-.14.14-.21.21l-.4.4-.39.39c-.07.07-.14.14-.21.21l-.4.4-.39.39c-.07.07-.14.14-.21.21l-.4.4-.39.39c-.07.07-.14.14-.21.21l-.4.4-.39.39c-.07.07-.14.14-.21.21l-.4.4-.39.39c-.07.07-.14.14-.21.21l-.22.22-.57.57c-.07.07-.14.14-.21.21l-.4.4-.39.39c-.07.07-.14.14-.21.21l-.4.4-.39.39c-.07.07-.14.14-.21.21l-.25.25-.15.15-.39.39c-.07.07-.14.14-.21.21l-.4.4-.39.39c-.07.07-.14.14-.21.21l-.4.4-.39.39c-.07.07-.14.14-.21.21l-.27.27-.52.52c-.07.07-.14.14-.21.21l-.4.4-.39.39c-.07.07-.14.14-.21.21l-.4.4-.39.39c-.07.07-.14.14-.21.21l-.4.4-.39.39c-.07.07-.14.14-.21.21l-.4.4-.39.39c-.07.07-.14.14-.21.21l-.4.4-.39.39c-.07.07-.14.14-.21.21l-.4.4-.39.39c-.07.07-.14.14-.21.21l-.4.4-.39.39c-.07.07-.14.14-.21.21l-.4.4-.39.39c-.07.07-.14.14-.21.21l-.4.4-.39.39c-.07.07-.14.14-.21.21-.03.03-.05.05-.07.07l-4.51-20.9c-1.01-4.65-5.11-7.9-9.77-7.9-.33,0-.67.02-1.01.05-6.64.67-12.92,1.29-18.97,1.89-1.24.12-2.47.24-3.69.35-1.23.12-2.46.24-3.68.36-1.13.11-2.25.22-3.36.32-2.42.24-4.6,1.33-6.22,2.99-.06.07-.13.13-.19.2-.15.14-.3.29-.44.45l-.12.12c-.15.14-.3.28-.44.43-.15.14-.3.29-.44.45l-.12.12c-.15.14-.3.28-.44.43-.15.14-.3.29-.44.45l-.12.12c-.15.14-.3.28-.44.43-.15.14-.3.29-.44.45l-.12.12c-.15.14-.3.28-.44.43-.15.14-.3.29-.44.45l-.12.12c-.15.14-.3.28-.44.43-.15.14-.3.29-.44.45l-.12.12c-.15.14-.3.28-.44.43-.15.14-.3.29-.44.45l-.12.12c-.15.14-.3.28-.44.43-.15.14-.3.29-.44.45l-.12.12c-.05.05-.11.1-.16.15-.1.09-.19.18-.28.28-.15.14-.3.29-.44.45l-.12.12c-.15.14-.3.28-.44.43-.15.14-.3.29-.44.45l-.12.12c-.15.14-.3.28-.44.43-.14.13-.27.26-.4.41-.02.01-.03.03-.04.04l-.12.12c-.15.14-.3.28-.44.43-.15.14-.3.29-.44.45l-.12.12c-.15.14-.3.28-.44.43-.15.14-.3.29-.44.45l-.12.12c-.15.14-.3.28-.44.43-.03.02-.05.05-.08.08-.12.11-.24.24-.36.37l-.12.12c-.15.14-.3.28-.44.43-.15.14-.3.29-.44.45l-.12.12c-.15.14-.3.28-.44.43-.15.14-.3.29-.44.45l-.12.12c-.15.14-.3.28-.44.43-.15.14-.3.29-.44.45l-.12.12c-.15.14-.3.28-.44.43-.15.14-.3.29-.44.45l-.12.12c-.15.14-.3.28-.44.43-.15.14-.3.29-.44.45l-.12.12c-.15.14-.3.28-.44.43-.15.14-.3.29-.44.45l-.12.12c-.15.14-.3.28-.44.43-.15.14-.3.29-.44.45l-.12.12c-.15.14-.3.28-.44.43-.15.14-.3.29-.44.45l-.12.12c-.15.14-.3.28-.44.43-.15.14-.3.29-.44.45l-.12.12c-.15.14-.3.28-.44.43-.15.14-.3.29-.44.45l-.12.12c-.06.06-.13.12-.2.18-.36-.87-.75-1.74-1.17-2.58-4.47-9.1-14.06-19.91-34.39-20.49-.57-.02-1.16-.03-1.75-.03-.63,0-1.28.01-1.93.03-1.19.03-2.4.1-3.63.2-.06,0-.11.01-.17.01-13.37,1.02-24.14,5.36-31.96,12.87l-10.47,10.47.1-7.14c.04-2.78-1.09-5.45-3.1-7.37-1.86-1.78-4.34-2.77-6.9-2.77-.2,0-.4.01-.6.02-8.27.5-16.49.96-24.51,1.35-1.31.07-2.62.13-3.92.19-.53.03-1.06.06-1.59.08-.76.04-1.5.16-2.21.36-.84.23-1.64.57-2.37,1-1.32-.61-2.76-.95-4.25-.95-.15,0-.29.01-.44.01-10.49.45-20.91.83-30.97,1.1-2.71.08-5.21,1.24-7,3.13l-.16.16c-.16.15-.32.31-.47.47-.02.02-.04.04-.06.07-.11.1-.21.2-.3.3-.06.05-.12.11-.17.16-.16.15-.32.31-.47.47-.02.02-.04.04-.06.07-.11.1-.21.2-.3.3-.06.05-.12.11-.17.16-.09.09-.18.17-.27.26-.45-.8-1.01-1.55-1.68-2.22-1.88-1.87-4.42-2.91-7.06-2.91h-.18c-10.1.18-20.18.27-29.96.27-2.67,0-5.24,1.07-7.12,2.98-.1.1-.19.2-.29.3t-.01,0s-.05.05-.07.08c-.07.06-.14.13-.21.2l-.21.21c-.05.05-.1.1-.14.15-.09.08-.17.16-.25.25-.04.03-.08.07-.12.11-.02.03-.05.05-.07.08-.07.06-.14.13-.21.2l-.21.21c-.05.05-.1.1-.14.15-.09.08-.17.16-.25.25-.04.03-.08.07-.12.11-.02.03-.05.05-.07.08-.07.06-.14.13-.21.2l-.21.21c-.05.05-.1.1-.14.15-.09.08-.17.16-.25.25-.04.03-.08.07-.12.11-.02.03-.05.05-.07.08-.07.06-.14.13-.21.2l-.21.21c-.05.05-.1.1-.14.15-.09.08-.17.16-.25.25-.04.03-.08.07-.12.11-.02.03-.05.05-.07.08-.07.06-.14.13-.21.2l-.21.21c-.05.05-.1.1-.14.15-.09.08-.17.16-.25.25-.04.03-.08.07-.12.11-.02.03-.05.05-.07.08-.07.06-.14.13-.21.2l-.21.21c-.05.05-.1.1-.14.15-.09.08-.17.16-.25.25-.04.03-.08.07-.12.11-.02.03-.05.05-.07.08-.07.06-.14.13-.21.2l-.21.21c-.05.05-.1.1-.14.15-.09.08-.17.16-.25.25-.04.03-.08.07-.12.11-.02.03-.05.05-.07.08-.07.06-.14.13-.21.2l-.21.21c-.05.05-.1.1-.14.15-.09.08-.17.16-.25.25-.04.03-.08.07-.12.11-.02.03-.05.05-.07.08-.07.06-.14.13-.21.2l-.21.21c-.05.05-.1.1-.14.15-.09.08-.17.16-.25.25-.04.03-.08.07-.12.11-.02.03-.05.05-.07.08-.07.06-.14.13-.21.2l-.21.21c-.05.05-.1.1-.14.15-.09.08-.17.16-.25.25-.04.03-.08.07-.12.11-.02.03-.05.05-.07.08-.07.06-.14.13-.21.2l-.21.21c-.05.05-.1.1-.14.15-.09.08-.17.16-.25.25-.04.03-.08.07-.12.11-.02.03-.05.05-.07.08-.07.06-.14.13-.21.2l-.21.21c-.05.05-.1.1-.14.15-.09.08-.17.16-.25.25-.04.03-.08.07-.12.11-.02.03-.05.05-.07.08-.07.06-.14.13-.21.2l-.21.21c-.05.05-.1.1-.14.15-.09.08-.17.16-.25.25-.04.03-.08.07-.12.11-.02.03-.05.05-.07.08-.07.06-.14.13-.21.2l-.21.21c-.05.05-.1.1-.14.15-.09.08-.17.16-.25.25-.04.03-.08.07-.12.11-.02.03-.05.05-.07.08-.07.06-.14.13-.21.2l-.21.21c-.05.05-.1.1-.14.15-.09.08-.17.16-.25.25-.04.03-.08.07-.12.11-.02.03-.05.05-.07.08-.07.06-.14.13-.21.2l-.21.21c-.05.05-.1.1-.14.15-.09.08-.17.16-.25.25-.04.03-.08.07-.12.11-.02.03-.05.05-.07.08-.07.06-.14.13-.21.2l-.21.21c-.05.05-.1.1-.14.15-.09.08-.17.16-.25.25-.04.03-.08.07-.12.11-.02.03-.05.05-.07.08-.07.06-.14.13-.21.2l-.21.21c-.05.05-.1.1-.14.15-.09.08-.17.16-.25.25-.04.03-.08.07-.12.11-.02.03-.05.05-.07.08-.07.06-.14.13-.21.2l-.21.21c-.05.05-.1.1-.14.15-.09.08-.17.16-.25.25-.04.03-.08.07-.12.11-.02.03-.05.05-.07.08-.07.06-.14.13-.21.2l-.21.21c-.05.05-.1.1-.14.15-.09.08-.17.16-.25.25-.04.03-.08.07-.12.11-.02.03-.05.05-.07.08-.07.06-.14.13-.21.2l-.21.21c-.05.05-.1.1-.14.15-.09.08-.17.16-.25.25-.04.03-.08.07-.12.11-.02.03-.05.05-.07.08-.07.06-.14.13-.21.2l-.21.21c-.05.05-.1.1-.14.15-.09.08-.17.16-.25.25-.04.03-.08.07-.12.11-.02.03-.05.05-.07.08-.07.06-.14.13-.21.2l-.21.21c-.05.05-.1.1-.14.15-.09.08-.17.16-.25.25-.04.03-.08.07-.12.11-.02.03-.05.05-.07.08-.07.06-.14.13-.21.2l-.21.21c-.05.05-.1.1-.14.15-.09.08-.17.16-.25.25-.04.03-.08.07-.12.11-.02.03-.05.05-.07.08-.07.06-.14.13-.21.2l-.21.21c-.05.05-.1.1-.14.15-.09.08-.17.16-.25.25-.04.03-.08.07-.12.11-.02.03-.05.05-.07.08-.07.06-.14.13-.21.2l-.21.21c-.05.05-.1.1-.14.15-.09.08-.17.16-.25.25-.04.03-.08.07-.12.11-.02.03-.05.05-.07.08-.07.06-.14.13-.21.2l-.21.21c-.05.05-.1.1-.14.15-.09.08-.17.16-.25.25-.04.03-.08.07-.12.11-.02.03-.05.05-.07.08-.07.06-.14.13-.21.2l-.21.21c-.05.05-.1.1-.14.15-.09.08-.17.16-.25.25-.04.03-.08.07-.12.11-.02.03-.05.05-.07.08-.07.06-.14.13-.21.2l-.21.21c-.05.05-.1.1-.14.15-.09.08-.17.16-.25.25-.04.03-.08.07-.12.11-.02.03-.05.05-.07.08-.07.06-.14.13-.21.2l-.21.21c-.08.08-.16.17-.24.25C1.01,184-.03,186.56,0,189.21l.2,14.4v112.69l-.1,7.15L0,330.71c-.03,2.67,1,5.25,2.88,7.16,1.88,1.9,4.45,2.97,7.12,2.97,9.91,0,20.11-.09,30.32-.27,2.75-.05,5.22-1.2,6.99-3.02l.2-.2c.07-.07.14-.14.2-.21h0c.06-.06.13-.13.19-.2.07-.06.13-.13.2-.19.07-.07.13-.14.2-.2.07-.07.13-.14.2-.2.07-.07.14-.14.2-.21h0c.06-.06.13-.13.19-.2.07-.06.13-.13.2-.19.07-.07.13-.14.2-.2.07-.07.13-.14.2-.2.07-.07.14-.14.2-.21h0c.06-.06.13-.13.19-.2.07-.06.13-.13.2-.19.07-.07.13-.14.2-.2.07-.07.13-.14.2-.2.05-.05.09-.09.14-.14,1.61,3.59,5.18,5.91,9.12,5.91h.29c10.99-.31,22.39-.73,33.87-1.25.95-.04,1.89-.22,2.77-.52.76.18,1.54.28,2.33.28.16,0,.31-.01.47-.01,9.83-.47,20.02-1.02,30.27-1.64,2.58-.15,4.89-1.28,6.57-3.01.07-.06.13-.13.2-.2l.2-.2c.07-.06.13-.13.2-.2.07-.06.13-.13.19-.19l.21-.21c.07-.06.13-.13.2-.2l.2-.2c.07-.06.13-.13.2-.2.07-.06.13-.13.19-.19l.21-.21c.07-.06.13-.13.2-.2l.2-.2c.07-.06.13-.13.2-.2.07-.06.13-.13.19-.19l.21-.21c.07-.06.13-.13.2-.2l.2-.2c.07-.06.13-.13.2-.2.07-.06.13-.13.19-.19l.21-.21c.07-.06.13-.13.2-.2l.2-.2c.07-.06.13-.13.2-.2.07-.06.13-.13.19-.19l.21-.21c.07-.06.13-.13.2-.2l.2-.2c.07-.06.13-.13.2-.2.07-.06.13-.13.19-.19l.21-.21c.07-.06.13-.13.2-.2l.2-.2c.07-.06.13-.13.2-.2.07-.06.13-.13.19-.19l.21-.21c.07-.06.13-.13.2-.2l.2-.2c.07-.06.13-.13.2-.2.07-.06.13-.13.19-.19l.21-.21c.07-.06.13-.13.2-.2l.2-.2c.07-.06.13-.13.2-.2.07-.06.13-.13.19-.19l.21-.21c.07-.06.13-.13.2-.2l.2-.2c.07-.06.13-.13.2-.2.07-.06.13-.13.19-.19l.3-.3c6.91,8.05,16.57,12.22,28.54,12.22,1.34,0,2.73-.05,4.12-.15,9.35-.73,17.17-3.54,24.19-8.76,1.89,2.33,4.75,3.71,7.78,3.71.28,0,.57-.01.86-.04,2.85-.24,5.7-.49,8.55-.75,1.11-.09,2.16-.37,3.13-.8.76.18,1.54.28,2.32.28.3,0,.6-.02.9-.04,9.58-.87,19.32-1.78,29.8-2.78,2.43-.24,4.61-1.33,6.22-2.98.07-.07.13-.14.2-.21.07-.06.14-.13.21-.2.06-.07.12-.13.19-.19.07-.07.13-.14.2-.21.07-.06.13-.13.2-.2.07-.06.13-.13.2-.2.07-.06.14-.13.21-.2.06-.07.12-.13.19-.19.07-.07.13-.14.2-.21.07-.06.13-.13.2-.2.07-.06.13-.13.2-.2.07-.06.14-.13.21-.2.06-.07.12-.13.19-.19.07-.07.13-.14.2-.21.07-.06.13-.13.2-.2.07-.06.13-.13.2-.2.07-.06.14-.13.21-.2.06-.07.12-.13.19-.19.07-.07.13-.14.2-.21.07-.06.13-.13.2-.2.07-.06.13-.13.2-.2.07-.06.14-.13.21-.2.06-.07.12-.13.19-.19.07-.07.13-.14.2-.21.07-.06.13-.13.2-.2.07-.06.13-.13.2-.2.07-.06.14-.13.21-.2.06-.07.12-.13.19-.19.07-.07.13-.14.2-.21.07-.06.13-.13.2-.2.07-.06.13-.13.2-.2.07-.06.14-.13.21-.2.06-.07.12-.13.19-.19.07-.07.13-.14.2-.21.07-.06.13-.13.2-.2.07-.06.13-.13.2-.2.07-.06.14-.13.21-.2.06-.07.12-.13.19-.19.07-.07.13-.14.2-.21.07-.06.13-.13.2-.2.07-.06.13-.13.2-.2.07-.06.14-.13.21-.2.06-.07.12-.13.19-.19.07-.07.13-.14.2-.21.07-.06.13-.13.2-.2.07-.06.13-.13.2-.2.07-.06.14-.13.21-.2.06-.07.12-.13.19-.19.07-.07.13-.14.2-.21.07-.06.13-.13.2-.2.07-.06.13-.13.2-.2.07-.06.14-.13.21-.2l.12-.12.39,2.41c.79,4.88,5.01,8.4,9.86,8.4.33,0,.67-.02,1-.05,9.58-.96,19.67-1.98,31.76-3.23,2.39-.24,4.6-1.34,6.24-3.07.1-.1.21-.2.31-.31l.19-.19c.07-.07.14-.14.21-.2.1-.1.19-.2.29-.3.1-.1.21-.2.31-.31l.19-.19c.07-.07.14-.14.21-.2.1-.1.19-.2.29-.3.1-.1.21-.2.31-.31l.19-.19c.07-.07.14-.14.21-.2.1-.1.19-.2.29-.3.1-.1.21-.2.31-.31l.19-.19c.07-.07.14-.14.21-.2.1-.1.19-.2.29-.3.1-.1.21-.2.31-.31l.19-.19c.05-.04.09-.09.14-.13,5.96,4.24,13.28,6.44,21.65,6.44,1.79,0,3.65-.1,5.55-.3,9.28-.96,17.06-3.94,24.03-9.26,1.89,2.24,4.69,3.55,7.65,3.55.34,0,.68-.01,1.02-.05,2.84-.29,5.68-.58,8.52-.87,2.42-.25,4.57-1.35,6.16-2.98l.2-.2c.06-.06.13-.13.19-.2.07-.06.14-.13.21-.2.06-.06.13-.13.19-.2.07-.06.14-.13.21-.2l.2-.2c.06-.06.13-.13.19-.2.07-.06.14-.13.21-.2.06-.06.13-.13.19-.2.07-.06.14-.13.21-.2l.2-.2.04-.04c.27.32.56.63.87.92,1.86,1.7,4.27,2.63,6.76,2.63.34,0,.67-.02,1-.05,9.93-1,18.99-1.89,27.72-2.73,2.45-.24,4.61-1.34,6.21-2.98l.2-.2c.07-.07.14-.14.21-.21l.79-.79c.07-.07.14-.14.21-.21l.79-.79c.07-.07.14-.14.21-.21l.79-.79c.07-.07.14-.14.21-.21l.79-.79c.07-.07.14-.14.21-.21l.79-.79c.07-.07.14-.14.21-.21l.79-.79c.07-.07.14-.14.21-.21l.79-.79c.07-.07.14-.14.21-.21l.79-.79c.07-.07.14-.14.21-.21l.75-.75c.45,1.13.91,2.26,1.36,3.38,1.54,3.82,5.23,6.27,9.28,6.27.3,0,.6-.01.91-.04,8.46-.77,16.78-1.51,24.73-2.19,2.54-.21,4.78-1.37,6.42-3.09.13-.13.26-.27.39-.4.18-.16.34-.33.5-.51.17-.15.34-.32.5-.49.18-.16.34-.33.5-.51.17-.15.34-.32.5-.49.18-.16.34-.33.5-.51.03-.02.05-.04.08-.07.44.68.96,1.3,1.56,1.87,1.86,1.74,4.3,2.69,6.83,2.69.27,0,.53-.01.8-.03,23.4-1.88,44.92-3.37,65.8-4.56,2.67-.16,5.05-1.35,6.75-3.17.02-.03.05-.05.07-.08.13-.11.25-.24.38-.36.07-.07.13-.14.2-.21.12-.11.23-.23.35-.35.02-.03.05-.05.07-.08.13-.11.25-.24.38-.36.07-.07.13-.14.2-.21.12-.11.23-.23.35-.35.02-.03.05-.05.07-.08.13-.11.25-.24.38-.36.07-.07.13-.14.2-.21.12-.11.23-.23.35-.35.02-.03.05-.05.07-.08.13-.11.25-.24.38-.36.07-.07.13-.14.2-.21.12-.11.23-.23.35-.35.02-.03.05-.05.07-.08.13-.11.25-.24.38-.36.07-.07.13-.14.2-.21.12-.11.23-.23.35-.35.02-.03.05-.05.07-.08.13-.11.25-.24.38-.36.07-.07.13-.14.2-.21.12-.11.23-.23.35-.35.02-.03.05-.05.07-.08.13-.11.25-.24.38-.36.07-.07.13-.14.2-.21.12-.11.23-.23.35-.35.02-.03.05-.05.07-.08.13-.11.25-.24.38-.36.07-.07.13-.14.2-.21.12-.11.23-.23.35-.35.02-.03.05-.05.07-.08.13-.11.25-.24.38-.36.07-.07.13-.14.2-.21.12-.11.23-.23.35-.35.02-.03.05-.05.07-.08.13-.11.25-.24.38-.36.07-.07.13-.14.2-.21.12-.11.23-.23.35-.35.02-.03.05-.05.07-.08.13-.11.25-.24.38-.36.07-.07.13-.14.2-.21.12-.11.23-.23.35-.35.02-.03.05-.05.07-.08.13-.11.25-.24.38-.36.07-.07.13-.14.2-.21.12-.11.23-.23.35-.35.02-.03.05-.05.07-.08.13-.11.25-.24.38-.36.07-.07.13-.14.2-.21.12-.11.23-.23.35-.35.02-.03.05-.05.07-.08.13-.11.25-.24.38-.36.07-.07.13-.14.2-.21.12-.11.23-.23.35-.35.02-.03.05-.05.07-.08.13-.11.25-.24.38-.36.07-.07.13-.14.2-.21.12-.11.23-.23.35-.35.02-.03.05-.05.07-.08.13-.11.25-.24.38-.36.07-.07.13-.14.2-.21.12-.11.23-.23.35-.35.02-.03.05-.05.07-.08.13-.11.25-.24.38-.36.07-.07.13-.14.2-.21.12-.11.23-.23.35-.35.02-.03.05-.05.07-.08.13-.11.25-.24.38-.36.07-.07.13-.14.2-.21.12-.11.23-.23.35-.35.02-.03.05-.05.07-.08.13-.11.25-.24.38-.36.07-.07.13-.14.2-.21.12-.11.23-.23.35-.35.02-.03.05-.05.07-.08.13-.11.25-.24.38-.36.07-.07.13-.14.2-.21.12-.11.23-.23.35-.35.02-.03.05-.05.07-.08.13-.11.25-.24.38-.36.07-.07.13-.14.2-.21.12-.11.23-.23.35-.35.02-.03.05-.05.07-.08.13-.11.25-.24.38-.36.07-.07.13-.14.2-.21.12-.11.23-.23.35-.35.02-.03.05-.05.07-.08.13-.11.25-.24.38-.36.07-.07.13-.14.2-.21.12-.11.23-.23.35-.35.02-.03.05-.05.07-.08.13-.11.25-.24.38-.36.07-.07.13-.14.2-.21.12-.11.23-.23.35-.35.02-.03.05-.05.07-.08.13-.11.25-.24.38-.36.02-.03.04-.05.06-.07v15.69c0,2.71,1.11,5.32,3.07,7.2,1.86,1.8,4.35,2.8,6.93,2.8.13,0,.26,0,.38,0,9.3-.36,18.59-.65,27.62-.87,2.83-.06,5.35-1.3,7.13-3.23.23-.21.45-.43.65-.66l.15-.15s.09-.09.14-.13c.25-.23.49-.47.71-.72l.15-.15s.09-.09.14-.13c.25-.23.49-.47.71-.72l.15-.15s.09-.09.14-.13c.25-.23.49-.47.71-.72l.15-.15s.09-.09.14-.13c.25-.23.49-.47.71-.72l.15-.15s.09-.09.14-.13c.25-.23.49-.47.71-.72l.15-.15s.09-.09.14-.13c.25-.23.49-.47.71-.72l.15-.15s.09-.09.14-.13c.25-.23.49-.47.71-.72l.15-.15s.09-.09.14-.13c.25-.23.49-.47.71-.72l.15-.15s.09-.09.14-.13c.25-.23.49-.47.71-.72l.15-.15s.09-.09.14-.13c.25-.23.49-.47.71-.72l.15-.15s.09-.09.14-.13c.25-.23.49-.47.71-.72l.15-.15s.09-.09.14-.13c.25-.23.49-.47.71-.72l.15-.15s.09-.09.14-.13c.25-.23.49-.47.71-.72l.15-.15s.09-.09.14-.13c.25-.23.49-.47.71-.72l.15-.15s.09-.09.14-.13c.25-.23.49-.47.71-.72l.15-.15s.09-.09.14-.13c.25-.23.49-.47.71-.72l.15-.15s.09-.09.14-.13c.25-.23.49-.47.71-.72l.15-.15s.09-.09.14-.13c.25-.23.49-.47.71-.72l.15-.15s.09-.09.14-.13c.25-.23.49-.47.71-.72l.15-.15s.09-.09.14-.13c.25-.23.49-.47.71-.72l.15-.15s.09-.09.14-.13c.25-.23.49-.47.71-.72l.15-.15s.09-.09.14-.13c.25-.23.49-.47.71-.72l.15-.15s.09-.09.14-.13c.25-.23.49-.47.71-.72l.15-.15s.09-.09.14-.13c.25-.23.49-.47.71-.72l.15-.15s.09-.09.14-.13c.25-.23.49-.47.71-.72l.15-.15s.09-.09.14-.13c.25-.23.49-.47.71-.72l.15-.15s.09-.09.14-.13c.25-.23.49-.47.71-.72l.15-.15s.09-.09.14-.13c.25-.23.49-.47.71-.72l.15-.15s.09-.09.14-.13c.25-.23.49-.47.71-.72,1.84-1.81,2.98-4.33,2.98-7.1v-26.29l.1-.1c.09-.08.18-.18.27-.27l.12-.12c.09-.09.19-.18.28-.27l.17-.18.16-.16c.09-.08.18-.18.27-.27l.12-.12c.09-.09.19-.18.28-.27l.17-.18.16-.16c.09-.08.18-.18.27-.27l.12-.12c.09-.09.19-.18.28-.27l.17-.18.16-.16c.09-.08.18-.18.27-.27l.12-.12c.09-.09.19-.18.28-.27l.17-.18.16-.16c.09-.08.18-.18.27-.27l.12-.12c.09-.09.19-.18.28-.27l.17-.18.16-.16c.09-.08.18-.18.27-.27l.12-.12c.09-.09.19-.18.28-.27l.17-.18.16-.16c.09-.08.18-.18.27-.27l.12-.12c.09-.09.19-.18.28-.27l.17-.18.16-.16c.09-.08.18-.18.27-.27l.12-.12c.09-.09.19-.18.28-.27l.17-.18.16-.16c.09-.08.18-.18.27-.27l.12-.12c.09-.09.19-.18.28-.27l.17-.18.16-.16c.09-.08.18-.18.27-.27l.12-.12c.09-.09.19-.18.28-.27l.17-.18.16-.16c.09-.08.18-.18.27-.27l.12-.12c.09-.09.19-.18.28-.27l.17-.18.16-.16c.09-.08.18-.18.27-.27l.12-.12c.09-.09.19-.18.28-.27l.17-.18.16-.16c.09-.08.18-.18.27-.27l.12-.12c.09-.09.19-.18.28-.27l.17-.18.16-.16c.09-.08.18-.18.27-.27l.12-.12c.09-.09.19-.18.28-.27l.17-.18.16-.16c.09-.08.18-.18.27-.27l.12-.12c.09-.09.19-.18.28-.27l.17-.18.16-.16c.09-.08.18-.18.27-.27l.12-.12c.09-.09.19-.18.28-.27l.17-.18.16-.16c.09-.08.18-.18.27-.27l.12-.12c.09-.09.19-.18.28-.27l.17-.18.16-.16c.09-.08.18-.18.27-.27l.12-.12c.09-.09.19-.18.28-.27l.17-.18.16-.16c.09-.08.18-.18.27-.27l.12-.12c.09-.09.19-.18.28-.27l.17-.18.16-.16c.09-.08.18-.18.27-.27l.12-.12c.09-.09.19-.18.28-.27l.17-.18.16-.16c.09-.08.18-.18.27-.27l.12-.12c.09-.09.19-.18.28-.27l.17-.18.16-.16c.09-.08.18-.18.27-.27l.12-.12c.09-.09.19-.18.28-.27l.17-.18.16-.16c.09-.08.18-.18.27-.27l.12-.12c.09-.09.19-.18.28-.27l.17-.18.16-.16c.09-.08.18-.18.27-.27l.12-.12c.09-.09.19-.18.28-.27l.17-.18.16-.16c.09-.08.18-.18.27-.27l.12-.12c.09-.09.19-.18.28-.27l.17-.18.16-.16c.09-.08.18-.18.27-.27l.12-.12c.09-.09.19-.18.28-.27l.17-.18.16-.16c.09-.08.18-.18.27-.27l.12-.12c.09-.09.19-.18.28-.27l.17-.18.16-.16c.08-.07.15-.15.23-.22,9.49-9.4,14.51-24.84,14.51-44.66,0-18.07-4.43-32.23-13.17-42.08ZM217.78,148.94h-.34c-.47-.01-.95,0-1.43.01.41-.01.82-.03,1.22-.03.07,0,.14,0,.21.01.12,0,.23.01.34.01ZM348.91,309.53s-.06-.01-.08-.01h.27c-.06.01-.13.01-.19.01ZM680.64,110.2c.32-.01.64-.02.96-.02.14,0,.29.01.43.01-.46,0-.93,0-1.39.01Z"/>
  <g>
    <path class="cls-10" d="M40.01,305.85c-1.34,0-2.62-.54-3.56-1.49-.94-.95-1.46-2.24-1.44-3.58l.2-14.47v-112.76s-.2-14.41-.2-14.41c-.02-1.34.5-2.63,1.44-3.58.94-.95,2.22-1.49,3.56-1.49,9.82,0,19.93-.09,30.05-.27,1.36-.04,2.66.5,3.62,1.46.96.96,1.49,2.26,1.47,3.61l-.2,14.48v6.55c2.99-7.76,5.98-15.54,8.97-23.31.72-1.88,2.51-3.15,4.53-3.2,10.1-.28,20.54-.65,31.05-1.1,1.71-.07,3.33.73,4.31,2.13.98,1.4,1.18,3.2.52,4.78-9.39,22.62-18.78,45.17-27.92,67.07,10.25,22.95,20.89,46.69,31.63,70.57.68,1.51.57,3.26-.3,4.67-.87,1.41-2.38,2.3-4.03,2.38-11.47.51-22.83.93-33.79,1.24-2.07.05-3.98-1.18-4.77-3.11-3.4-8.31-6.8-16.64-10.2-24.97v9.06l.2,14.4c.04,2.75-2.16,5.02-4.91,5.07-10.18.18-20.35.27-30.23.27ZM45.08,164.07l.13,9.41v112.89s-.13,9.47-.13,9.47c6.59-.02,13.29-.08,20-.18l-.13-9.48v-32.19c0-2.73,2.18-4.95,4.91-5l.99-.02s.06,0,.09,0c2.03,0,3.86,1.23,4.63,3.11,5.84,14.34,11.68,28.66,17.52,42.95,7.46-.22,15.1-.5,22.81-.82-10.02-22.3-19.93-44.42-29.5-65.84-.56-1.26-.58-2.69-.05-3.97,8.43-20.18,17.07-40.94,25.74-61.81-6.76.27-13.47.5-20.04.69-5.48,14.26-10.97,28.5-16.46,42.71-.73,1.9-2.54,3.16-4.58,3.2l-.99.02c-1.35.04-2.64-.49-3.59-1.43-.96-.94-1.5-2.22-1.5-3.57v-30.93l.13-9.4c-6.72.1-13.41.16-20,.18Z"/>
    <path class="cls-10" d="M129.03,303.63c-1.29,0-2.54-.5-3.48-1.41-.99-.96-1.54-2.28-1.52-3.66l.2-14.48v-112.76s-.2-14.4-.2-14.4c-.04-2.7,2.07-4.94,4.76-5.06,9.78-.46,19.9-1.01,30.08-1.62,1.39-.08,2.75.41,3.75,1.38,1.01.96,1.57,2.29,1.55,3.68l-.2,14.49v112.76s.2,14.39.2,14.39c.04,2.67-2.03,4.9-4.7,5.06-10.22.62-20.39,1.16-30.2,1.63-.08,0-.16,0-.24,0ZM134.1,161.62l.13,9.64v112.9s-.13,9.23-.13,9.23c6.57-.33,13.26-.69,20-1.08l-.13-9.69v-112.9s.13-9.18.13-9.18c-6.74.39-13.44.75-20,1.08Z"/>
    <path class="cls-10" d="M205,301.11c-9.13,0-16.66-2.7-22.43-8.06-12.23-11.34-13.92-31.54-13.92-51.69v-32.12c0-14.7.43-28.88,5.62-40.81,6.4-14.69,19.07-22.87,37.66-24.29,12.97-1.05,23.11,1.7,30.11,8.16,11.03,10.17,12.55,27.57,12.55,44.85v1.39c0,2.59-1.98,4.75-4.56,4.98-10.11.9-20.06,1.74-29.58,2.52-1.39.11-2.77-.36-3.79-1.31-1.03-.95-1.61-2.28-1.61-3.68v-1.79c0-6.06,0-15.21-1.46-16.26-.06-.04-.49-.18-1.47-.1-1.74.14-2.29.47-2.86,2.55-.86,3.15-.86,8.43-.86,15.11v11.17c.64-.37,1.36-.61,2.14-.67,12.42-.97,25.05-2.03,38.62-3.24,1.39-.12,2.78.34,3.82,1.29s1.62,2.29,1.62,3.69v77.33c0,2.59-1.98,4.75-4.56,4.98-2.85.25-5.69.5-8.54.75-1.96.17-3.85-.83-4.8-2.56l-2.09-3.77c-7.44,7.04-15.63,10.61-25.86,11.41-1.27.1-2.52.14-3.74.14ZM217.3,153.93c-1.46,0-2.99.06-4.58.19-31.56,2.42-34.07,25.37-34.07,55.13v32.12c0,17.02,1.27,35.6,10.72,44.35,4.48,4.16,10.57,5.88,18.6,5.27,9.8-.76,16.67-4.51,23.71-12.93.85-1.02,2.07-1.66,3.39-1.77l.27-.02c1.93-.15,3.8.86,4.74,2.56l3.78,6.81c.24-.02.49-.04.73-.06v-67.29c-9.92.87-19.38,1.66-28.67,2.4v16.14c2.1-.17,4.19-.34,6.29-.51,1.39-.11,2.77.36,3.8,1.31,1.03.95,1.61,2.28,1.61,3.68v8.33c0,9.19,0,23.07-14.72,24.24-4.03.32-7.29-.64-9.67-2.85-4.84-4.48-4.84-12.36-4.84-25.41v-45.02c0-14.29,0-26.63,12.94-27.64,3.72-.3,6.77.62,9.05,2.73,4.16,3.85,4.61,10.36,4.66,19.96,6.37-.53,12.91-1.08,19.53-1.66-.18-13.9-1.69-27.28-9.31-34.31-4.17-3.85-10.07-5.74-17.97-5.74ZM208.39,246.55c0,7.52.07,15.68,1.63,17.12.14.13.75.33,2.1.23,4.58-.36,5.5-2.76,5.5-14.27v-2.91c-2.1.17-4.21.34-6.31.5-1.03.08-2.05-.16-2.93-.67ZM249.59,198.55h.01-.01Z"/>
    <path class="cls-10" d="M255.93,294.59c-1.42,0-2.78-.6-3.73-1.67-1.05-1.18-1.49-2.79-1.17-4.34,9.91-48.15,19.83-96.34,29.74-144.55.44-2.15,2.23-3.76,4.42-3.97,9.91-.95,19.81-1.93,29.72-2.92,2.53-.25,4.85,1.43,5.39,3.92,9.98,46.26,19.96,92.5,29.94,138.73.3,1.39,0,2.84-.84,3.99-.83,1.15-2.12,1.89-3.53,2.04-10.58,1.09-21.16,2.17-31.74,3.22-2.63.26-5.01-1.57-5.43-4.18l-1.43-8.82c-5.07.5-10.15,1-15.22,1.49l-1.43,9.98c-.33,2.29-2.17,4.05-4.47,4.27-10.26.99-20.28,1.92-29.77,2.78-.15.01-.3.02-.45.02ZM289.83,149.67c-9.21,44.8-18.43,89.58-27.64,134.34,6.2-.57,12.59-1.17,19.1-1.79l1.43-9.98c.33-2.28,2.17-4.05,4.47-4.27,7.93-.76,15.85-1.54,23.78-2.33,2.63-.26,5.01,1.57,5.43,4.18l1.43,8.82c7.16-.72,14.32-1.45,21.48-2.18-9.27-42.96-18.55-85.93-27.82-128.91-7.21.72-14.43,1.43-21.64,2.13ZM291.82,251.17c-1.36,0-2.67-.55-3.62-1.55-1.06-1.11-1.55-2.65-1.33-4.16l7.14-49.67c.33-2.28,2.17-4.04,4.46-4.27l.99-.1c2.65-.24,5.04,1.61,5.43,4.25l7.14,48.27c.2,1.35-.16,2.73-1,3.81-.84,1.08-2.09,1.77-3.45,1.9-5.09.5-10.19,1.01-15.28,1.5-.16.02-.32.02-.48.02ZM299.53,227.71l-1.85,12.87c1.23-.12,2.47-.24,3.7-.36l-1.85-12.51Z"/>
    <path class="cls-10" d="M378.92,284.53c-8.6,0-15.75-2.52-21.29-7.51-12.22-11.02-13.91-31.14-13.91-51.24v-32.12c0-14.7.43-28.89,5.61-40.97,6.37-14.87,19-23.39,37.54-25.31,12.98-1.34,23.14,1.19,30.17,7.53,11.09,10,12.62,27.42,12.62,44.76v1.39c0,2.57-1.94,4.71-4.49,4.97-9.85,1-19.69,2.02-29.54,3.04-1.41.14-2.81-.31-3.86-1.26-1.05-.95-1.65-2.3-1.65-3.71v-1.79c0-6.27,0-14.85-1.41-16.14,0,.01-.19-.08-.71-.08-.19,0-.42.01-.69.04-1.78.18-2.39.57-2.98,2.75-.87,3.18-.87,8.46-.87,15.15v10.97c.6-.35,1.28-.59,2.02-.66,12.89-1.34,25.78-2.67,38.68-3.99,1.41-.14,2.81.32,3.86,1.26,1.05.95,1.65,2.3,1.65,3.71v77.33c0,2.57-1.94,4.71-4.49,4.97l-8.52.87c-1.99.2-3.9-.79-4.87-2.53l-2.05-3.67c-7.4,7.15-15.58,10.9-25.79,11.96-1.72.18-3.4.27-5.02.27ZM393.55,137.01c-1.77,0-3.65.1-5.64.31-31.67,3.29-34.18,26.43-34.18,56.34v32.12c0,16.94,1.26,35.39,10.6,43.82,4.45,4.01,10.53,5.56,18.58,4.72,9.86-1.02,16.77-4.94,23.82-13.51.84-1.01,2.04-1.66,3.34-1.79,0,0,.1,0,.1,0,1.98-.22,4,.78,4.98,2.52l3.75,6.7.77-.08v-67.28c-9.56.98-19.11,1.96-28.67,2.96v16.12l6.18-.64c1.4-.15,2.81.31,3.86,1.26,1.05.95,1.65,2.3,1.65,3.71v8.33c0,9.14,0,22.95-14.6,24.46-4.05.42-7.33-.47-9.75-2.65-4.88-4.4-4.88-12.29-4.88-25.36v-45.02c0-7.44,0-13.31,1.22-17.78,1.65-6.05,5.55-9.44,11.6-10.07,3.75-.39,6.82.47,9.13,2.55,4.18,3.77,4.65,10.26,4.71,19.81,6.51-.67,13.02-1.34,19.53-2.01-.17-13.94-1.68-27.33-9.3-34.2-3.95-3.57-9.48-5.32-16.8-5.32ZM383.47,229.79c0,7.55.05,15.81,1.58,17.19.09.08.65.28,2.03.13,4.68-.49,5.63-2.93,5.63-14.51v-2.78l-6.18.64c-1.07.11-2.14-.13-3.05-.66ZM424.67,181.05h.01-.01Z"/>
    <path class="cls-10" d="M441.72,275.93c-1.25,0-2.45-.47-3.38-1.32-1.05-.96-1.64-2.33-1.62-3.75l.2-14.46v-112.79l-.2-14.39c-.04-2.59,1.92-4.79,4.5-5.04,8.2-.82,16.4-1.63,24.6-2.43,2.21-.22,4.29,1.05,5.12,3.11,5.84,14.53,11.68,29.06,17.53,43.6v-29.83l-.2-14.39c-.04-2.61,1.94-4.81,4.54-5.05,9.63-.89,19.05-1.72,27.99-2.49,1.41-.12,2.8.36,3.83,1.32,1.03.96,1.61,2.32,1.59,3.73l-.2,14.49v112.76s.2,14.39.2,14.39c.04,2.62-1.96,4.83-4.57,5.05-7.94.68-16.27,1.42-24.76,2.19-2.2.2-4.27-1.06-5.09-3.11-5.84-14.52-11.68-29.02-17.53-43.51v29.72l.2,14.39c.04,2.6-1.93,4.8-4.52,5.04-9.25.89-18.49,1.8-27.74,2.73-.17.02-.33.03-.5.03ZM446.78,133.68l.13,9.87v112.89s0,.05,0,.07l-.12,8.89c5.87-.58,11.75-1.16,17.62-1.73l-.14-9.85v-53.01c0-2.57,1.95-4.73,4.51-4.98l.99-.1c2.21-.21,4.29,1.05,5.12,3.11,8.26,20.49,16.52,40.99,24.79,61.52,5.6-.51,11.11-1,16.47-1.46l-.14-9.8v-112.9s.12-9.04.12-9.04c-5.79.5-11.75,1.03-17.82,1.58l.13,9.83v53.21c0,2.58-1.97,4.74-4.54,4.98l-.98.09c-2.2.22-4.29-1.06-5.11-3.12-8.26-20.57-16.52-41.13-24.78-61.66-5.43.53-10.86,1.06-16.28,1.61ZM441.92,256.44h0,0Z"/>
    <path class="cls-10" d="M539.86,266.93c-1.26,0-2.49-.48-3.42-1.35-1.03-.96-1.6-2.31-1.58-3.72l.2-14.49v-112.76s-.2-14.39-.2-14.39c-.04-2.63,1.98-4.84,4.6-5.05,23.31-1.87,44.75-3.36,65.55-4.55,1.37-.08,2.72.41,3.72,1.36,1,.95,1.57,2.26,1.57,3.64v28.35c0,2.65-2.07,4.84-4.71,4.99-9.95.57-20.29,1.22-30.78,1.95v17.94c8.99-.62,17.86-1.19,26.43-1.69,1.37-.08,2.72.41,3.72,1.35,1,.94,1.57,2.26,1.57,3.64v28.36c0,2.65-2.06,4.84-4.71,4.99-8.74.51-17.81,1.1-27.02,1.73v18.73c10.53-.72,20.87-1.38,30.8-1.94,1.37-.07,2.72.41,3.72,1.36,1,.94,1.57,2.26,1.57,3.63v28.35c0,2.65-2.07,4.84-4.71,4.99-20.92,1.19-42.48,2.69-65.92,4.57-.13.01-.27.02-.4.02ZM544.93,124.77l.13,9.78v112.89s-.12,9.07-.12,9.07c19.68-1.55,38.08-2.83,55.96-3.88v-18.34c-9.96.59-20.27,1.26-30.74,2-1.38.1-2.75-.38-3.76-1.33-1.02-.95-1.59-2.27-1.59-3.66v-28.75c0-2.62,2.03-4.8,4.65-4.99,9.19-.65,18.28-1.25,27.08-1.78v-18.34c-8.59.52-17.44,1.11-26.37,1.74-1.38.1-2.75-.38-3.76-1.33-1.02-.95-1.59-2.27-1.59-3.66v-27.96c0-2.62,2.03-4.8,4.65-4.99,10.48-.74,20.83-1.42,30.85-2.01v-18.34c-17.67,1.05-35.88,2.32-55.37,3.86Z"/>
    <path class="cls-10" d="M647.73,260.34c-1.29,0-2.53-.5-3.47-1.4-.98-.94-1.53-2.24-1.53-3.6v-40.25c0-2.69,2.12-4.89,4.81-5,9.39-.36,18.76-.65,27.83-.87,1.36-.01,2.65.48,3.61,1.42.96.94,1.51,2.23,1.51,3.58v40.25c0,2.71-2.17,4.93-4.88,5-9.09.22-18.41.51-27.69.87-.06,0-.13,0-.19,0ZM652.73,219.91v30.25c5.95-.21,11.89-.4,17.76-.55v-30.25c-5.84.16-11.79.34-17.76.56ZM649.71,208.91c-1.29,0-2.54-.5-3.47-1.4-.98-.94-1.53-2.24-1.53-3.6v-35.29c0-2.69,2.13-4.9,4.81-5,7.97-.3,15.99-.55,23.86-.75,2.61-.06,4.83,1.89,5.1,4.48.57,5.49,2.37,5.47,3.05,5.44,4.09-.08,4.42-8.64,4.42-18.17,0-10.71-1.58-13.86-2.53-14.78-.18-.17-.5-.51-1.69-.47-2.81.06-3.23,5.58-3.23,8.87v3.17c0,2.71-2.16,4.93-4.87,5-8.38.21-17.03.49-25.71.82-1.36.07-2.68-.45-3.66-1.39-.98-.94-1.53-2.25-1.53-3.6v-2.18c0-27.57,14.14-44.34,37.81-44.85,11.2-.25,20.91,3.34,28.11,10.38,9.08,8.88,13.69,22.55,13.69,40.62,0,14.59-2.92,26.83-8.43,35.39-5.49,8.52-13.47,13.29-22.47,13.43-6.5.13-11.15-1.62-14.91-4.28v2.47c0,2.71-2.16,4.93-4.87,5-7.04.18-14.36.42-21.76.69-.06,0-.12,0-.19,0ZM654.71,173.44v25.29c3.98-.14,7.93-.26,11.81-.38v-8.62c0-2.72,2.17-4.93,4.88-5l.98-.02c1.54-.04,3.04.64,4.02,1.85,5.02,6.2,8.02,8.47,14.42,8.47.15,0,.3,0,.45,0,12.79-.2,21.06-15.44,21.05-38.83,0-15.06-3.69-26.64-10.68-33.47-6.6-6.46-15.01-7.66-20.89-7.53-17.23.37-27.08,11.65-27.96,31.84,5.3-.19,10.57-.36,15.75-.5.28-6.16,2.3-16.95,12.99-17.17,3.59-.07,6.57,1.05,8.9,3.33,3.87,3.8,5.53,10.35,5.53,21.92,0,5.41,0,11.54-1.33,16.64-2.56,9.86-9.18,11.45-12.9,11.53-6,.14-10.39-3.47-12.3-9.82-4.88.13-9.8.29-14.72.46Z"/>
  </g>
  <g>
    <path class="cls-5" d="M119.72,157.28c-9.58,23.08-19.17,46.1-28.75,69.05,10.84,24.27,21.68,48.46,32.52,72.56-11.24.5-22.47.92-33.71,1.24-6.28-15.35-12.56-30.74-18.84-46.16-.33,0-.66.01-.99.02v32.12c.07,4.82.13,9.65.2,14.47-10.05.18-20.09.27-30.14.27.07-4.82.13-9.65.2-14.47v-112.83c-.07-4.82-.13-9.65-.2-14.47,10.05,0,20.09-.09,30.14-.27-.07,4.83-.13,9.65-.2,14.48v30.93c.33,0,.66-.01.99-.02,5.88-15.24,11.77-30.51,17.65-45.81,10.38-.29,20.75-.66,31.13-1.11Z"/>
    <path class="cls-5" d="M159.17,155.23c-.07,4.83-.13,9.66-.2,14.49v112.83c.07,4.82.13,9.64.2,14.46-10.05.61-20.09,1.15-30.14,1.63.07-4.83.13-9.66.2-14.48v-112.83c-.07-4.82-.13-9.64-.2-14.47,10.05-.48,20.09-1.02,30.14-1.63Z"/>
    <path class="cls-5" d="M249.59,198.55c-9.85.87-19.7,1.71-29.54,2.51v-1.79c0-14.28,0-22-8.33-21.34-8.33.65-8.33,8.38-8.33,22.65v45.01c0,16.26,0,24,9.12,23.29,10.11-.8,10.11-9.94,10.11-19.25v-8.33c-3.9.32-7.8.63-11.7.94v-26.17c12.89-1.01,25.78-2.1,38.67-3.24v77.33c-2.84.25-5.68.5-8.53.75-1.78-3.22-3.57-6.43-5.35-9.65-.07,0-.13.01-.2.02-7.14,8.54-15.07,13.77-27.17,14.71-32.72,2.47-34.7-30.66-34.7-54.61,0-10.71,0-21.41,0-32.12,0-26.23.99-57.23,38.67-60.11,33.91-2.74,37.28,22.21,37.28,48.03v1.39Z"/>
    <path class="cls-5" d="M345.36,280.85c-10.58,1.09-21.15,2.17-31.73,3.22-.73-4.49-1.45-8.98-2.18-13.46-7.93.79-15.86,1.57-23.79,2.33-.66,4.62-1.32,9.25-1.98,13.87-9.91.95-19.83,1.88-29.74,2.77,9.91-48.15,19.83-96.34,29.74-144.55,9.91-.95,19.83-1.93,29.74-2.92,9.98,46.26,19.96,92.5,29.94,138.73ZM291.82,246.17c5.09-.49,10.18-.99,15.27-1.5-2.38-16.09-4.76-32.18-7.14-48.27-.33.03-.66.07-.99.1-2.38,16.56-4.76,33.12-7.14,49.67Z"/>
    <path class="cls-5" d="M424.67,181.05c-9.85,1-19.7,2.02-29.54,3.04v-1.79c0-14.28,0-22.01-8.33-21.15-8.33.86-8.33,8.6-8.33,22.87v45.01c0,16.26,0,23.99,9.12,23.05,10.11-1.05,10.11-10.17,10.11-19.49,0-2.78,0-5.55,0-8.33-3.9.4-7.8.81-11.7,1.21,0-8.72,0-17.45,0-26.17,12.89-1.34,25.78-2.67,38.67-3.99,0,25.78,0,51.55,0,77.33-2.84.29-5.68.58-8.53.87-1.78-3.19-3.57-6.38-5.35-9.56-.07,0-.13.01-.2.02-7.14,8.67-15.07,14.05-27.17,15.3-32.72,3.4-34.7-29.52-34.7-53.51v-32.12c0-26.18.99-57.4,38.67-61.31,33.91-3.51,37.28,21.54,37.28,47.32,0,.46,0,.93,0,1.39Z"/>
    <path class="cls-5" d="M441.92,256.44v-112.83c-.07-4.82-.13-9.64-.2-14.45,8.2-.82,16.39-1.63,24.59-2.43,8.72,21.69,17.45,43.41,26.17,65.14.33-.03.66-.06.99-.09v-53.14c-.07-4.82-.13-9.64-.2-14.46,9.32-.86,18.64-1.69,27.96-2.48-.07,4.83-.13,9.66-.2,14.49v112.83c.07,4.82.13,9.64.2,14.46-8.26.71-16.52,1.44-24.79,2.19-8.72-21.68-17.45-43.33-26.17-64.96-.33.03-.66.06-.99.1v52.94c.07,4.82.13,9.64.2,14.46-9.25.89-18.51,1.8-27.76,2.73.07-4.83.13-9.66.2-14.49Z"/>
    <path class="cls-5" d="M569.81,202.56v28.75c12.03-.85,24.06-1.63,36.09-2.31v28.35c-22.01,1.26-44.02,2.81-66.03,4.58.07-4.83.13-9.66.2-14.49v-112.83c-.07-4.82-.13-9.64-.2-14.46,21.81-1.75,43.62-3.3,65.43-4.55,0,9.45,0,18.9,0,28.35-11.83.68-23.66,1.44-35.49,2.28v27.96c10.58-.75,21.15-1.44,31.73-2.06v28.36c-10.58.62-21.15,1.31-31.73,2.06Z"/>
    <path class="cls-5" d="M649.71,203.91c0-11.76,0-23.53,0-35.29,7.93-.3,15.86-.55,23.79-.75.6,5.74,2.97,10.03,8.13,9.93,9.32-.18,9.32-12.86,9.32-23.17,0-14.67-2.78-20.39-9.32-20.25-4.56.09-8.13,3.56-8.13,13.87v3.17c-8.59.22-17.19.49-25.78.82,0-.73,0-1.45,0-2.18,0-25.96,13.09-39.42,32.92-39.85,19.63-.43,36.68,12.29,36.68,46,0,28.95-11.7,43.6-25.98,43.82-9.12.15-13.48-3.71-18.84-10.32-.33,0-.66.02-.99.03v13.48c-7.27.19-14.54.42-21.81.69ZM647.73,215.09c9.25-.35,18.51-.65,27.76-.87v40.25c-9.25.22-18.51.51-27.76.87,0-13.42,0-26.83,0-40.25Z"/>
  </g>
</svg>